<?xml version="1.0" encoding="utf-8"?>
<!-- Generator: Adobe Illustrator 22.0.1, SVG Export Plug-In . SVG Version: 6.00 Build 0)  -->
<svg version="1.1" id="Layer_2_1_" xmlns="http://www.w3.org/2000/svg" xmlns:xlink="http://www.w3.org/1999/xlink" x="0px" y="0px"
	 viewBox="0 0 72 72" style="enable-background:new 0 0 72 72;" xml:space="preserve">
<style type="text/css">
	.st0{fill:#FFFFFF;}
</style>
<title>image</title>
<path class="st0" d="M14.7,52.6H4.3c-0.3,0-0.5,0.2-0.5,0.5V61c0,0.3,0.2,0.5,0.5,0.5h10.3c0.3,0,0.5-0.2,0.5-0.5v-7.9
	C15.2,52.9,14.9,52.6,14.7,52.6z M14.2,60.5H4.8v-6.9h9.3V60.5z"/>
<path class="st0" d="M27.9,43.4H17.6c-0.3,0-0.5,0.2-0.5,0.5V61c0,0.3,0.2,0.5,0.5,0.5h10.3c0.3,0,0.5-0.2,0.5-0.5V43.9
	C28.4,43.6,28.2,43.4,27.9,43.4z M27.4,60.5h-9.3V44.4h9.3V60.5z"/>
<path class="st0" d="M41.2,47.5H30.8c-0.3,0-0.5,0.2-0.5,0.5v13c0,0.3,0.2,0.5,0.5,0.5h10.3c0.3,0,0.5-0.2,0.5-0.5V48
	C41.6,47.7,41.4,47.5,41.2,47.5z M40.7,60.5h-9.3v-12h9.3V60.5z"/>
<path class="st0" d="M54.4,38.4H44.1c-0.3,0-0.5,0.2-0.5,0.5V61c0,0.3,0.2,0.5,0.5,0.5h10.3c0.3,0,0.5-0.2,0.5-0.5V38.9
	C54.9,38.6,54.7,38.4,54.4,38.4z M53.9,60.5h-9.3V39.4h9.3L53.9,60.5z"/>
<path class="st0" d="M67.7,30.1H57.3c-0.3,0-0.5,0.2-0.5,0.5V61c0,0.3,0.2,0.5,0.5,0.5h10.3c0.3,0,0.5-0.2,0.5-0.5V30.6
	C68.2,30.4,67.9,30.1,67.7,30.1z M67.2,60.5h-9.3V31.1h9.3V60.5z"/>
<path class="st0" d="M62.5,22.9c-1-0.1-1.9-0.4-2.7-1.1L58.4,24c1,0.8,2.2,1.3,3.4,1.5v1.9H64v-2c1.8-0.3,3.1-2,3-3.8
	c0-3.5-5-3.6-5-5c0-0.8,0.4-1,1.2-1c0.8,0,1.5,0.4,2,0.9l1.6-1.9c-0.8-0.9-1.8-1.4-2.9-1.6V11h-2.2v2c-1.8,0.3-3.1,1.9-3,3.7
	c0,3.4,5,3.6,5,5.1C63.8,22.6,63.4,22.9,62.5,22.9z"/>
<path class="st0" d="M55.8,19.7L35.8,39.8L23.5,27.5c-0.2-0.2-0.5-0.2-0.7,0L4.2,46.1c-0.2,0.2-0.2,0.5,0,0.7c0,0,0,0,0,0
	C4.3,46.9,4.4,47,4.6,47c0.1,0,0.3-0.1,0.4-0.2l18.2-18.2l12.2,12.2c0.2,0.2,0.5,0.2,0.7,0c0,0,0,0,0,0l20.4-20.4
	c0.2-0.2,0.2-0.5,0-0.7S56,19.5,55.8,19.7z"/>
</svg>
