<?xml version="1.0" encoding="utf-8"?>
<!-- Generator: Adobe Illustrator 22.0.1, SVG Export Plug-In . SVG Version: 6.00 Build 0)  -->
<svg version="1.1" id="Layer_2_1_" xmlns="http://www.w3.org/2000/svg" xmlns:xlink="http://www.w3.org/1999/xlink" x="0px" y="0px"
	 viewBox="0 0 72 72" style="enable-background:new 0 0 72 72;" xml:space="preserve">
<style type="text/css">
	.st0{fill:#FFFFFF;}
</style>
<title>general</title>
<path class="st0" d="M63.5,28.9c0.2-0.3,0.4-0.5,0.6-0.8c1.1,1.9,3.5,2.7,5.4,1.6c1.1-0.6,1.9-1.7,2.1-3h0.3L63.2,6.4H8.4L0.1,26.7
	h0.3c0.3,2.2,2.3,3.7,4.5,3.5c1.3-0.2,2.4-0.9,3-2.1c0.2,0.3,0.4,0.6,0.6,0.8v35.7H1.1v1h69.9v-1h-7.4V28.9z M8.4,26.7h5.9
	c-0.3,1.6-1.8,2.8-3.4,2.5C9.6,29,8.6,28,8.4,26.7z M60.6,29.2c-1.5,0-2.8-1-3-2.5h5.9C63.3,28.1,62.1,29.2,60.6,29.2z M67.6,29.2
	c-1.5,0-2.8-1-3-2.5h5.9C70.3,28.1,69.1,29.1,67.6,29.2L67.6,29.2z M9.1,7.4h53.4l7.9,18.2H1.6L9.1,7.4z M56.6,26.7
	c-0.3,1.6-1.8,2.8-3.4,2.5c-1.3-0.2-2.3-1.2-2.5-2.5H56.6z M49.6,26.7c-0.3,1.6-1.8,2.8-3.4,2.5c-1.3-0.2-2.3-1.2-2.5-2.5H49.6z
	 M42.6,26.7c-0.3,1.6-1.8,2.8-3.4,2.5c-1.3-0.2-2.3-1.2-2.5-2.5H42.6z M35.6,26.7c-0.3,1.6-1.8,2.8-3.4,2.5
	c-1.3-0.2-2.3-1.2-2.5-2.5H35.6z M28.6,26.7c-0.3,1.6-1.8,2.8-3.4,2.5c-1.3-0.2-2.3-1.2-2.5-2.5H28.6z M21.6,26.7
	c-0.3,1.6-1.8,2.8-3.4,2.5c-1.3-0.2-2.3-1.2-2.5-2.5H21.6z M4.6,29.2c-1.5,0-2.8-1-3-2.5h5.8c-0.2,1.4-1.5,2.5-3,2.5H4.6z
	 M43.6,64.6V37.2h13.8v27.4H43.6z M58.4,64.6V36.2H42.6v28.4H9.5V29.7c0.6,0.3,1.2,0.5,1.9,0.5c1.5,0,2.8-0.8,3.5-2.1
	c1.1,1.9,3.5,2.6,5.4,1.6c0.7-0.4,1.2-0.9,1.6-1.6c1.1,1.9,3.5,2.6,5.4,1.6c0.7-0.4,1.2-0.9,1.6-1.6c1.1,1.9,3.5,2.6,5.4,1.6
	c0.7-0.4,1.2-0.9,1.6-1.6c1.1,1.9,3.5,2.6,5.4,1.6c0.7-0.4,1.2-0.9,1.6-1.6c1.1,1.9,3.5,2.6,5.4,1.6c0.7-0.4,1.2-0.9,1.6-1.6
	c1.1,1.9,3.5,2.6,5.4,1.6c0.7-0.4,1.2-0.9,1.6-1.6c0.7,1.3,2,2.1,3.5,2.1c0.7,0,1.3-0.2,1.9-0.5v34.9H58.4z"/>
<path class="st0" d="M13.7,53.5h24.6V36.2H13.7V53.5z M14.7,37.2h17.2L24.1,45l0.7,0.7l8.5-8.5l0-0.1h4.1v15.4H24.1l8.2-8.1
	l-0.7-0.7l-8.9,8.9h-8L14.7,37.2z"/>
<rect x="46.1" y="50.5" class="st0" width="1" height="3.5"/>
</svg>
