<?xml version="1.0" encoding="utf-8"?>
<!-- Generator: Adobe Illustrator 22.0.1, SVG Export Plug-In . SVG Version: 6.00 Build 0)  -->
<svg version="1.1" id="Layer_2_1_" xmlns="http://www.w3.org/2000/svg" xmlns:xlink="http://www.w3.org/1999/xlink" x="0px" y="0px"
	 viewBox="0 0 72 72" style="enable-background:new 0 0 72 72;" xml:space="preserve">
<style type="text/css">
	.st0{fill:#FFFFFF;}
</style>
<title>image</title>
<path class="st0" d="M35.9,8.3c-3.1,0-5.6,2.5-5.6,5.6s2.5,5.6,5.6,5.6s5.6-2.5,5.6-5.6l0,0C41.5,10.8,39,8.3,35.9,8.3z M35.9,18.4
	c-2.5,0-4.6-2.1-4.6-4.6s2.1-4.6,4.6-4.6c2.5,0,4.6,2.1,4.6,4.6c0,0,0,0,0,0C40.5,16.4,38.5,18.4,35.9,18.4z"/>
<path class="st0" d="M51.7,22.4c-0.3,0-0.5,0.2-0.5,0.5c0.2,5.2,4.5,9.2,9.7,9c4.9-0.2,8.9-4.1,9-9c0-0.3-0.2-0.5-0.5-0.5h-0.8
	l-6.9-16C61.8,6.2,62,6,62.1,5.8c0.2-0.4,0.2-0.9,0.1-1.3c-0.1-0.4-0.5-0.8-0.9-1c-0.4-0.2-0.9-0.2-1.3-0.1L42,9.9
	c-2.2-3.4-6.7-4.3-10-2.1c-2.1,1.3-3.3,3.6-3.3,6.1c0,0.3,0,0.5,0,0.8l-18,6.5c-0.4,0.2-0.8,0.5-1,0.9c-0.3,0.7-0.1,1.6,0.5,2.1
	L3.4,40.1H2.6c-0.3,0-0.5,0.2-0.5,0.5c0.2,5.2,4.5,9.2,9.7,9c4.9-0.2,8.9-4.1,9-9c0-0.3-0.2-0.5-0.5-0.5h-0.8l-6.9-15.9L30,18
	c0.7,1.1,1.7,1.9,2.9,2.5v39.4h-5c-1.6,0-2.9,1.1-3.1,2.7h-8c-3.1,0-5.7,2.5-5.7,5.7c0,0.3,0.2,0.5,0.5,0.5h48.7
	c0.3,0,0.5-0.2,0.5-0.5c0-3.1-2.5-5.7-5.7-5.7h-8c-0.2-1.5-1.6-2.6-3.1-2.7h-5V20.4c2.5-1.2,4.2-3.7,4.2-6.6c0-0.2,0-0.4,0-0.7
	l15.6-5.6l-6.3,14.8H51.7z M60.5,31.2c-4.4,0-8.1-3.4-8.3-7.8h16.7C68.6,27.8,64.9,31.2,60.5,31.2z M11.5,48.9
	c-4.4,0-8.1-3.4-8.3-7.8h16.6C19.5,45.5,15.9,48.9,11.5,48.9L11.5,48.9z M4.5,40.1l6.6-15.5h0.2c0.1,0,0.3,0,0.4-0.1L18.4,40
	L4.5,40.1z M11.6,23.5c-0.2,0.1-0.4,0.1-0.6,0c-0.2-0.1-0.3-0.2-0.4-0.4c-0.2-0.4,0-0.8,0.4-1c0,0,0,0,0.1,0l17.9-6.4
	c0.1,0.5,0.3,1,0.5,1.4L11.6,23.5z M38.5,60.8H44c1.2,0,2.2,0.9,2.2,2.1c0,0,0,0,0,0c0,0.3,0.2,0.5,0.5,0.5h8.4
	c2.4,0,4.4,1.8,4.6,4.2H12.1c0.3-2.4,2.3-4.2,4.6-4.2h8.4c0.3,0,0.5-0.2,0.5-0.5c0-1.2,1-2.2,2.2-2.2h5.5c0.3,0,0.5-0.2,0.5-0.5
	V20.8c1.4,0.4,2.8,0.4,4.2,0v39.5C38,60.6,38.2,60.8,38.5,60.8L38.5,60.8z M35.9,20.1c-3.5,0-6.3-2.8-6.3-6.3s2.8-6.3,6.3-6.3
	s6.3,2.8,6.3,6.3C42.2,17.3,39.4,20.1,35.9,20.1z M42.5,10.8l17.7-6.4c0.2-0.1,0.4-0.1,0.6,0c0.2,0.1,0.3,0.2,0.4,0.4
	c0.1,0.2,0.1,0.4,0,0.6c-0.1,0.2-0.2,0.3-0.4,0.4L43,12.2C42.9,11.7,42.7,11.2,42.5,10.8z M60,7.1l0.7-0.3l6.7,15.5h-14L60,7.1z"/>
<path class="st0" d="M28,62.8c0,0.3,0.2,0.5,0.5,0.5h14.8c0.3,0,0.5-0.2,0.5-0.5c0-0.3-0.2-0.5-0.5-0.5H28.5
	C28.3,62.3,28,62.5,28,62.8z"/>
</svg>
