<?xml version="1.0" encoding="utf-8"?>
<!-- Generator: Adobe Illustrator 22.0.1, SVG Export Plug-In . SVG Version: 6.00 Build 0)  -->
<svg version="1.1" id="Layer_2_1_" xmlns="http://www.w3.org/2000/svg" xmlns:xlink="http://www.w3.org/1999/xlink" x="0px" y="0px"
	 viewBox="0 0 72 72" style="enable-background:new 0 0 72 72;" xml:space="preserve">
<style type="text/css">
	.st0{fill:#FFFFFF;}
</style>
<title>image</title>
<path class="st0" d="M49.6,14.6c-0.2-0.1-0.4-0.1-0.6,0L32,27.8c-0.1,0.1-0.2,0.2-0.2,0.4v7.6l-12.6-9.6c-0.2-0.2-0.4-0.2-0.6,0
	L1,41.1c-0.2,0.2-0.2,0.5-0.1,0.7C1,41.9,1.2,42,1.3,42c0.1,0,0.2,0,0.3-0.1L19,27.2l12.9,9.8v3.1l-12.6-9.6c-0.2-0.1-0.4-0.1-0.6,0
	L5.7,40.8c-0.1,0.1-0.2,0.2-0.2,0.4v18c0,0.3,0.2,0.5,0.5,0.5h60c0.3,0,0.5-0.2,0.5-0.5v-31c0-0.2-0.1-0.3-0.2-0.4L49.6,14.6z
	 M28.6,47.9H10v-4.6h18.6L28.6,47.9z M10,48.9h18.6v4.7H10V48.9z M10,54.6h18.6v4.1H10V54.6z M31.9,58.7h-2.2V42.8
	c0-0.3-0.2-0.5-0.5-0.5H9.5c-0.3,0-0.5,0.2-0.5,0.5v15.9H6.5V41.4l12.4-9.8l12.9,9.8L31.9,58.7z M46.8,58.7h-9.4V43.3h9.4L46.8,58.7
	z M65.5,58.7H47.7V42.8c0-0.3-0.2-0.5-0.5-0.5H36.8c-0.3,0-0.5,0.2-0.5,0.5v15.9h-3.5V28.4l16.4-12.8l16.2,12.8L65.5,58.7z"/>
<path class="st0" d="M71,27.8L49.6,9.9c-0.2-0.2-0.5-0.2-0.6,0L27.3,27.8c-0.2,0.2-0.2,0.5-0.1,0.7c0.2,0.2,0.5,0.2,0.7,0.1
	l21.3-17.6l21.1,17.6c0.2,0.2,0.5,0.1,0.7-0.1C71.2,28.2,71.2,28,71,27.8L71,27.8z"/>
<path class="st0" d="M51,54.3h10.4c0.3,0,0.5-0.2,0.5-0.5v-11c0-0.3-0.2-0.5-0.5-0.5H51c-0.3,0-0.5,0.2-0.5,0.5v11
	C50.5,54.1,50.7,54.3,51,54.3z M51.5,53.3v-4.4h9.4v4.4H51.5z M60.9,43.3v4.6h-9.4v-4.6L60.9,43.3z"/>
<path class="st0" d="M38.9,56.1h6.4c0.3,0,0.5-0.2,0.5-0.5V44.9c0-0.3-0.2-0.5-0.5-0.5h-6.4c-0.3,0-0.5,0.2-0.5,0.5v10.8
	C38.4,55.9,38.6,56.1,38.9,56.1z M39.4,45.4h5.4v9.8h-5.4V45.4z"/>
<path class="st0" d="M47.2,29.3H36.8c-0.3,0-0.5,0.2-0.5,0.5v7.7c0,0.3,0.2,0.5,0.5,0.5h10.4c0.3,0,0.5-0.2,0.5-0.5v-7.7
	C47.7,29.5,47.5,29.3,47.2,29.3z M46.7,33.2h-4.2v-2.9h4.2V33.2z M41.5,30.3v2.9h-4.2v-2.9L41.5,30.3z M37.3,37v-2.8h9.4V37H37.3z"
	/>
<path class="st0" d="M51,38h10.4c0.3,0,0.5-0.2,0.5-0.5v-7.7c0-0.3-0.2-0.5-0.5-0.5H51c-0.3,0-0.5,0.2-0.5,0.5v7.7
	C50.5,37.8,50.7,38,51,38z M51.5,37v-2.8h9.4V37H51.5z M60.9,33.2h-4.2v-2.9h4.2V33.2z M55.7,30.3v2.9h-4.2v-2.9L55.7,30.3z"/>
</svg>
