<?xml version="1.0" encoding="utf-8"?>
<!-- Generator: Adobe Illustrator 22.0.1, SVG Export Plug-In . SVG Version: 6.00 Build 0)  -->
<svg version="1.1" id="Layer_1" xmlns="http://www.w3.org/2000/svg" xmlns:xlink="http://www.w3.org/1999/xlink" x="0px" y="0px"
	 viewBox="0 0 452.6 452.6" style="enable-background:new 0 0 452.6 452.6;" xml:space="preserve">
<style type="text/css">
	.st0{fill:#B2D1E6;}
</style>
<title>dynamic-charts</title>
<path class="st0" d="M154.3,288.2c-5.6,0.1-11.1-0.9-16.3-3c-4.6-1.9-8.6-4.8-11.8-8.5c-3.2-3.8-5.5-8.3-7-13
	c-1.6-5.4-2.5-11-2.4-16.6c0-12.7,3.3-22.7,9.8-30.2s15.8-11.2,27.7-11.2c11.7,0,20.8,3.8,27.4,11.3c6.5,7.5,9.8,17.5,9.9,30.1
	c0.1,5.5-0.8,11.1-2.4,16.4c-1.5,4.7-3.9,9.2-7,13c-3.2,3.8-7.2,6.7-11.7,8.7C165.3,287.2,159.8,288.2,154.3,288.2z M154.3,282.5
	c6.6,0,12.1-1.5,16.6-4.5c4.5-3,7.9-7.3,9.9-12.4c2.2-6,3.3-12.3,3.1-18.7c0-11.3-2.5-20.1-7.5-26.3s-12.4-9.3-22.1-9.3
	c-9.8,0-17.2,3.1-22.3,9.3s-7.7,14.9-7.7,26.3c0,11,2.5,19.7,7.6,26C137,279.3,144.5,282.5,154.3,282.5z"/>
<path class="st0" d="M220.4,286.9L198,228.1h7.1l13.6,37.1c0.7,2.3,1.6,4.8,2.6,7.4s1.8,4.7,2.4,6.1l0.9,2.2c0.8-2.5,1.6-5,2.7-7.4
	c1.1-2.6,2.1-5.4,3-8.2c1-3.1,2.7-7.7,5.3-13.9c2.5-6.2,5.3-14,8.3-23.3h7.1l-22.8,58.9H220.4z"/>
<path class="st0" d="M282.8,288.2c-8.1,0-14.6-2.7-19.4-8.2s-7.2-12.8-7.2-22.1c0-9,2.3-16.4,7-22.1c4.4-5.6,11-8.8,18.1-8.9
	c6.9,0,12.5,2.5,16.6,7.4c4.2,4.9,6.3,11.6,6.3,19.9c0,0.3,0,1,0,2s0,1.7,0,2.1h-41c0.1,7.6,1.9,13.6,5.5,18
	c3.4,4.3,8.7,6.8,14.2,6.6c3.4,0.1,6.8-0.4,10-1.3c3.1-1,6-2.3,8.9-3.8l1.1,5C296.9,286.5,289.9,288.4,282.8,288.2z M263.5,252.9
	h33.5c0-6.6-1.4-11.6-4.3-15.1c-2.8-3.5-6.7-5.2-11.6-5.2c-4.7-0.2-9.2,1.9-12.2,5.6C265.9,241.9,264.1,246.8,263.5,252.9
	L263.5,252.9z"/>
<path class="st0" d="M317.7,286.9c-0.1-34.6-0.1-54.2-0.1-58.9h5.5l0.4,11.6c2-3.4,4.7-6.3,8-8.6c3-2.1,6.5-3.3,10.2-3.3
	c1.6,0,3.2,0.1,4.7,0.4l-0.5,5.5c-1.3-0.2-2.7-0.3-4.1-0.3c-4.9-0.1-9.5,2.1-12.5,5.9c-3.4,3.9-5.2,8.8-5.1,13.9v33.8H317.7z"/>
<path class="st0" d="M17.1,418.9v-72.8c-1.7,1.2-3.6,2.2-5.4,3.1c-2.4,1.2-4.9,2.2-7.4,3.1v-5.8c7.5-3.5,12.2-6,14.1-7.5h5.6v79.9
	L17.1,418.9z"/>
<path class="st0" d="M77.4,418.9v-21.6H40.8V390l36.8-52.8H84v54.2h10l-0.8,5.9H84v21.6L77.4,418.9z M48.1,391.4h29.3v-43.1
	L48.1,391.4z"/>
<path class="st0" d="M133.2,418.9V339h9.7l29.6,67.5l28.8-67.5h9.3v79.9h-6.8v-53.8l0.4-18.2l-2,6.4l-26.3,60.9h-7.5l-26.6-61.1
	l-2.1-6.4l0.4,18.6v53.5H133.2z"/>
<path class="st0" d="M228.9,348v-9h6.7v9H228.9z M228.9,418.9v-58.8h6.7v58.9L228.9,418.9z"/>
<path class="st0" d="M266.9,420.2c-4.9,0-8.6-1.1-10.9-3.4s-3.4-5.9-3.4-10.9v-68.7l6.5-0.5v68.9c0,3.6,0.7,6.1,2,7.4
	c1.3,1.4,3.3,2,5.9,2c2.7-0.1,5.4-0.5,8-1.2l0.3,5.2C272.7,419.6,269.8,420.1,266.9,420.2z"/>
<path class="st0" d="M298.1,420.2c-4.9,0-8.6-1.1-10.9-3.4s-3.4-5.9-3.4-10.9v-68.7l6.6-0.5v68.9c0,3.6,0.7,6.1,2,7.4
	c1.3,1.4,3.3,2,5.9,2c2.7-0.1,5.4-0.5,8.1-1.2l0.3,5.2C303.9,419.6,301,420.1,298.1,420.2z"/>
<path class="st0" d="M315.2,348v-9h6.7v9H315.2z M315.2,418.9v-58.8h6.7v58.9L315.2,418.9z"/>
<path class="st0" d="M362.3,420.2c-5,0.1-9.9-1.3-14.1-4c-4.1-2.7-7.3-6.5-9.3-10.9c-2.2-4.9-3.3-10.2-3.2-15.6
	c0-4.1,0.6-8.2,1.9-12.2c1.1-3.5,2.9-6.8,5.3-9.7c2.3-2.8,5.2-5,8.5-6.5c3.6-1.6,7.4-2.4,11.3-2.3c10.2-0.3,19.5,5.6,23.5,15
	c2.1,4.9,3.1,10.2,3,15.6c0.1,5.4-1,10.7-3.1,15.7c-2,4.5-5.2,8.3-9.3,10.9C372.5,419,367.4,420.3,362.3,420.2z M362.8,414.9
	c3.9,0.1,7.7-1.1,10.9-3.4c3-2.3,5.2-5.4,6.5-9c1.4-4.1,2.1-8.5,2-12.8c0-7.6-1.6-13.7-4.8-18.3c-3.2-4.6-8.1-6.9-14.7-6.9
	c-4-0.1-7.8,1.1-11,3.5c-3,2.3-5.3,5.5-6.6,9.1c-1.5,4.1-2.2,8.5-2.1,12.9c0,7.3,1.7,13.4,5.1,18
	C351.4,412.6,356.4,414.9,362.8,414.9z"/>
<path class="st0" d="M402.3,418.9v-58.9h5.8l0.9,9.1c2.1-3.2,5.1-5.7,8.5-7.4c3.6-1.8,7.5-2.7,11.5-2.7c6.8,0,11.8,1.9,14.9,5.6
	c3.2,3.7,4.8,9.7,4.8,17.8v36.5h-6.7v-39.5c-0.2-5.2-1.3-9-3.3-11.3c-2-2.3-5.4-3.4-10-3.4c-5.3,0-9.7,1.3-13.1,4
	c-3.3,2.6-5.6,6.3-6.4,10.4c-0.1,1.7-0.2,3.4-0.2,5.3v34.5L402.3,418.9z"/>
</svg>
