<svg id="Layer_1" data-name="Layer 1" xmlns="http://www.w3.org/2000/svg" viewBox="0 0 453.41 453.41"><defs><style>.cls-1{fill:#09293f;}.cls-2{fill:#b2d1e6;}</style></defs><title>x</title><path class="cls-1" d="M226.7,4.44c-98.2,0-181,60.18-211.38,153.58A211.19,211.19,0,0,0,4.44,226.7C4.44,349.46,104,449,226.7,449S449,349.46,449,226.7,349.46,4.44,226.7,4.44Zm0,413.15c-105.42,0-190.89-85.46-190.89-190.89A190.76,190.76,0,0,1,226.7,35.81c105.43,0,190.89,85.47,190.89,190.89S332.13,417.59,226.7,417.59Z"/><path class="cls-2" d="M226.7,4.44V35.81c105.43,0,190.89,85.47,190.89,190.89S332.13,417.59,226.7,417.59,35.81,332.13,35.81,226.7a190.82,190.82,0,0,1,9.31-59L15.32,158A211.19,211.19,0,0,0,4.44,226.7C4.44,349.46,104,449,226.7,449S449,349.46,449,226.7,349.46,4.44,226.7,4.44Z"/><path class="cls-2" d="M117.07,280.15a48.9,48.9,0,0,1-19.25-3.65,31.65,31.65,0,0,1-13.88-11.16,30.09,30.09,0,0,1-5.29-17.77,32.39,32.39,0,0,1,7.29-20.85q7.28-9.09,20.33-12.69-12-3.27-18.53-10.2a24,24,0,0,1-6.53-17.09q0-13.61,9.93-21.61t26-8q15.85,0,25.57,8t9.73,21.65a24.59,24.59,0,0,1-6.24,17.09Q140,210.75,128.76,214q12.24,3.6,19.29,12.69a33.14,33.14,0,0,1,7,20.85,32,32,0,0,1-3,14,28,28,0,0,1-8.17,10.28,37.94,37.94,0,0,1-12,6.16A49.24,49.24,0,0,1,117.07,280.15Zm0-8.41q11.69,0,19.45-6.48t7.76-17.21q0-11.52-7.36-19.09t-19.85-10.68Q104.59,221.48,97,229A25.68,25.68,0,0,0,89.46,248a21.24,21.24,0,0,0,7.92,17.25Q105.3,271.75,117.07,271.74Zm0-62Q142,204.92,142,186.58q0-10-7.28-15.45t-17.61-5.44a29.12,29.12,0,0,0-17.81,5.48q-7.4,5.49-7.4,15.41Q91.86,204.75,117.07,209.79Z"/><path class="cls-2" d="M231.13,275.66a33.65,33.65,0,0,1-17.69,4.57,34.07,34.07,0,0,1-17.77-4.57,34.41,34.41,0,0,1-12.45-13,68.59,68.59,0,0,1-7.12-19.81,126.84,126.84,0,0,1-2.36-25.62q0-30,10.2-46.42t29.5-16.41q19.29,0,29.33,16.37t10,46.46a129.21,129.21,0,0,1-2.32,25.62,68.56,68.56,0,0,1-7.05,19.81A34.25,34.25,0,0,1,231.13,275.66ZM213.36,271q12.24,0,19.77-14.69t7.52-39.5q0-24.33-7.52-38.77t-19.69-14.45q-12.25,0-19.77,14.49T186.23,217q0,24.82,7.48,39.42T213.36,271Z"/><path class="cls-2" d="M317.43,201.75c0,22.46-11.8,33.61-25.57,33.61-13.28,0-24.76-10.66-24.92-32.13,0-21.31,11.64-33.28,25.74-33.28C307.59,170,317.43,181.42,317.43,201.75Zm-39,1c-.32,13.6,4.76,23.93,13.77,23.93,9.51,0,13.77-10.17,13.77-24.26,0-12.95-3.77-23.77-13.77-23.77C283.17,178.64,278.41,189.29,278.41,202.74Zm12.46,77.37L353.49,170h9.18L300.05,280.11Zm95.9-34.26c0,22.46-11.8,33.6-25.41,33.6-13.28,0-24.75-10.65-24.92-32,0-21.48,11.64-33.44,25.74-33.44C377.1,214.05,386.77,225.52,386.77,245.85Zm-39,1c-.16,13.61,5.09,23.93,13.94,23.93,9.51,0,13.77-10.16,13.77-24.26,0-12.95-3.77-23.77-13.77-23.77C352.67,222.73,347.75,233.39,347.75,246.83Z"/></svg>