<svg id="Layer_2" data-name="Layer 2" xmlns="http://www.w3.org/2000/svg" viewBox="0 0 72 72"><defs><style>.cls-1{fill:#fff;stroke:#3a6184;stroke-miterlimit:10;stroke-width:2px;}.cls-2{fill:#3a6184;}</style></defs><title>Artboard 2 copy 6</title><circle class="cls-1" cx="36.59" cy="36.28" r="33.63"/><path class="cls-2" d="M48.08,45.57c-2.52-.58-6.25-3.31-6.78-3.7V37.76A12.87,12.87,0,0,0,46.78,27a13.61,13.61,0,0,0-.52-3.7l.13-.06a5.12,5.12,0,0,0,2.24-3.72V13.23l0-1-.91.27c-.05,0-1.23.35-7,.52A32.6,32.6,0,0,1,37.37,13c-3.7-.25-7.89-.54-10.57,2.15-2,2-2.8,5.3-2.46,10.09l.08,1.12.11-.06c0,.25,0,.49,0,.74a12.83,12.83,0,0,0,5.84,11v3.93c-.79.57-4.3,3-6.69,3.63-3.13.78-3.46,6-3.49,6.6V59a.71.71,0,0,0,1.42,0V52.2C21.63,51,22.19,47.4,24,47c2.4-.6,5.61-2.75,6.85-3.63l4.31,4.52V59a.72.72,0,0,0,1.43,0V47.84l4.31-4.51c1.24.89,4.45,3.07,6.87,3.62,2,.45,2.4,3.92,2.4,5.22V59a.71.71,0,0,0,1.42,0V52.17C51.58,51.93,51.54,46.36,48.08,45.57ZM27.8,16.11c1.53-1.53,3.82-1.89,6.2-1.89,1.1,0,2.21.07,3.27.15,1.24.08,2.4.16,3.46.13,3.61-.11,5.51-.29,6.48-.42v5.35A3.72,3.72,0,0,1,45.68,22c-1,.56-2.4.44-4.2-.37-5.3-2.38-13,1-15.78,2.37C25.57,20.24,26.26,17.65,27.8,16.11ZM25.91,27A13.15,13.15,0,0,1,26,25.44c2.21-1.13,10-4.73,14.88-2.51a7.39,7.39,0,0,0,4,.78A12.2,12.2,0,0,1,45.36,27c0,6.13-4.36,11.11-9.72,11.11S25.91,33.12,25.91,27Zm5.84,15.23v-3.5a9.9,9.9,0,0,0,8.13-.15v3.75l-4,4.21Z"/></svg>