<svg id="Layer_2" data-name="Layer 2" xmlns="http://www.w3.org/2000/svg" viewBox="0 0 72 72"><defs><style>.cls-1{fill:#3a6184;}</style></defs><title>Artboard 2 copy 3</title><path class="cls-1" d="M45.65,43.67c-2-.47-5-2.66-5.43-3V37.41a10.33,10.33,0,0,0,4.39-8.63,11.08,11.08,0,0,0-.41-3l.1-.05a4.09,4.09,0,0,0,1.79-3V17l-.73.22a32.58,32.58,0,0,1-5.62.41,25.11,25.11,0,0,1-2.66-.1c-3-.2-6.32-.43-8.47,1.73-1.6,1.6-2.24,4.25-2,8.08l.07.9.09,0c0,.2,0,.39,0,.59a10.3,10.3,0,0,0,4.68,8.83v3.15a20.44,20.44,0,0,1-5.36,2.91c-2.51.63-2.77,4.79-2.8,5.29v5.47a.57.57,0,0,0,.57.57.56.56,0,0,0,.57-.57V49c.05-1,.5-3.85,1.94-4.21a20.4,20.4,0,0,0,5.49-2.9l3.46,3.62v8.94a.57.57,0,1,0,1.13,0V45.49l3.46-3.62a19.27,19.27,0,0,0,5.5,2.91c1.58.36,1.93,3.14,1.93,4.18v5.47a.57.57,0,1,0,1.14,0V49C48.46,48.77,48.43,44.3,45.65,43.67ZM29.41,20.06c1.22-1.22,3.05-1.51,5-1.51.87,0,1.76.06,2.61.12s1.92.13,2.78.1c2.89-.09,4.41-.23,5.18-.33v4.29a3,3,0,0,1-1.23,2.05c-.8.46-1.93.36-3.36-.29-4.25-1.91-10.45.8-12.65,1.9C27.62,23.37,28.17,21.3,29.41,20.06Zm-1.52,8.72A10,10,0,0,1,28,27.54c1.77-.9,8-3.79,11.92-2a6,6,0,0,0,3.21.63,9.81,9.81,0,0,1,.36,2.62c0,4.91-3.49,8.9-7.79,8.9S27.89,33.69,27.89,28.78ZM32.57,41v-2.8a7.93,7.93,0,0,0,6.51-.12v3l-3.22,3.36Z"/><path class="cls-1" d="M67.82,40.33A15.3,15.3,0,0,1,63.52,38V35.2a8.76,8.76,0,0,0,3.31-5.08,9.6,9.6,0,0,0,.22-1.56l.19-.31a3.88,3.88,0,0,0-.65-4.51,2.91,2.91,0,0,0-.47-2.38,3.31,3.31,0,0,0-2.25-1.12,4.25,4.25,0,0,0-5.4-.75c-2.5-.37-4.12,1.89-4.46,2.42a5.41,5.41,0,0,0-1.66,6.77,8.47,8.47,0,0,0,1,4.21,7,7,0,0,0,2.89,2.93V38A16.2,16.2,0,0,1,52,40.33c-2.11.52-2.33,4-2.35,4.38v4.42a.57.57,0,0,0,.57.57.56.56,0,0,0,.57-.57v-4.4c0-.77.39-3,1.48-3.3a11.72,11.72,0,0,0,3-1.37l.52,4.47,3.57-2v6.58a.57.57,0,0,0,.57.57.56.56,0,0,0,.57-.57v-6.7l4.16,2.08V40.06a11.45,11.45,0,0,0,3,1.38C69,41.76,69,44.68,69,44.71v4.42a.57.57,0,1,0,1.13,0V44.71C70.17,44.55,70.15,40.86,67.82,40.33ZM54.76,22.77l.16-.18s1.44-2.4,3.56-1.94l.26.05.21-.15a3.1,3.1,0,0,1,4.25.63l.16.17h.24a2.36,2.36,0,0,1,1.62.7,2,2,0,0,1,.2,1.72l-.08.31.23.23a3.55,3.55,0,0,1,1,2.23c-1-1.41-2.87-3.65-5.72-4.09a6.63,6.63,0,0,0-1-.07A8.15,8.15,0,0,0,55.08,24a7.2,7.2,0,0,0-2.15,2.51A4,4,0,0,1,54.76,22.77Zm-.45,9.58a7.26,7.26,0,0,1-.79-4,5.59,5.59,0,0,1,2.24-3.39,6.89,6.89,0,0,1,4.93-1.35c2.74.42,4.54,2.91,5.23,4.05a7.69,7.69,0,0,1-.2,2.22c-.89,3.8-4.32,6.26-7.64,5.48A5.79,5.79,0,0,1,54.31,32.35Zm3.51,4.1a6.75,6.75,0,0,0,4.56-.56v2.39l-2.53,2.61-2.51-2.67V36.3A3.37,3.37,0,0,0,57.82,36.45ZM56.25,39.4v0l.38-.26,2.22,2.37-2.21,1.22Zm7.18,3.27-2.5-1.26,2.22-2.29.28.19Z"/><path class="cls-1" d="M20,39.6l-1.12-.27c-.2-2.17-.41-4.88-.5-7.65a8.87,8.87,0,0,0,.85-4.55,9.06,9.06,0,0,0-.37-2h0l0-.37a6,6,0,0,0-3.4-4.89,7,7,0,0,0-6.29-.55,8.8,8.8,0,0,0-4.54,6,14.64,14.64,0,0,0,.7,8.34l.23.53a35.35,35.35,0,0,1-.1,5l-1.29.32c-2.1.52-2.33,4-2.34,4.38V48.4A.57.57,0,1,0,3,48.4V44c0-.77.39-3,1.49-3.3l4.33-1.05,3.33,2.55,3.33-2.55c.73.19,2.83.71,4.35,1.06S21.26,44,21.26,44V48.4a.56.56,0,0,0,.57.57.57.57,0,0,0,.57-.57V44C22.4,43.82,22.37,40.13,20,39.6ZM8,33A6.69,6.69,0,0,1,6.78,31.4a10.39,10.39,0,0,1,3.16-5.5c1.69-1.42,5.85-1,7.78-.59a8,8,0,0,1,.41,1.9h0a7.6,7.6,0,0,1-1.45,5.16,5.8,5.8,0,0,1-4.19,2.37A5.79,5.79,0,0,1,8,33Zm7.62,1.84a7.13,7.13,0,0,0,1.73-1.53c.1,2.07.25,4,.4,5.72l-2.13-.52Zm-9.89-9.2a7.68,7.68,0,0,1,3.9-5.26,4.74,4.74,0,0,1,2-.42,7.29,7.29,0,0,1,3.36.95,4.9,4.9,0,0,1,2.63,3.2c-1.84-.34-6.28-.87-8.38.9a11.36,11.36,0,0,0-3.48,5.82l-.05-.08A11.92,11.92,0,0,1,5.73,25.66Zm.88,7.5c.19.23.38.47.59.68a9.12,9.12,0,0,0,1.1.89v3.86L6.62,39A35.54,35.54,0,0,0,6.61,33.16Zm2.83,5.56V35.34a6.68,6.68,0,0,0,2.64.55,4.26,4.26,0,0,0,.5,0,6.42,6.42,0,0,0,1.9-.44V39l-2.37,1.82Z"/></svg>