<svg id="Layer_2" data-name="Layer 2" xmlns="http://www.w3.org/2000/svg" viewBox="0 0 72 72"><defs><style>.cls-1{fill:#3a6184;}</style></defs><title>Artboard 2 copy 4</title><path class="cls-1" d="M70.68,43.32a.58.58,0,0,0,0-.26L59.39,14.69h0a10.6,10.6,0,0,0-1.13-2.1,9.64,9.64,0,0,0-18.55,3.7.29.29,0,0,0,0,.09,10,10,0,0,0-.23,2.13v0h0l.12,2.07a4.63,4.63,0,0,0-7,0l.13-2.07a10.19,10.19,0,0,0-.23-2.15s0,0,0-.06A9.64,9.64,0,0,0,14,12.6a9.75,9.75,0,0,0-1.12,2.09L1.66,43.06a.22.22,0,0,0,0,.08A15,15,0,0,0,.59,48.67a15.13,15.13,0,0,0,30.23.92.47.47,0,0,0,0-.17L31.2,44a.56.56,0,0,0,.06-.23,4.9,4.9,0,0,1,9.8-.11l.36,5.76a.29.29,0,0,0,0,.09,15.13,15.13,0,1,0,29.24-6.19Zm-28.61.46h0a5.36,5.36,0,0,0,0-.7l-.69-11.14v0s0-.08,0-.13L40.5,18.49a9.31,9.31,0,0,1,18-3.43h0L67.81,38.6a15.11,15.11,0,0,0-25.72,5.54ZM49.35,7.63a8.56,8.56,0,0,1,5,1.64,10.3,10.3,0,0,0-12.49,2.61A8.65,8.65,0,0,1,49.35,7.63ZM36.12,20a3.69,3.69,0,0,1,3.69,3.69s0,0,0,0l.3,4.87a5.14,5.14,0,0,0-8,0l.34-5.47A3.69,3.69,0,0,1,36.12,20Zm-5.83-8.19A10.3,10.3,0,0,0,17.88,9.26a8.57,8.57,0,0,1,5-1.62A8.66,8.66,0,0,1,30.29,11.81ZM13.81,15.06a9.31,9.31,0,0,1,18,3.41l-.29,4.7a4.36,4.36,0,0,0-.05.52s0,0,0,.07l-.49,8c0,.07,0,.13,0,.2s0,0,0,0l-.76,12.24A15.1,15.1,0,0,0,4.54,38.51Zm1.92,47.75A14.14,14.14,0,1,1,29.86,48.67,14.15,14.15,0,0,1,15.73,62.81ZM36.16,37.87a5.87,5.87,0,0,0-4.73,2.39L32,31.68a4.19,4.19,0,0,1,8.37.05l.52,8.45A5.9,5.9,0,0,0,36.16,37.87ZM56.54,62.81A14.14,14.14,0,1,1,70.67,48.67,14.15,14.15,0,0,1,56.54,62.81Z"/><path class="cls-1" d="M15.73,35.12A13.55,13.55,0,1,0,29.28,48.67,13.57,13.57,0,0,0,15.73,35.12Zm0,26.1a12.55,12.55,0,1,1,0-25.1,12.44,12.44,0,0,1,7.2,2.29L12.3,49a.5.5,0,0,0,0,.71.51.51,0,0,0,.7,0L23.74,39a12.54,12.54,0,0,1-8,22.2Z"/><path class="cls-1" d="M56.54,35.12A13.55,13.55,0,1,0,70.09,48.67,13.57,13.57,0,0,0,56.54,35.12Zm0,26.1a12.55,12.55,0,1,1,8.08-22.14l-10,10a.5.5,0,0,0,0,.71.51.51,0,0,0,.7,0l10-10a12.54,12.54,0,0,1-8.82,21.47Z"/><path class="cls-1" d="M36.16,40.34a3.08,3.08,0,1,0,3.08,3.08A3.08,3.08,0,0,0,36.16,40.34Zm0,5.16a2.08,2.08,0,1,1,2.08-2.08A2.08,2.08,0,0,1,36.16,45.5Z"/><path class="cls-1" d="M21.4,44.44l-11,11a.5.5,0,0,0,.35.85.51.51,0,0,0,.36-.15l11-11a.5.5,0,0,0,0-.71A.5.5,0,0,0,21.4,44.44Z"/><path class="cls-1" d="M63.76,44.44l-11,11a.5.5,0,0,0,.35.85.51.51,0,0,0,.36-.15l10.95-11a.5.5,0,0,0,0-.71A.5.5,0,0,0,63.76,44.44Z"/></svg>