<svg id="Layer_2" data-name="Layer 2" xmlns="http://www.w3.org/2000/svg" viewBox="0 0 72 72"><defs><style>.cls-1{fill:#fff;stroke:#3a6184;stroke-miterlimit:10;stroke-width:2px;}.cls-2{fill:#3a6184;}</style></defs><title>Artboard 2 copy 7</title><circle class="cls-1" cx="37.28" cy="36.28" r="33.63"/><path class="cls-2" d="M62.67,42.75c-2.18-.5-5.39-2.82-6-3.29V35.58a12.23,12.23,0,0,0,4.63-7.12,13,13,0,0,0,.31-2.19l.26-.43c1.5-2.45.2-5-.91-6.31a4,4,0,0,0-.65-3.33,4.68,4.68,0,0,0-3.16-1.58,6,6,0,0,0-7.55-1c-3.5-.52-5.77,2.64-6.25,3.39-4.77,3.52-2.71,8.62-2.32,9.48a11.75,11.75,0,0,0,1.34,5.88,9.91,9.91,0,0,0,4,4.11v3.09c-.83.59-3.87,2.7-5.95,3.22-3,.74-3.26,5.55-3.28,6.13v6.19a.79.79,0,0,0,.79.8.8.8,0,0,0,.8-.8V48.92c.05-1.08.55-4.24,2.08-4.62A16.94,16.94,0,0,0,45,42.37l.72,6.26,5-2.77v9.21a.8.8,0,0,0,1.6,0V45.69l5.81,2.92V42.37a15.77,15.77,0,0,0,4.2,1.93c2,.46,2.06,4.54,2.06,4.58v6.19a.8.8,0,0,0,.8.8.79.79,0,0,0,.79-.8V48.88C66,48.66,65.93,43.49,62.67,42.75ZM44.39,18.17l.22-.25s2-3.35,5-2.72l.36.08.29-.22c.12-.09,3-2.22,5.94.88l.24.25h.33a3.35,3.35,0,0,1,2.27,1,2.72,2.72,0,0,1,.27,2.41l-.1.44.32.32a5,5,0,0,1,1.42,3.13c-1.32-2-4-5.12-8-5.73a9.1,9.1,0,0,0-1.39-.1,11.41,11.41,0,0,0-6.7,2.29,10,10,0,0,0-3,3.52A5.6,5.6,0,0,1,44.39,18.17Zm-.63,13.41A10.29,10.29,0,0,1,42.64,26a7.87,7.87,0,0,1,3.15-4.74,9.62,9.62,0,0,1,6.9-1.89C56.52,19.9,59,23.39,60,25a11.06,11.06,0,0,1-.28,3.11c-1.25,5.32-6,8.77-10.7,7.68A8.11,8.11,0,0,1,43.76,31.58Zm4.91,5.74a9.4,9.4,0,0,0,2.1.24,9.69,9.69,0,0,0,4.28-1v3.35l-3.54,3.65L48,39.8V37.12Zm-2.2,4.13a0,0,0,0,0,0,0l.53-.36,3.11,3.31L47,46.09ZM56.52,46,53,44.27l3.11-3.21.39.27Z"/><path class="cls-2" d="M34.91,42.72l-1.57-.36c-.28-3-.58-6.84-.7-10.72a12.36,12.36,0,0,0,1.18-6.37,13.13,13.13,0,0,0-.51-2.74h0l0-.51a8.47,8.47,0,0,0-4.75-6.86c-3.2-1.68-6.16-1.94-8.81-.77-3,1.31-5.33,4.46-6.36,8.43-1.47,5.72.89,11.44,1,11.68l.31.74a48.28,48.28,0,0,1-.14,7l-1.8.45c-2.94.74-3.25,5.54-3.28,6.13v6.19a.8.8,0,0,0,.8.8.79.79,0,0,0,.79-.8V48.9c.05-1.08.54-4.24,2.08-4.63l6.07-1.47,4.66,3.57,4.65-3.56c1,.25,4,1,6.09,1.47s2.06,4.54,2.06,4.58v6.19a.8.8,0,1,0,1.6,0V48.86C38.21,48.64,38.17,43.47,34.91,42.72Zm-16.86-9.2a9.53,9.53,0,0,1-1.71-2.27,14.55,14.55,0,0,1,4.43-7.7c2.36-2,8.19-1.36,10.89-.82a10.68,10.68,0,0,1,.57,2.66h0a10.61,10.61,0,0,1-2,7.22,7.9,7.9,0,0,1-12.15.91Zm10.67,2.57A9.94,9.94,0,0,0,31.14,34c.14,2.89.35,5.65.56,8l-3-.73ZM14.88,23.22c.9-3.5,2.94-6.26,5.45-7.37a6.67,6.67,0,0,1,2.76-.58,10.22,10.22,0,0,1,4.71,1.32,6.91,6.91,0,0,1,3.68,4.48c-2.58-.47-8.8-1.21-11.74,1.26a15.88,15.88,0,0,0-4.86,8.16l-.07-.12A16.61,16.61,0,0,1,14.88,23.22Zm1.22,10.5a12.51,12.51,0,0,0,.84.94,11.16,11.16,0,0,0,1.53,1.25v5.41l-2.35.57A49.52,49.52,0,0,0,16.1,33.72Zm4,7.78V36.77a9.18,9.18,0,0,0,3.69.77l.7,0a9,9,0,0,0,2.67-.61v4.92l-3.32,2.55Z"/></svg>