<svg id="Layer_2" data-name="Layer 2" xmlns="http://www.w3.org/2000/svg" viewBox="0 0 72 72"><defs><style>.cls-1{fill:#3a6184;}</style></defs><title>Artboard 2 copy 2</title><path class="cls-1" d="M63.79,55.52a9.21,9.21,0,0,0,2.7-5.84c1.4-2.63.53-5.61-2.7-7.85a8.72,8.72,0,0,0,2.63-7.25c1.5-2.67.65-5.71-2.63-8,4.75-5.05,3.15-11.39-3.92-15.47C55.14,8.39,48.64,7,42,7.35a8,8,0,0,0-2.2-1.8C35.34,3,28.12,3,23.7,5.55l-.28.17C18.28,3.89,11.57,4.33,7.3,6.82c-5.1,3-5.08,7.78.06,10.74l4.73,2.73A16.05,16.05,0,0,0,7.3,22.06c-5.1,3-5.08,7.77.06,10.74l2.89,1.67A15.43,15.43,0,0,0,7.3,35.74c-5.1,3-5.08,7.79.06,10.75l35.15,20.3c5.65,3.26,14.83,3.26,20.44,0C68.21,63.73,68.54,58.82,63.79,55.52ZM8.06,17.15C3.32,14.42,3.3,10,8,7.23c4-2.35,10.45-2.73,15.24-.89l.41.11.28-.2A5.35,5.35,0,0,1,24.41,6,16.17,16.17,0,0,1,39.09,6a7.22,7.22,0,0,1,2.15,1.81L41.4,8l.35,0c6.47-.37,12.81.93,17.41,3.59,6.85,4,8.32,10.1,3.6,15l-.18.18.23.16c2.64,1.74,3.7,4,3.21,6.16a5.6,5.6,0,0,1-.62,1.52,8.65,8.65,0,0,1-3.16,3A16.05,16.05,0,0,1,58,39.09c-.36.1-.74.17-1.12.25-4.66.87-10,.25-13.69-1.89l-1-.59-1.8-1a8.07,8.07,0,0,0-1.31-.93,10.88,10.88,0,0,0-1.65-.78l-2.12-1.22L14,20.59l-.86-.49Zm0,15.24C3.32,29.65,3.3,25.2,8,22.47a15.14,15.14,0,0,1,4.89-1.71L33.46,32.63l1.32.76,7.73,4.47c4.15,2.39,10.18,3,15.32,1.9.34-.07.68-.16,1-.25A17,17,0,0,0,63,37.86a10.77,10.77,0,0,0,2.55-2,8.86,8.86,0,0,1-2.75,5.89l-.18.17.24.15C64.94,43.46,66,45.21,66.12,47a4.86,4.86,0,0,1-.62,2.61,8.31,8.31,0,0,1-3.26,3.1c-5.23,3-13.76,3-19,0L12,34.65l-.79-.45Zm54.18,34c-5.23,3-13.77,3-19,0L8.06,46.08C3.32,43.34,3.3,38.89,8,36.15a14.21,14.21,0,0,1,3-1.25l31.5,18.19c5.65,3.27,14.82,3.27,20.44,0a10.46,10.46,0,0,0,2.25-1.71,9.62,9.62,0,0,1-2.45,4l-.17.18.23.15C67.46,58.82,67.21,63.49,62.24,66.38Z"/></svg>