<svg id="Layer_2" data-name="Layer 2" xmlns="http://www.w3.org/2000/svg" viewBox="0 0 72 72"><defs><style>.cls-1{fill:#3a6184;}</style></defs><title>Artboard 2 copy 5</title><path class="cls-1" d="M48.46,35H37V17.29a1,1,0,0,0-2,0V36a1,1,0,0,0,1,1H48.46a1,1,0,1,0,0-2Z"/><path class="cls-1" d="M36,1.25A34.75,34.75,0,1,0,70.75,36,34.79,34.79,0,0,0,36,1.25Zm0,68.5A33.75,33.75,0,1,1,69.75,36,33.79,33.79,0,0,1,36,69.75Z"/><path class="cls-1" d="M36,11.15a1,1,0,0,0,1-1V9.47a1,1,0,1,0-2,0v.68A1,1,0,0,0,36,11.15Z"/><path class="cls-1" d="M36,60.85a1,1,0,0,0-1,1v.68a1,1,0,0,0,2,0v-.68A1,1,0,0,0,36,60.85Z"/><path class="cls-1" d="M62.53,35h-.68a1,1,0,1,0,0,2h.68a1,1,0,0,0,0-2Z"/><path class="cls-1" d="M10.15,35H9.47a1,1,0,1,0,0,2h.68a1,1,0,0,0,0-2Z"/><path class="cls-1" d="M36,3.66A32.34,32.34,0,1,0,68.34,36,32.38,32.38,0,0,0,36,3.66Zm0,63.68A31.34,31.34,0,1,1,67.34,36,31.38,31.38,0,0,1,36,67.34Z"/></svg>