<svg id="Layer_2" data-name="Layer 2" xmlns="http://www.w3.org/2000/svg" viewBox="0 0 72 72"><defs><style>.cls-1{fill:#3a6184;}</style></defs><title>Artboard 2 copy</title><path class="cls-1" d="M63.55,28.89a4,4,0,0,0,.59-.83,4,4,0,0,0,7.48-1.4h.32L63.15,6.43H8.4L.1,26.66H.39a4,4,0,0,0,7.49,1.4,3.69,3.69,0,0,0,.59.83V64.58H1.08v1H70.94v-1H63.55ZM8.43,26.66h5.93a3,3,0,0,1-5.93,0Zm52.2,2.51a3,3,0,0,1-3-2.51h5.93A3,3,0,0,1,60.63,29.17Zm7,0a3,3,0,0,1-3-2.51h5.93A3,3,0,0,1,67.66,29.17ZM9.07,7.43H62.49l7.92,18.23H1.59ZM56.56,26.66a3,3,0,0,1-5.93,0Zm-7,0a3,3,0,0,1-5.93,0Zm-7,0a3,3,0,0,1-5.93,0Zm-7,0a3,3,0,0,1-5.93,0Zm-7,0a3,3,0,0,1-5.93,0Zm-7,0a3,3,0,0,1-5.93,0Zm-17,2.51a3,3,0,0,1-3-2.51H7.32A3,3,0,0,1,4.36,29.17ZM43.6,64.58V37.2H57.41V64.58Zm14.81,0V36.2H42.6V64.58H9.47V29.66a3.9,3.9,0,0,0,1.92.51,4,4,0,0,0,3.52-2.11,4,4,0,0,0,7,0,4,4,0,0,0,7,0,4,4,0,0,0,7,0,4,4,0,0,0,7,0,4,4,0,0,0,7,0,4,4,0,0,0,7,0,4,4,0,0,0,3.52,2.11,3.9,3.9,0,0,0,1.92-.51V64.58Z"/><path class="cls-1" d="M13.74,53.55H38.33V36.2H13.74Zm1-16.35H31.91L24.11,45l.7.71,8.46-8.46-.05-.06h4.11V52.55H24.14l8.15-8.15-.7-.7-8.86,8.85h-8Z"/><rect class="cls-1" x="46.06" y="50.47" width="1" height="3.46"/></svg>