<svg id="Layer_2" data-name="Layer 2" xmlns="http://www.w3.org/2000/svg" viewBox="0 0 72 72"><defs><style>.cls-1{fill:#3a6184;}</style></defs><title>Artboard 2</title><path class="cls-1" d="M36,23.29a33.81,33.81,0,0,0-24.09,10,4.27,4.27,0,1,0,6,6,25.57,25.57,0,0,1,36.11,0,4.27,4.27,0,1,0,6-6A33.81,33.81,0,0,0,36,23.29ZM59.38,38.6a3.32,3.32,0,0,1-4.61,0,26.57,26.57,0,0,0-37.52,0A3.27,3.27,0,1,1,12.62,34a33.07,33.07,0,0,1,46.76,0A3.29,3.29,0,0,1,59.38,38.6Z"/><path class="cls-1" d="M36,37.69h0a19.51,19.51,0,0,0-13.9,5.75,4.27,4.27,0,0,0,6,6,11.13,11.13,0,0,1,15.74,0,4.26,4.26,0,1,0,6-6A19.49,19.49,0,0,0,36,37.69ZM49.19,48.78a3.34,3.34,0,0,1-4.61,0,12.13,12.13,0,0,0-17.16,0,3.27,3.27,0,1,1-4.62-4.62A18.52,18.52,0,0,1,36,38.69h0a18.49,18.49,0,0,1,13.18,5.47A3.28,3.28,0,0,1,49.19,48.78Z"/><path class="cls-1" d="M70.43,22.91h0a48.77,48.77,0,0,0-68.86,0,4.27,4.27,0,0,0,6,6A40.18,40.18,0,0,1,64.4,29a4.24,4.24,0,0,0,6,0A4.29,4.29,0,0,0,70.43,22.91Zm-.71,5.33a3.32,3.32,0,0,1-4.61,0,41.19,41.19,0,0,0-58.2,0,3.27,3.27,0,1,1-4.63-4.62,47.77,47.77,0,0,1,67.44,0A3.28,3.28,0,0,1,69.72,28.24Z"/><path class="cls-1" d="M36,52.73a5,5,0,1,0,5,5A5,5,0,0,0,36,52.73Zm0,9.09a4,4,0,1,1,4-4A4.06,4.06,0,0,1,36,61.82Z"/></svg>