<?xml version="1.0" encoding="utf-8"?>
<!-- Generator: Adobe Illustrator 21.1.0, SVG Export Plug-In . SVG Version: 6.00 Build 0)  -->
<svg version="1.1" xmlns="http://www.w3.org/2000/svg" xmlns:xlink="http://www.w3.org/1999/xlink" x="0px" y="0px"
	 viewBox="0 0 500 250" style="enable-background:new 0 0 500 250;" xml:space="preserve">
<style type="text/css">
	.st0{fill:#BCC3C5;}
	.st1{fill:url(#SVGID_1_);}
	.st2{fill:#2B80BB;}
	.st3{fill:#2BBB5A;}
	.st4{fill:#FEBA12;}
	.st5{fill:#F8981D;}
	.st6{fill:#BB2B2E;}
	.st7{display:none;}
	.st8{display:inline;fill:url(#SVGID_2_);}
	.st9{display:inline;fill:url(#SVGID_3_);}
	.st10{display:inline;fill:url(#SVGID_4_);}
	.st11{display:inline;fill:#2B80BB;}
	.st12{display:inline;fill:#2BBB5A;}
	.st13{display:inline;fill:#FEBA12;}
	.st14{display:inline;fill:#F8981D;}
	.st15{display:inline;fill:#BB2B2E;}
</style>
<g id="Base">
	<path class="st0" d="M36,248.3L12,248c0-2.8,0.1-5.6,0.3-8.4l24,1.2C36.1,243.2,36,245.8,36,248.3z M464,247.9
		c0-2.5-0.1-5.1-0.2-7.6l24-1.2c0.1,2.8,0.2,5.6,0.3,8.4L464,247.9z M36.5,236.9l-23.9-1.6c0.2-2.8,0.4-5.6,0.7-8.4l23.9,2.4
		C36.8,231.9,36.6,234.4,36.5,236.9z M463.6,236.5c-0.2-2.5-0.4-5-0.6-7.5l23.9-2.4c0.3,2.8,0.5,5.6,0.7,8.4L463.6,236.5z
		 M37.5,225.6l-23.8-2.9c0.2-2,0.5-4.1,0.8-6.1c0.1-0.7,0.2-1.5,0.3-2.2l23.7,3.7c-0.1,0.7-0.2,1.3-0.3,2
		C38,221.9,37.7,223.8,37.5,225.6z M462.5,225.2c-0.3-2.5-0.7-5-1-7.5l23.7-3.7c0.4,2.8,0.8,5.6,1.2,8.4L462.5,225.2z M39.2,214.4
		l-23.6-4.1c0.5-2.8,1-5.5,1.6-8.3l23.5,4.9C40.1,209.4,39.6,211.9,39.2,214.4z M460.8,213.9c-0.4-2.5-0.9-5-1.4-7.5l23.5-5
		c0.6,2.8,1.1,5.5,1.6,8.3L460.8,213.9z M41.4,203.2L18,197.9c0.6-2.7,1.3-5.5,2-8.2l23.2,6.2C42.6,198.3,41.9,200.8,41.4,203.2z
		 M458.6,202.8c-0.6-2.4-1.2-4.9-1.8-7.4l23.2-6.2c0.7,2.7,1.4,5.5,2,8.2L458.6,202.8z M44.2,192.2l-23.1-6.6
		c0.8-2.7,1.6-5.4,2.4-8.1l22.8,7.4C45.6,187.4,44.9,189.8,44.2,192.2z M455.7,191.8c-0.7-2.4-1.4-4.9-2.2-7.2l22.8-7.5
		c0.9,2.7,1.7,5.4,2.5,8.1L455.7,191.8z M47.6,181.4l-22.7-7.8c0.9-2.6,1.9-5.3,2.9-7.9l22.4,8.6C49.3,176.6,48.4,179,47.6,181.4z
		 M452.3,180.9c-0.8-2.4-1.7-4.8-2.6-7.1l22.4-8.7c1,2.6,2,5.3,2.9,7.9L452.3,180.9z M51.6,170.7l-22.3-9c1-2.6,2.2-5.2,3.3-7.8
		l21.9,9.8C53.5,166.1,52.5,168.4,51.6,170.7z M448.2,170.3c-1-2.3-2-4.7-3-7l21.9-9.9c1.1,2.5,2.3,5.2,3.3,7.8L448.2,170.3z
		 M56.1,160.3l-21.7-10.2c1.2-2.5,2.4-5.1,3.7-7.6l21.4,10.9C58.3,155.8,57.2,158.1,56.1,160.3z M443.7,159.9
		c-1.1-2.3-2.2-4.6-3.4-6.8l21.3-11c1.3,2.5,2.5,5,3.7,7.6L443.7,159.9z M61.2,150.2L40,138.9c1.3-2.5,2.7-4.9,4.1-7.3l20.8,12
		C63.6,145.7,62.4,148,61.2,150.2z M438.5,149.7c-1.2-2.2-2.4-4.4-3.7-6.6l20.7-12.1c1.4,2.4,2.8,4.9,4.1,7.4L438.5,149.7z
		 M66.8,140.3l-20.5-12.4c1.4-2.4,3-4.8,4.5-7.1l20.1,13.1C69.4,136,68.1,138.2,66.8,140.3z M432.9,139.9c-1.3-2.1-2.7-4.3-4.1-6.4
		l20.1-13.2c1.5,2.3,3.1,4.7,4.5,7.1L432.9,139.9z M72.9,130.8L53,117.3c1.6-2.3,3.2-4.6,4.8-6.9l19.4,14.2
		C75.8,126.7,74.3,128.7,72.9,130.8z M426.7,130.3c-1.4-2.1-2.9-4.2-4.4-6.2l19.3-14.2c1.7,2.3,3.3,4.6,4.9,6.9L426.7,130.3z
		 M79.5,121.6l-19.1-14.5c1.7-2.2,3.4-4.4,5.2-6.6l18.6,15.2C82.6,117.6,81,119.6,79.5,121.6z M420.1,121.1c-1.5-2-3.1-4-4.7-5.9
		l18.6-15.2c1.8,2.2,3.5,4.4,5.2,6.6L420.1,121.1z M86.6,112.8L68.3,97.2c1.8-2.1,3.7-4.3,5.6-6.3l17.7,16.2
		C89.9,108.9,88.2,110.8,86.6,112.8z M412.9,112.3c-1.6-1.9-3.3-3.8-5-5.7l17.7-16.2c1.9,2.1,3.8,4.2,5.6,6.3L412.9,112.3z
		 M94.2,104.3L76.7,87.8c1.9-2,3.9-4.1,5.9-6l16.9,17.1C97.7,100.7,95.9,102.5,94.2,104.3z M405.3,103.8c-1.7-1.8-3.5-3.6-5.3-5.4
		l16.8-17.1c2,2,4,4,5.9,6L405.3,103.8z M102.2,96.3L85.6,78.9c2-1.9,4.1-3.8,6.2-5.7l15.9,17.9C105.9,92.8,104,94.5,102.2,96.3z
		 M397.3,95.8c-1.8-1.7-3.7-3.4-5.6-5.1l15.9-18c2.1,1.9,4.2,3.8,6.2,5.7L397.3,95.8z M110.6,88.6L95,70.4c2.1-1.8,4.3-3.6,6.5-5.4
		l15,18.8C114.5,85.4,112.5,87,110.6,88.6z M388.9,88.2c-1.9-1.6-3.9-3.2-5.8-4.8L398,64.6c2.2,1.7,4.4,3.5,6.5,5.4L388.9,88.2z
		 M119.4,81.5l-14.6-19c2.2-1.7,4.5-3.4,6.8-5l14,19.5C123.4,78.4,121.4,79.9,119.4,81.5z M380.1,81c-2-1.5-4-3-6.1-4.5L387.9,57
		c2.3,1.6,4.6,3.3,6.8,5L380.1,81z M128.6,74.8L115,55c2.3-1.6,4.7-3.2,7-4.7l12.9,20.2C132.8,71.9,130.7,73.3,128.6,74.8z
		 M370.9,74.4c-2.1-1.4-4.2-2.8-6.3-4.2l12.9-20.3c2.4,1.5,4.7,3.1,7,4.6L370.9,74.4z M138.1,68.6l-12.6-20.5
		c2.4-1.5,4.8-2.9,7.3-4.3l11.8,20.9C142.5,66,140.3,67.3,138.1,68.6z M361.4,68.2c-2.1-1.3-4.3-2.6-6.5-3.8l11.8-20.9
		c2.4,1.4,4.9,2.8,7.3,4.2L361.4,68.2z M147.9,62.9l-11.5-21.1c2.5-1.3,5-2.6,7.5-3.9l10.7,21.5C152.4,60.5,150.2,61.7,147.9,62.9z
		 M351.6,62.6c-2.2-1.2-4.5-2.4-6.7-3.5l10.6-21.5c2.5,1.2,5,2.5,7.5,3.9L351.6,62.6z M158.1,57.7l-10.3-21.7
		c2.5-1.2,5.1-2.4,7.7-3.5l9.6,22C162.7,55.6,160.4,56.6,158.1,57.7z M341.5,57.5c-2.3-1.1-4.6-2.1-6.9-3.1l9.5-22.1
		c2.6,1.1,5.2,2.3,7.7,3.5L341.5,57.5z M168.5,53.1l-9.2-22.2c2.6-1.1,5.2-2.1,7.9-3.1l8.4,22.5C173.2,51.2,170.8,52.1,168.5,53.1z
		 M331.1,52.9c-2.3-0.9-4.7-1.9-7.1-2.7l8.3-22.5c2.6,1,5.3,2,7.9,3L331.1,52.9z M179.1,49l-8-22.6c2.6-0.9,5.3-1.8,8-2.7l7.2,22.9
		C183.9,47.4,181.5,48.2,179.1,49z M320.4,48.9c-2.4-0.8-4.8-1.6-7.2-2.4l7.1-22.9c2.7,0.8,5.4,1.7,8,2.6L320.4,48.9z M189.9,45.5
		l-6.7-23c2.7-0.8,5.4-1.5,8.1-2.2l5.9,23.3C194.8,44.2,192.3,44.8,189.9,45.5z M309.6,45.4c-2.4-0.7-4.9-1.4-7.3-2l5.8-23.3
		c2.7,0.7,5.5,1.4,8.1,2.2L309.6,45.4z M200.9,42.6l-5.5-23.4c2.7-0.6,5.5-1.2,8.3-1.8l4.7,23.5C205.9,41.5,203.4,42.1,200.9,42.6z
		 M298.6,42.6c-2.4-0.6-4.9-1.1-7.4-1.6l4.6-23.6c2.7,0.5,5.5,1.1,8.2,1.8L298.6,42.6z M212.1,40.3l-4.2-23.6
		c2.8-0.5,5.6-0.9,8.3-1.3l3.4,23.8C217.1,39.5,214.6,39.9,212.1,40.3z M287.5,40.3c-2.2-0.4-4.4-0.7-6.6-1.1l-0.9-0.1l3.4-23.8
		l1,0.1c2.4,0.4,4.9,0.8,7.3,1.2L287.5,40.3z M276.2,38.6c-2.5-0.3-5-0.6-7.5-0.8l2.1-23.9c2.8,0.2,5.6,0.5,8.4,0.9L276.2,38.6z
		 M223.3,38.6l-3-23.8c2.8-0.3,5.6-0.6,8.4-0.9l2.1,23.9C228.4,38,225.8,38.3,223.3,38.6z M264.9,37.5c-2.5-0.2-5.1-0.3-7.6-0.4
		l0.9-24c2.8,0.1,5.6,0.3,8.4,0.4L264.9,37.5z M234.6,37.5l-1.7-23.9c2.8-0.2,5.6-0.3,8.4-0.4l0.8,24
		C239.7,37.2,237.2,37.3,234.6,37.5z M253.6,37c-2.5,0-5.1,0-7.6,0l-0.4-24c2.8-0.1,5.6,0,8.4,0L253.6,37z"/>
</g>
<g id="Low">
	<linearGradient id="SVGID_1_" gradientUnits="userSpaceOnUse" x1="31.1434" y1="187.5069" x2="-32.6459" y2="293.1579">
		<stop  offset="0" style="stop-color:#2BBB5A"/>
		<stop  offset="1" style="stop-color:#2B80BB"/>
	</linearGradient>
	<path class="st1" d="M36,248.3L12,248c0-2.8,0.1-5.6,0.3-8.4l24,1.2C36.1,243.2,36,245.8,36,248.3z M36.5,236.9l-23.9-1.6
		c0.2-2.8,0.4-5.6,0.7-8.4l23.9,2.4C36.8,231.9,36.6,234.4,36.5,236.9z M37.5,225.6l-23.8-2.9c0.2-2,0.5-4.1,0.8-6.1
		c0.1-0.7,0.2-1.5,0.3-2.2l23.7,3.7c-0.1,0.7-0.2,1.3-0.3,2C38,221.9,37.7,223.8,37.5,225.6z M39.2,214.4l-23.6-4.1
		c0.5-2.8,1-5.5,1.6-8.3l23.5,4.9C40.1,209.4,39.6,211.9,39.2,214.4z M41.4,203.2L18,197.9c0.6-2.7,1.3-5.5,2-8.2l23.2,6.2
		C42.6,198.3,41.9,200.8,41.4,203.2z M44.2,192.2l-23.1-6.6c0.8-2.7,1.6-5.4,2.4-8.1l22.8,7.4C45.6,187.4,44.9,189.8,44.2,192.2z
		 M47.6,181.4l-22.7-7.8c0.9-2.6,1.9-5.3,2.9-7.9l22.4,8.6C49.3,176.6,48.4,179,47.6,181.4z M51.6,170.7l-22.3-9
		c1-2.6,2.2-5.2,3.3-7.8l21.9,9.8C53.5,166.1,52.5,168.4,51.6,170.7z M56.1,160.3l-21.7-10.2c1.2-2.5,2.4-5.1,3.7-7.6l21.4,10.9
		C58.3,155.8,57.2,158.1,56.1,160.3z M61.2,150.2L40,138.9c1.3-2.5,2.7-4.9,4.1-7.3l20.8,12C63.6,145.7,62.4,148,61.2,150.2z
		 M66.8,140.3l-20.5-12.4c1.4-2.4,3-4.8,4.5-7.1l20.1,13.1C69.4,136,68.1,138.2,66.8,140.3z M72.9,130.8L53,117.3
		c1.6-2.3,3.2-4.6,4.8-6.9l19.4,14.2C75.8,126.7,74.3,128.7,72.9,130.8z M79.5,121.6L45.4,95.1c1.7-2.2,3.4-4.4,5.2-6.6l33.6,27.2
		C82.6,117.6,81,119.6,79.5,121.6z"/>
	<rect x="58.3" y="-42.3" class="st2" width="50.7" height="28"/>
	<rect x="120.3" y="-42.3" class="st3" width="50.7" height="28"/>
	<rect x="220.3" y="-42.3" class="st4" width="50.7" height="28"/>
	<rect x="315" y="-42.3" class="st5" width="50.7" height="28"/>
	<rect x="401.7" y="-42.3" class="st6" width="50.7" height="28"/>
	<rect x="58.3" y="-42.3" class="st2" width="50.7" height="28"/>
	<rect x="120.3" y="-42.3" class="st3" width="50.7" height="28"/>
	<rect x="220.3" y="-42.3" class="st4" width="50.7" height="28"/>
	<rect x="315" y="-42.3" class="st5" width="50.7" height="28"/>
	<rect x="401.7" y="-42.3" class="st6" width="50.7" height="28"/>
	<rect x="58.3" y="-42.3" class="st2" width="50.7" height="28"/>
	<rect x="120.3" y="-42.3" class="st3" width="50.7" height="28"/>
	<rect x="220.3" y="-42.3" class="st4" width="50.7" height="28"/>
	<rect x="315" y="-42.3" class="st5" width="50.7" height="28"/>
	<rect x="401.7" y="-42.3" class="st6" width="50.7" height="28"/>
</g>
<g id="Medium" class="st7">
	<linearGradient id="SVGID_2_" gradientUnits="userSpaceOnUse" x1="-31.1251" y1="271.0633" x2="180.2082" y2="46.3967">
		<stop  offset="0" style="stop-color:#2BBB5A"/>
		<stop  offset="1" style="stop-color:#FEBA12"/>
	</linearGradient>
	<path class="st8" d="M36,248.3L12,248c0-2.8,0.1-5.6,0.3-8.4l24,1.2C36.1,243.2,36,245.8,36,248.3z M36.5,236.9l-23.9-1.6
		c0.2-2.8,0.4-5.6,0.7-8.4l23.9,2.4C36.8,231.9,36.6,234.4,36.5,236.9z M37.5,225.6l-23.8-2.9c0.2-2,0.5-4.1,0.8-6.1
		c0.1-0.7,0.2-1.5,0.3-2.2l23.7,3.7c-0.1,0.7-0.2,1.3-0.3,2C38,221.9,37.7,223.8,37.5,225.6z M39.2,214.4l-23.6-4.1
		c0.5-2.8,1-5.5,1.6-8.3l23.5,4.9C40.1,209.4,39.6,211.9,39.2,214.4z M41.4,203.2L18,197.9c0.6-2.7,1.3-5.5,2-8.2l23.2,6.2
		C42.6,198.3,41.9,200.8,41.4,203.2z M44.2,192.2l-23.1-6.6c0.8-2.7,1.6-5.4,2.4-8.1l22.8,7.4C45.6,187.4,44.9,189.8,44.2,192.2z
		 M47.6,181.4l-22.7-7.8c0.9-2.6,1.9-5.3,2.9-7.9l22.4,8.6C49.3,176.6,48.4,179,47.6,181.4z M51.6,170.7l-22.3-9
		c1-2.6,2.2-5.2,3.3-7.8l21.9,9.8C53.5,166.1,52.5,168.4,51.6,170.7z M56.1,160.3l-21.7-10.2c1.2-2.5,2.4-5.1,3.7-7.6l21.4,10.9
		C58.3,155.8,57.2,158.1,56.1,160.3z M61.2,150.2L40,138.9c1.3-2.5,2.7-4.9,4.1-7.3l20.8,12C63.6,145.7,62.4,148,61.2,150.2z
		 M66.8,140.3l-20.5-12.4c1.4-2.4,3-4.8,4.5-7.1l20.1,13.1C69.4,136,68.1,138.2,66.8,140.3z M72.9,130.8L53,117.3
		c1.6-2.3,3.2-4.6,4.8-6.9l19.4,14.2C75.8,126.7,74.3,128.7,72.9,130.8z M79.5,121.6l-19.1-14.5c1.7-2.2,3.4-4.4,5.2-6.6l18.6,15.2
		C82.6,117.6,81,119.6,79.5,121.6z M86.6,112.8L68.3,97.2c1.8-2.1,3.7-4.3,5.6-6.3l17.7,16.2C89.9,108.9,88.2,110.8,86.6,112.8z
		 M94.2,104.3L76.7,87.8c1.9-2,3.9-4.1,5.9-6l16.9,17.1C97.7,100.7,95.9,102.5,94.2,104.3z M102.2,96.3L85.6,78.9
		c2-1.9,4.1-3.8,6.2-5.7l15.9,17.9C105.9,92.8,104,94.5,102.2,96.3z M110.6,88.6L95,70.4c2.1-1.8,4.3-3.6,6.5-5.4l15,18.8
		C114.5,85.4,112.5,87,110.6,88.6z M119.4,81.5l-14.6-19c2.2-1.7,4.5-3.4,6.8-5l14,19.5C123.4,78.4,121.4,79.9,119.4,81.5z
		 M128.6,74.8L115,55c2.3-1.6,4.7-3.2,7-4.7l12.9,20.2C132.8,71.9,130.7,73.3,128.6,74.8z M138.1,68.6l-12.6-20.5
		c2.4-1.5,4.8-2.9,7.3-4.3l11.8,20.9C142.5,66,140.3,67.3,138.1,68.6z M147.9,62.9l-11.5-21.1c2.5-1.3,5-2.6,7.5-3.9l10.7,21.5
		C152.4,60.5,150.2,61.7,147.9,62.9z M158.1,57.7l-10.3-21.7c2.5-1.2,5.1-2.4,7.7-3.5l9.6,22C162.7,55.6,160.4,56.6,158.1,57.7z
		 M168.5,53.1l-9.2-22.2c2.6-1.1,5.2-2.1,7.9-3.1l8.4,22.5C173.2,51.2,170.8,52.1,168.5,53.1z M179.1,49l-8-22.6
		c2.6-0.9,5.3-1.8,8-2.7l7.2,22.9C183.9,47.4,181.5,48.2,179.1,49z M189.9,45.5l-6.7-23c2.7-0.8,5.4-1.5,8.1-2.2l5.9,23.3
		C194.8,44.2,192.3,44.8,189.9,45.5z M200.9,42.6l-5.5-23.4c2.7-0.6,5.5-1.2,8.3-1.8l4.7,23.5C205.9,41.5,203.4,42.1,200.9,42.6z
		 M212.1,40.3l-4.2-23.6c2.8-0.5,5.6-0.9,8.3-1.3l3.4,23.8C217.1,39.5,214.6,39.9,212.1,40.3z M223.3,38.6l-3-23.8
		c2.8-0.3,5.6-0.6,8.4-0.9l2.1,23.9C228.4,38,225.8,38.3,223.3,38.6z M234.6,37.5l-1.7-23.9c2.8-0.2,5.6-0.3,8.4-0.4l0.8,24
		C239.7,37.2,237.2,37.3,234.6,37.5z M253.6,37c-2.5,0-5.1,0-7.6,0l-0.4-36c2.8-0.1,5.6,0,8.4,0L253.6,37z"/>
</g>
<g id="High" class="st7">
	<linearGradient id="SVGID_3_" gradientUnits="userSpaceOnUse" x1="-165.3518" y1="132.9459" x2="500.6483" y2="127.9459">
		<stop  offset="0" style="stop-color:#2BBB5A"/>
		<stop  offset="0.1849" style="stop-color:#93BB37"/>
		<stop  offset="0.3698" style="stop-color:#FEBA12"/>
		<stop  offset="0.67" style="stop-color:#F8981D"/>
		<stop  offset="1" style="stop-color:#BB2B2E"/>
	</linearGradient>
	<path class="st9" d="M36,248.3L12,248c0-2.8,0.1-5.6,0.3-8.4l24,1.2C36.1,243.2,36,245.8,36,248.3z M36.5,236.9l-23.9-1.6
		c0.2-2.8,0.4-5.6,0.7-8.4l23.9,2.4C36.8,231.9,36.6,234.4,36.5,236.9z M37.5,225.6l-23.8-2.9c0.2-2,0.5-4.1,0.8-6.1
		c0.1-0.7,0.2-1.5,0.3-2.2l23.7,3.7c-0.1,0.7-0.2,1.3-0.3,2C38,221.9,37.7,223.8,37.5,225.6z M39.2,214.4l-23.6-4.1
		c0.5-2.8,1-5.5,1.6-8.3l23.5,4.9C40.1,209.4,39.6,211.9,39.2,214.4z M41.4,203.2L18,197.9c0.6-2.7,1.3-5.5,2-8.2l23.2,6.2
		C42.6,198.3,41.9,200.8,41.4,203.2z M44.2,192.2l-23.1-6.6c0.8-2.7,1.6-5.4,2.4-8.1l22.8,7.4C45.6,187.4,44.9,189.8,44.2,192.2z
		 M47.6,181.4l-22.7-7.8c0.9-2.6,1.9-5.3,2.9-7.9l22.4,8.6C49.3,176.6,48.4,179,47.6,181.4z M51.6,170.7l-22.3-9
		c1-2.6,2.2-5.2,3.3-7.8l21.9,9.8C53.5,166.1,52.5,168.4,51.6,170.7z M56.1,160.3l-21.7-10.2c1.2-2.5,2.4-5.1,3.7-7.6l21.4,10.9
		C58.3,155.8,57.2,158.1,56.1,160.3z M61.2,150.2L40,138.9c1.3-2.5,2.7-4.9,4.1-7.3l20.8,12C63.6,145.7,62.4,148,61.2,150.2z
		 M66.8,140.3l-20.5-12.4c1.4-2.4,3-4.8,4.5-7.1l20.1,13.1C69.4,136,68.1,138.2,66.8,140.3z M72.9,130.8L53,117.3
		c1.6-2.3,3.2-4.6,4.8-6.9l19.4,14.2C75.8,126.7,74.3,128.7,72.9,130.8z M79.5,121.6l-19.1-14.5c1.7-2.2,3.4-4.4,5.2-6.6l18.6,15.2
		C82.6,117.6,81,119.6,79.5,121.6z M420.1,121.1c-1.5-2-3.1-4-4.7-5.9l29.6-24.2c1.8,2.2,3.5,4.4,5.2,6.6L420.1,121.1z M86.6,112.8
		L68.3,97.2c1.8-2.1,3.7-4.3,5.6-6.3l17.7,16.2C89.9,108.9,88.2,110.8,86.6,112.8z M412.9,112.3c-1.6-1.9-3.3-3.8-5-5.7l17.7-16.2
		c1.9,2.1,3.8,4.2,5.6,6.3L412.9,112.3z M94.2,104.3L76.7,87.8c1.9-2,3.9-4.1,5.9-6l16.9,17.1C97.7,100.7,95.9,102.5,94.2,104.3z
		 M405.3,103.8c-1.7-1.8-3.5-3.6-5.3-5.4l16.8-17.1c2,2,4,4,5.9,6L405.3,103.8z M102.2,96.3L85.6,78.9c2-1.9,4.1-3.8,6.2-5.7
		l15.9,17.9C105.9,92.8,104,94.5,102.2,96.3z M397.3,95.8c-1.8-1.7-3.7-3.4-5.6-5.1l15.9-18c2.1,1.9,4.2,3.8,6.2,5.7L397.3,95.8z
		 M110.6,88.6L95,70.4c2.1-1.8,4.3-3.6,6.5-5.4l15,18.8C114.5,85.4,112.5,87,110.6,88.6z M388.9,88.2c-1.9-1.6-3.9-3.2-5.8-4.8
		L398,64.6c2.2,1.7,4.4,3.5,6.5,5.4L388.9,88.2z M119.4,81.5l-14.6-19c2.2-1.7,4.5-3.4,6.8-5l14,19.5
		C123.4,78.4,121.4,79.9,119.4,81.5z M380.1,81c-2-1.5-4-3-6.1-4.5L387.9,57c2.3,1.6,4.6,3.3,6.8,5L380.1,81z M128.6,74.8L115,55
		c2.3-1.6,4.7-3.2,7-4.7l12.9,20.2C132.8,71.9,130.7,73.3,128.6,74.8z M370.9,74.4c-2.1-1.4-4.2-2.8-6.3-4.2l12.9-20.3
		c2.4,1.5,4.7,3.1,7,4.6L370.9,74.4z M138.1,68.6l-12.6-20.5c2.4-1.5,4.8-2.9,7.3-4.3l11.8,20.9C142.5,66,140.3,67.3,138.1,68.6z
		 M361.4,68.2c-2.1-1.3-4.3-2.6-6.5-3.8l11.8-20.9c2.4,1.4,4.9,2.8,7.3,4.2L361.4,68.2z M147.9,62.9l-11.5-21.1
		c2.5-1.3,5-2.6,7.5-3.9l10.7,21.5C152.4,60.5,150.2,61.7,147.9,62.9z M351.6,62.6c-2.2-1.2-4.5-2.4-6.7-3.5l10.6-21.5
		c2.5,1.2,5,2.5,7.5,3.9L351.6,62.6z M158.1,57.7l-10.3-21.7c2.5-1.2,5.1-2.4,7.7-3.5l9.6,22C162.7,55.6,160.4,56.6,158.1,57.7z
		 M341.5,57.5c-2.3-1.1-4.6-2.1-6.9-3.1l9.5-22.1c2.6,1.1,5.2,2.3,7.7,3.5L341.5,57.5z M168.5,53.1l-9.2-22.2
		c2.6-1.1,5.2-2.1,7.9-3.1l8.4,22.5C173.2,51.2,170.8,52.1,168.5,53.1z M331.1,52.9c-2.3-0.9-4.7-1.9-7.1-2.7l8.3-22.5
		c2.6,1,5.3,2,7.9,3L331.1,52.9z M179.1,49l-8-22.6c2.6-0.9,5.3-1.8,8-2.7l7.2,22.9C183.9,47.4,181.5,48.2,179.1,49z M320.4,48.9
		c-2.4-0.8-4.8-1.6-7.2-2.4l7.1-22.9c2.7,0.8,5.4,1.7,8,2.6L320.4,48.9z M189.9,45.5l-6.7-23c2.7-0.8,5.4-1.5,8.1-2.2l5.9,23.3
		C194.8,44.2,192.3,44.8,189.9,45.5z M309.6,45.4c-2.4-0.7-4.9-1.4-7.3-2l5.8-23.3c2.7,0.7,5.5,1.4,8.1,2.2L309.6,45.4z M200.9,42.6
		l-5.5-23.4c2.7-0.6,5.5-1.2,8.3-1.8l4.7,23.5C205.9,41.5,203.4,42.1,200.9,42.6z M298.6,42.6c-2.4-0.6-4.9-1.1-7.4-1.6l4.6-23.6
		c2.7,0.5,5.5,1.1,8.2,1.8L298.6,42.6z M212.1,40.3l-4.2-23.6c2.8-0.5,5.6-0.9,8.3-1.3l3.4,23.8C217.1,39.5,214.6,39.9,212.1,40.3z
		 M287.5,40.3c-2.2-0.4-4.4-0.7-6.6-1.1l-0.9-0.1l3.4-23.8l1,0.1c2.4,0.4,4.9,0.8,7.3,1.2L287.5,40.3z M276.2,38.6
		c-2.5-0.3-5-0.6-7.5-0.8l2.1-23.9c2.8,0.2,5.6,0.5,8.4,0.9L276.2,38.6z M223.3,38.6l-3-23.8c2.8-0.3,5.6-0.6,8.4-0.9l2.1,23.9
		C228.4,38,225.8,38.3,223.3,38.6z M264.9,37.5c-2.5-0.2-5.1-0.3-7.6-0.4l0.9-24c2.8,0.1,5.6,0.3,8.4,0.4L264.9,37.5z M234.6,37.5
		l-1.7-23.9c2.8-0.2,5.6-0.3,8.4-0.4l0.8,24C239.7,37.2,237.2,37.3,234.6,37.5z M253.6,37c-2.5,0-5.1,0-7.6,0l-0.4-24
		c2.8-0.1,5.6,0,8.4,0L253.6,37z"/>
</g>
<g id="Critial" class="st7">
	<linearGradient id="SVGID_4_" gradientUnits="userSpaceOnUse" x1="5.6667" y1="130.6354" x2="500.4214" y2="130.6354">
		<stop  offset="0" style="stop-color:#FEBA12"/>
		<stop  offset="0.5" style="stop-color:#F8981D"/>
		<stop  offset="1" style="stop-color:#BB2B2E"/>
	</linearGradient>
	<path class="st10" d="M36,248.3L12,248c0-2.8,0.1-5.6,0.3-8.4l24,1.2C36.1,243.2,36,245.8,36,248.3z M464,247.9
		c0-2.5-0.1-5.1-0.2-7.6l34-2.2c0.1,2.8,0.2,5.6,0.3,8.4L464,247.9z M36.5,236.9l-23.9-1.6c0.2-2.8,0.4-5.6,0.7-8.4l23.9,2.4
		C36.8,231.9,36.6,234.4,36.5,236.9z M463.6,236.5c-0.2-2.5-0.4-5-0.6-7.5l23.9-2.4c0.3,2.8,0.5,5.6,0.7,8.4L463.6,236.5z
		 M37.5,225.6l-23.8-2.9c0.2-2,0.5-4.1,0.8-6.1c0.1-0.7,0.2-1.5,0.3-2.2l23.7,3.7c-0.1,0.7-0.2,1.3-0.3,2
		C38,221.9,37.7,223.8,37.5,225.6z M462.5,225.2c-0.3-2.5-0.7-5-1-7.5l23.7-3.7c0.4,2.8,0.8,5.6,1.2,8.4L462.5,225.2z M39.2,214.4
		l-23.6-4.1c0.5-2.8,1-5.5,1.6-8.3l23.5,4.9C40.1,209.4,39.6,211.9,39.2,214.4z M460.8,213.9c-0.4-2.5-0.9-5-1.4-7.5l23.5-5
		c0.6,2.8,1.1,5.5,1.6,8.3L460.8,213.9z M41.4,203.2L18,197.9c0.6-2.7,1.3-5.5,2-8.2l23.2,6.2C42.6,198.3,41.9,200.8,41.4,203.2z
		 M458.6,202.8c-0.6-2.4-1.2-4.9-1.8-7.4l23.2-6.2c0.7,2.7,1.4,5.5,2,8.2L458.6,202.8z M44.2,192.2l-23.1-6.6
		c0.8-2.7,1.6-5.4,2.4-8.1l22.8,7.4C45.6,187.4,44.9,189.8,44.2,192.2z M455.7,191.8c-0.7-2.4-1.4-4.9-2.2-7.2l22.8-7.5
		c0.9,2.7,1.7,5.4,2.5,8.1L455.7,191.8z M47.6,181.4l-22.7-7.8c0.9-2.6,1.9-5.3,2.9-7.9l22.4,8.6C49.3,176.6,48.4,179,47.6,181.4z
		 M452.3,180.9c-0.8-2.4-1.7-4.8-2.6-7.1l22.4-8.7c1,2.6,2,5.3,2.9,7.9L452.3,180.9z M51.6,170.7l-22.3-9c1-2.6,2.2-5.2,3.3-7.8
		l21.9,9.8C53.5,166.1,52.5,168.4,51.6,170.7z M448.2,170.3c-1-2.3-2-4.7-3-7l21.9-9.9c1.1,2.5,2.3,5.2,3.3,7.8L448.2,170.3z
		 M56.1,160.3l-21.7-10.2c1.2-2.5,2.4-5.1,3.7-7.6l21.4,10.9C58.3,155.8,57.2,158.1,56.1,160.3z M443.7,159.9
		c-1.1-2.3-2.2-4.6-3.4-6.8l21.3-11c1.3,2.5,2.5,5,3.7,7.6L443.7,159.9z M61.2,150.2L40,138.9c1.3-2.5,2.7-4.9,4.1-7.3l20.8,12
		C63.6,145.7,62.4,148,61.2,150.2z M438.5,149.7c-1.2-2.2-2.4-4.4-3.7-6.6l20.7-12.1c1.4,2.4,2.8,4.9,4.1,7.4L438.5,149.7z
		 M66.8,140.3l-20.5-12.4c1.4-2.4,3-4.8,4.5-7.1l20.1,13.1C69.4,136,68.1,138.2,66.8,140.3z M432.9,139.9c-1.3-2.1-2.7-4.3-4.1-6.4
		l20.1-13.2c1.5,2.3,3.1,4.7,4.5,7.1L432.9,139.9z M72.9,130.8L53,117.3c1.6-2.3,3.2-4.6,4.8-6.9l19.4,14.2
		C75.8,126.7,74.3,128.7,72.9,130.8z M426.7,130.3c-1.4-2.1-2.9-4.2-4.4-6.2l19.3-14.2c1.7,2.3,3.3,4.6,4.9,6.9L426.7,130.3z
		 M79.5,121.6l-19.1-14.5c1.7-2.2,3.4-4.4,5.2-6.6l18.6,15.2C82.6,117.6,81,119.6,79.5,121.6z M420.1,121.1c-1.5-2-3.1-4-4.7-5.9
		l18.6-15.2c1.8,2.2,3.5,4.4,5.2,6.6L420.1,121.1z M86.6,112.8L68.3,97.2c1.8-2.1,3.7-4.3,5.6-6.3l17.7,16.2
		C89.9,108.9,88.2,110.8,86.6,112.8z M412.9,112.3c-1.6-1.9-3.3-3.8-5-5.7l17.7-16.2c1.9,2.1,3.8,4.2,5.6,6.3L412.9,112.3z
		 M94.2,104.3L76.7,87.8c1.9-2,3.9-4.1,5.9-6l16.9,17.1C97.7,100.7,95.9,102.5,94.2,104.3z M405.3,103.8c-1.7-1.8-3.5-3.6-5.3-5.4
		l16.8-17.1c2,2,4,4,5.9,6L405.3,103.8z M102.2,96.3L85.6,78.9c2-1.9,4.1-3.8,6.2-5.7l15.9,17.9C105.9,92.8,104,94.5,102.2,96.3z
		 M397.3,95.8c-1.8-1.7-3.7-3.4-5.6-5.1l15.9-18c2.1,1.9,4.2,3.8,6.2,5.7L397.3,95.8z M110.6,88.6L95,70.4c2.1-1.8,4.3-3.6,6.5-5.4
		l15,18.8C114.5,85.4,112.5,87,110.6,88.6z M388.9,88.2c-1.9-1.6-3.9-3.2-5.8-4.8L398,64.6c2.2,1.7,4.4,3.5,6.5,5.4L388.9,88.2z
		 M119.4,81.5l-14.6-19c2.2-1.7,4.5-3.4,6.8-5l14,19.5C123.4,78.4,121.4,79.9,119.4,81.5z M380.1,81c-2-1.5-4-3-6.1-4.5L387.9,57
		c2.3,1.6,4.6,3.3,6.8,5L380.1,81z M128.6,74.8L115,55c2.3-1.6,4.7-3.2,7-4.7l12.9,20.2C132.8,71.9,130.7,73.3,128.6,74.8z
		 M370.9,74.4c-2.1-1.4-4.2-2.8-6.3-4.2l12.9-20.3c2.4,1.5,4.7,3.1,7,4.6L370.9,74.4z M138.1,68.6l-12.6-20.5
		c2.4-1.5,4.8-2.9,7.3-4.3l11.8,20.9C142.5,66,140.3,67.3,138.1,68.6z M361.4,68.2c-2.1-1.3-4.3-2.6-6.5-3.8l11.8-20.9
		c2.4,1.4,4.9,2.8,7.3,4.2L361.4,68.2z M147.9,62.9l-11.5-21.1c2.5-1.3,5-2.6,7.5-3.9l10.7,21.5C152.4,60.5,150.2,61.7,147.9,62.9z
		 M351.6,62.6c-2.2-1.2-4.5-2.4-6.7-3.5l10.6-21.5c2.5,1.2,5,2.5,7.5,3.9L351.6,62.6z M158.1,57.7l-10.3-21.7
		c2.5-1.2,5.1-2.4,7.7-3.5l9.6,22C162.7,55.6,160.4,56.6,158.1,57.7z M341.5,57.5c-2.3-1.1-4.6-2.1-6.9-3.1l9.5-22.1
		c2.6,1.1,5.2,2.3,7.7,3.5L341.5,57.5z M168.5,53.1l-9.2-22.2c2.6-1.1,5.2-2.1,7.9-3.1l8.4,22.5C173.2,51.2,170.8,52.1,168.5,53.1z
		 M331.1,52.9c-2.3-0.9-4.7-1.9-7.1-2.7l8.3-22.5c2.6,1,5.3,2,7.9,3L331.1,52.9z M179.1,49l-8-22.6c2.6-0.9,5.3-1.8,8-2.7l7.2,22.9
		C183.9,47.4,181.5,48.2,179.1,49z M320.4,48.9c-2.4-0.8-4.8-1.6-7.2-2.4l7.1-22.9c2.7,0.8,5.4,1.7,8,2.6L320.4,48.9z M189.9,45.5
		l-6.7-23c2.7-0.8,5.4-1.5,8.1-2.2l5.9,23.3C194.8,44.2,192.3,44.8,189.9,45.5z M309.6,45.4c-2.4-0.7-4.9-1.4-7.3-2l5.8-23.3
		c2.7,0.7,5.5,1.4,8.1,2.2L309.6,45.4z M200.9,42.6l-5.5-23.4c2.7-0.6,5.5-1.2,8.3-1.8l4.7,23.5C205.9,41.5,203.4,42.1,200.9,42.6z
		 M298.6,42.6c-2.4-0.6-4.9-1.1-7.4-1.6l4.6-23.6c2.7,0.5,5.5,1.1,8.2,1.8L298.6,42.6z M212.1,40.3l-4.2-23.6
		c2.8-0.5,5.6-0.9,8.3-1.3l3.4,23.8C217.1,39.5,214.6,39.9,212.1,40.3z M287.5,40.3c-2.2-0.4-4.4-0.7-6.6-1.1l-0.9-0.1l3.4-23.8
		l1,0.1c2.4,0.4,4.9,0.8,7.3,1.2L287.5,40.3z M276.2,38.6c-2.5-0.3-5-0.6-7.5-0.8l2.1-23.9c2.8,0.2,5.6,0.5,8.4,0.9L276.2,38.6z
		 M223.3,38.6l-3-23.8c2.8-0.3,5.6-0.6,8.4-0.9l2.1,23.9C228.4,38,225.8,38.3,223.3,38.6z M264.9,37.5c-2.5-0.2-5.1-0.3-7.6-0.4
		l0.9-24c2.8,0.1,5.6,0.3,8.4,0.4L264.9,37.5z M234.6,37.5l-1.7-23.9c2.8-0.2,5.6-0.3,8.4-0.4l0.8,24
		C239.7,37.2,237.2,37.3,234.6,37.5z M253.6,37c-2.5,0-5.1,0-7.6,0l-0.4-24c2.8-0.1,5.6,0,8.4,0L253.6,37z"/>
	<rect x="20.3" y="-47.3" class="st11" width="50.7" height="28"/>
	<rect x="82.3" y="-47.3" class="st12" width="50.7" height="28"/>
	<rect x="182.3" y="-47.3" class="st13" width="50.7" height="28"/>
	<rect x="277" y="-47.3" class="st14" width="50.7" height="28"/>
	<rect x="363.7" y="-47.3" class="st15" width="50.7" height="28"/>
</g>
</svg>
