<?xml version="1.0" encoding="utf-8"?>
<!-- Generator: Adobe Illustrator 21.0.2, SVG Export Plug-In . SVG Version: 6.00 Build 0)  -->
<svg version="1.1" id="Layer_1" xmlns="http://www.w3.org/2000/svg" xmlns:xlink="http://www.w3.org/1999/xlink" x="0px" y="0px"
	 viewBox="0 0 64 64" style="enable-background:new 0 0 64 64;" xml:space="preserve">
<style type="text/css">
	.st0{fill:#2b80bb;}
	.st1{fill:#2b80bb;}

.st0 {
  animation: slide 1s ease forwards;
}

@keyframes slide {
0%{
	transform:translateY(-100%);
}
100%{
	transform:translateY(0%)
}
}


</style>
<rect x="30" class="st0" width="4" height="24"/>
<path class="st0" d="M41.4,30.7L34,39.5V1.1C32.3-1,30,0.3,30,2v37.5L22.8,31l-3,2.6L32,48l12.4-14.6L41.4,30.7z"/>
<path class="st1" d="M42,12c0,0-0.1,0-0.1,0v4c0,0,0.1,0,0.1,0h12v44H10V16h12c0,0,0,0,0.1,0v-4c0,0,0,0-0.1,0H6v52h52V12H42z"/>
</svg>
