<?xml version="1.0" encoding="utf-8"?>
<!-- Generator: Adobe Illustrator 21.1.0, SVG Export Plug-In . SVG Version: 6.00 Build 0)  -->
<svg version="1.1" id="Stencil" xmlns="http://www.w3.org/2000/svg" xmlns:xlink="http://www.w3.org/1999/xlink" x="0px" y="0px"
	 viewBox="0 0 150 150" style="enable-background:new 0 0 150 150;" xml:space="preserve">
<style type="text/css">
	.st0{fill:#BCC3C5;}
</style>
<title>i</title>
<path class="st0" d="M127.1,24.2c-28-28-73.5-28-101.5,0s-28,73.5,0,101.5c12,11.9,27.8,19.3,44.7,20.8c0,0,4,0.9,12-0.2
	c16.9-1.4,32.7-8.7,44.7-20.8C154.9,97.6,155,52.3,127.1,24.2C127.1,24.3,127.1,24.2,127.1,24.2z M118.7,117.3
	c-23.4,23.4-61.3,23.4-84.7,0S10.6,56,34,32.6s61.3-23.4,84.7,0l0,0c23.4,23.3,23.5,61.1,0.2,84.5
	C118.8,117.2,118.8,117.2,118.7,117.3L118.7,117.3z"/>
<g>
	<path class="st0" d="M52.6,58.7c0-3,0.9-6,2.8-9.1c1.9-3.1,4.7-5.6,8.5-7.7c3.6-2,7.9-3,12.9-3c4.6,0,8.6,0.8,12.1,2.6
		c3.5,1.7,6.2,4,8.1,6.8c1.9,3,2.8,6,2.8,9.4c0,2.7-0.5,5-1.6,7s-2.4,3.8-3.9,5.2c-1.5,1.5-4.2,3.9-8.1,7.4
		c-1.1,0.9-1.9,1.9-2.6,2.5c-0.7,0.7-1.1,1.5-1.5,2c-0.3,0.7-0.5,1.2-0.7,1.9S81,85.6,80.6,87c-0.5,3.2-2.4,5-5.6,5
		c-1.6,0-3-0.5-4.2-1.6c-1.1-1.1-1.6-2.7-1.6-4.7c0-2.7,0.4-5,1.2-6.8c0.8-1.9,1.9-3.6,3.2-5.1c1.3-1.5,3.2-3.2,5.5-5.2
		c2-1.7,3.5-3.1,4.3-4c0.9-0.9,1.6-1.9,2.3-3c0.7-1.1,0.9-2.3,0.9-3.6c0-2.6-0.9-4.7-2.8-6.3c-1.9-1.7-4.3-2.6-7.2-2.6
		c-3.5,0-6,0.8-7.6,2.6c-1.6,1.7-3,4.3-4.2,7.7c-1.1,3.5-3.1,5.4-6,5.4c-1.7,0-3.2-0.7-4.4-1.9C53.1,61.5,52.6,60.2,52.6,58.7z
		 M75.5,110.4c-1.9,0-3.6-0.7-5-1.9c-1.5-1.2-2.1-3-2.1-5.2c0-2,0.7-3.6,2-5c1.3-1.3,3.1-2,5.1-2s3.6,0.7,5,2c1.3,1.3,2,3,2,5
		c0,2.1-0.7,3.9-2.1,5.2C79,109.9,77.4,110.4,75.5,110.4z"/>
</g>
</svg>
