<?xml version="1.0" encoding="utf-8"?>
<!-- Generator: Adobe Illustrator 19.2.1, SVG Export Plug-In . SVG Version: 6.00 Build 0)  -->
<!DOCTYPE svg PUBLIC "-//W3C//DTD SVG 1.1//EN" "http://www.w3.org/Graphics/SVG/1.1/DTD/svg11.dtd">
<svg version="1.1" id="Layer_1" xmlns="http://www.w3.org/2000/svg" xmlns:xlink="http://www.w3.org/1999/xlink" x="0px" y="0px"
	 viewBox="0 0 100 100" style="enable-background:new 0 0 100 100;" xml:space="preserve">
<style type="text/css">
	.st0{fill:#2B81BB;}
	.st1{fill:none;}
	.st2{fill:#2B81BB;}
</style>
<g>
	<g>
		<path class="st0" d="M31.272,37.122v4.644h11.244v31.411c0,1.222,1.1,2.322,2.322,2.322l0,0c1.222,0,2.322-1.1,2.322-2.322V37.122
			H31.272z"/>
	</g>
	<g>
		<path class="st0" d="M58.65,44.578v-2.933h15.522c1.222,0,2.322-1.1,2.322-2.322l0,0c0-1.222-1.1-2.322-2.322-2.322H54.006v29.456
			h4.644V56.311"/>
	</g>
	<g>
		<line class="st1" x1="58.65" y1="56.311" x2="58.65" y2="44.578"/>
	</g>
	<g>
		<path class="st0" d="M67.572,27.833H24.428c-1.222,0-2.322,1.1-2.322,2.322l0,0c0,1.222,1.1,2.322,2.322,2.322h43.144V27.833z"/>
	</g>
</g>
<path class="st2" d="M50,100C22.43,100,0,77.57,0,50C0,22.43,22.43,0,50,0c27.57,0,50,22.43,50,50c0,1.315-1.066,2.381-2.381,2.381
	c-1.315,0-2.381-1.066-2.381-2.381C95.238,25.056,74.944,4.762,50,4.762S4.762,25.056,4.762,50S25.056,95.238,50,95.238
	c1.315,0,2.381,1.066,2.381,2.381C52.381,98.934,51.315,100,50,100z">
	
	<animateTransform attributeName="transform"
		attributeType="XML"
		type="rotate"
		from="0 50 50"
		to="360 50 50"
		dur="1s"
		repeatCount="indefinite"
	/>

</path>
</svg>
