<?xml version="1.0" encoding="utf-8"?>
<!-- Generator: Adobe Illustrator 22.0.1, SVG Export Plug-In . SVG Version: 6.00 Build 0)  -->
<svg version="1.1" id="Stencil" xmlns="http://www.w3.org/2000/svg" xmlns:xlink="http://www.w3.org/1999/xlink" x="0px" y="0px"
	 viewBox="0 0 150 150" style="enable-background:new 0 0 150 150;" xml:space="preserve">
<style type="text/css">
	.st0{fill:#FFFFFF;}
</style>
<title>i</title>
<g>
	<path class="st0" d="M125.8,24.2c-28-28-73.5-28-101.5,0s-28,73.5,0,101.5c12,11.9,27.8,19.3,44.7,20.8c0,0,4,0.9,12-0.2
		c16.9-1.4,32.7-8.7,44.7-20.8C153.6,97.6,153.7,52.3,125.8,24.2C125.8,24.3,125.8,24.2,125.8,24.2z M117.4,117.3
		c-23.4,23.4-61.3,23.4-84.7,0S9.3,56,32.7,32.6s61.3-23.4,84.7,0l0,0c23.4,23.3,23.5,61.1,0.2,84.5
		C117.5,117.2,117.5,117.2,117.4,117.3L117.4,117.3z"/>
	<g>
		<path class="st0" d="M60.8,73.7c10-8.8,16.8-13.2,20.5-13.2c1.7,0,2.6,1,2.6,2.9c0,0.9-0.6,3.3-1.8,7l-8.4,24.8
			c-0.2,1-0.4,1.7-0.4,2.2c0,0.7,0.3,1.1,0.9,1.1c1,0,3.1-1.4,6.5-4.3l2.4,2.4c-4.2,4.1-8.3,7.4-12.1,9.7c-3.8,2.3-6.8,3.5-8.9,3.5
			c-2.1,0-3.1-0.9-3.1-2.7c0-1.6,1.5-6.7,4.6-15.3l3.7-10.3c1.4-3.9,2.1-6.2,2.1-7c0-0.9-0.3-1.3-1-1.3c-0.7,0-2.4,1.1-5.2,3.4
			L60.8,73.7z M84.4,37.2c1.6,0,2.9,0.6,3.9,1.7s1.5,2.5,1.5,4.1c0,2.3-0.7,4.5-2.2,6.6c-1.5,2.1-3.3,3.2-5.4,3.2
			c-1.5,0-2.8-0.5-3.9-1.5s-1.7-2.5-1.7-4.6c0-2.3,0.7-4.5,2.2-6.5C80.3,38.2,82.2,37.2,84.4,37.2z"/>
	</g>
</g>
</svg>
