<?xml version="1.0" encoding="utf-8"?>
<!-- Generator: Adobe Illustrator 21.1.0, SVG Export Plug-In . SVG Version: 6.00 Build 0)  -->
<svg version="1.1" id="Layer_1" xmlns="http://www.w3.org/2000/svg" xmlns:xlink="http://www.w3.org/1999/xlink" x="0px" y="0px"
	 viewBox="0 0 329.6 100.1" style="enable-background:new 0 0 329.6 100.1;" xml:space="preserve">
<style type="text/css">
	.st0{fill:#2B80BC;}
	.st1{fill:#FFFFFF;}
</style>
<g>
	<g>
		<g>
			<path class="st0" d="M14.6,15.7v7.3h17.6v49.3c0,2,1.6,3.6,3.6,3.6h0c2,0,3.6-1.6,3.6-3.6V15.7H14.6z"/>
		</g>
		<g>
			<path class="st0" d="M50.1,61.6h7.3V22.7h24.3c2,0,3.6-1.6,3.6-3.6v0c0-2-1.6-3.6-3.6-3.6H50.1V61.6z"/>
		</g>
		<g>
			<path class="st0" d="M74.9,1.1H7.2c-2,0-3.6,1.6-3.6,3.6v0c0,2,1.6,3.6,3.6,3.6h67.6V1.1z"/>
		</g>
	</g>
	<g>
		<path class="st1" d="M160.2,23.3c-8.1,0-14.6,2.7-19.8,8.2c-4.8,5.3-7.3,11.9-7.3,19.8c0,7.8,2.4,14.4,7.3,19.8
			c5.1,5.5,11.7,8.2,19.8,8.2c8.1,0,14.6-2.7,19.8-8.2c4.8-5.3,7.3-11.9,7.3-19.8c0-7.8-2.4-14.4-7.3-19.8
			C174.9,26,168.3,23.3,160.2,23.3z M169.7,61.6c-2.3,2.5-5.5,3.7-9.4,3.7c-4,0-7.1-1.2-9.4-3.7c-2.3-2.5-3.5-5.9-3.5-10.3
			c0-4.4,1.2-7.8,3.5-10.3c2.3-2.5,5.5-3.7,9.4-3.7c4,0,7.1,1.2,9.4,3.7c2.3,2.5,3.5,5.9,3.5,10.3C173.2,55.7,172,59.1,169.7,61.6z"
			/>
		<path class="st1" d="M232.8,51.3c0,3.9-1.2,7.1-3.5,9.6c-2.3,2.5-5.3,3.7-9,3.7c-3.4,0-6.2-1.2-8.5-3.7c-2.3-2.5-3.4-5.7-3.4-9.6
			c0-3.9,1.2-7.1,3.5-9.6c2.3-2.5,5.3-3.7,8.8-3.7c0.1,0,0.1,0,0.2,0c4.1,0,7.4-3.2,7.4-7.3l0,0c0-3.7-2.7-6.8-6.4-7.3
			c-0.8-0.1-1.5-0.1-2.1-0.1c-7.3,0-13.4,2.9-18.3,8.6c-4.8,5.4-7.1,11.9-7.1,19.3c0,7.9,2.5,14.6,7.4,20c4.9,5.4,11.2,8.1,18.8,8.1
			c7.7,0,14-2.7,18.9-8.1c4.9-5.4,7.4-12.1,7.4-20V1.1h-14.1V51.3z"/>
		<path class="st1" d="M287.6,55.8c0,6.3-2.7,9.4-8.2,9.4c-5.5,0-8.2-3.1-8.2-9.4V24.6H257v34.1c0,5.1,1.2,9.3,3.7,12.7
			c2.6,3.7,6.4,6,11.2,7c0,0,7.9,2,14.7,0c0.1,0,0.1,0,0.2-0.1v13.2c0,4.1,3.3,7.4,7.4,7.4h0c4.1,0,7.4-3.3,7.4-7.4v-67h-14.1V55.8z
			"/>
		<path class="st1" d="M311.9,1.1V71c0,3.9,3.1,7,7,7l0,0c3.9,0,7-3.1,7-7V1.1H311.9z"/>
		<path class="st1" d="M122.9,63.3h-2.4c-1.5,0-3.1-0.9-3.1-3.6V38.2h10.2V24.6h-10.2V1.1h-14.1v57.3c0,12.6,5.3,19.1,15.8,19.5l0,0
			h3.7c4.1,0,7.4-3.3,7.4-7.4v0C130.2,66.6,126.9,63.3,122.9,63.3z"/>
	</g>
</g>
</svg>
