<svg id="Layer_2" xmlns="http://www.w3.org/2000/svg" viewBox="0 0 300 54">
<style type="text/css">
  .st2{fill:#72afdf;}

	.browsers{
    fill:#72afdf;
    animation-name:aniBrowserColor;
    animation-duration:1.5s;
    animation-iteration-count: 1;
    animation-fill-mode: forwards;
    animation-timing-function: ease-out;
    animation-delay: 3s;
  }

	.skulls{
    opacity:0;
    fill:#f8981d;
    animation-name:aniSkullIn;
    animation-duration:1.5s;
    animation-iteration-count: 1;
    animation-fill-mode: forwards;
    animation-timing-function: ease-out;
    animation-delay: 3s;    
  }
	


    @keyframes aniSkullIn {
      0%   { opacity:0;}
      100% { opacity:1;}
    }


    @keyframes aniBrowserColor {
      0%   { fill:#72afdf;}
      100% { fill:#f8981d;}
    }


</style>
<title>AV</title>
<g>
	<path class="browsers" d="M40.1,8.2c-0.3,0-0.5,0.1-0.7,0.3c-0.2,0.2-0.3,0.4-0.3,0.7c0,0.2,0.1,0.5,0.3,0.7c0.2,0.2,0.4,0.3,0.7,0.3
		c0.2,0,0.5-0.1,0.7-0.3C40.9,9.6,41,9.4,41,9.1c0-0.2-0.1-0.5-0.3-0.7C40.6,8.3,40.3,8.2,40.1,8.2z"/>
	<path class="browsers" d="M43.1,8.2c-0.2,0-0.5,0.1-0.7,0.3c-0.2,0.2-0.3,0.4-0.3,0.7c0,0.2,0.1,0.5,0.3,0.7c0.2,0.2,0.4,0.3,0.7,0.3
		c0.3,0,0.5-0.1,0.7-0.3c0.2-0.2,0.3-0.4,0.3-0.7c0-0.2-0.1-0.5-0.3-0.7C43.6,8.3,43.4,8.2,43.1,8.2z"/>
	<path class="browsers" d="M46.1,8.2c-0.2,0-0.5,0.1-0.7,0.3c-0.2,0.2-0.3,0.4-0.3,0.7c0,0.2,0.1,0.5,0.3,0.7c0.2,0.2,0.4,0.3,0.7,0.3
		c0.2,0,0.5-0.1,0.7-0.3c0.2-0.2,0.3-0.4,0.3-0.7c0-0.2-0.1-0.5-0.3-0.7C46.6,8.3,46.4,8.2,46.1,8.2z"/>
	<path class="browsers" d="M53.3,13.2V9.9c0-3.4-2.8-6.2-6.2-6.2H7.2C3.8,3.7,1,6.5,1,9.9v34.1c0,3.4,2.8,6.2,6.2,6.2h39.9
		c3.4,0,6.2-2.8,6.2-6.2V13.6c0-0.1,0-0.1,0-0.2S53.4,13.2,53.3,13.2z M50.9,44.1c0,2.1-1.7,3.7-3.7,3.7H7.2c-2.1,0-3.7-1.7-3.7-3.7
		V14.6h47.4V44.1z M50.9,12.1H3.5V9.9c0-2.1,1.7-3.7,3.7-3.7h39.9c2.1,0,3.7,1.7,3.7,3.7V12.1z"/>
</g>
<g>
	<path class="skulls" d="M26.5,29.7c0-0.4-0.1-0.8-0.4-1l-1.2-1c-0.3-0.3-0.8-0.4-1.2-0.3l-2.5,0.7c-0.6,0.2-1,0.7-0.9,1.3l0.3,2.6
		c0,0.4,0.3,0.8,0.7,1c0.2,0.1,0.4,0.1,0.5,0.1c0.2,0,0.5-0.1,0.7-0.2l3.4-2.3C26.2,30.5,26.4,30.1,26.5,29.7z"/>
	<path class="skulls" d="M33.2,28.1l-2.5-0.7c-0.4-0.1-0.8,0-1.2,0.3l-1.2,1c-0.3,0.3-0.4,0.6-0.4,1c0,0.4,0.2,0.7,0.6,1l3.4,2.3
		c0.2,0.1,0.4,0.2,0.7,0.2c0.2,0,0.4,0,0.5-0.1c0.4-0.2,0.7-0.6,0.7-1l0.3-2.6C34.1,28.8,33.8,28.3,33.2,28.1z"/>
	<path class="skulls" d="M27.7,31.7c-0.1-0.2-0.3-0.2-0.5-0.3c-0.2,0-0.4,0.1-0.5,0.2l-1.3,1.6c-0.1,0.2-0.2,0.4-0.1,0.7
		c0.1,0.2,0.3,0.3,0.6,0.3h2.5c0.2,0,0.5-0.1,0.6-0.3c0.1-0.2,0.1-0.5-0.1-0.7L27.7,31.7z"/>
	<path class="skulls" d="M46,37.8c-0.2-1.2-1.2-2.2-2.4-2.4c-1.4-0.2-2.6,0.7-3,1.9l-4.2-2c1.7-1.6,2.6-3.4,2.6-5.3
		c0-1.4-0.3-2.7-0.7-3.9l2.4-1.4c0.4,1.2,1.4,2,2.7,2c1.4,0,2.6-1.2,2.7-2.6c0.1-1.4-0.7-2.5-2-2.9c-0.2-0.1-0.4-0.3-0.4-0.5
		c0,0,0,0,0,0c0-1.7-1.4-3-3.1-2.8c-1.3,0.1-2.3,1.2-2.5,2.5c-0.1,0.9,0.3,1.7,0.8,2.3l-1.8,1.1c-2.1-3.4-5.8-5.6-10-5.6
		c-4.2,0-7.9,2.3-10,5.6l-1.8-1.1c0.6-0.6,0.9-1.4,0.8-2.3c-0.1-1.3-1.2-2.4-2.5-2.5c-1.7-0.2-3.1,1.1-3.1,2.8v0
		c0,0.2-0.1,0.4-0.4,0.5c-1.3,0.4-2.1,1.6-1.9,3c0.2,1.2,1.2,2.2,2.4,2.3c1.4,0.2,2.6-0.7,3-2l2.4,1.4c-0.4,1.2-0.7,2.5-0.7,3.9
		c0,1.9,0.9,3.7,2.6,5.3l-4.2,2c-0.4-1.2-1.5-2-2.9-1.9c-1.4,0.1-2.5,1.2-2.6,2.5c-0.1,1.4,0.8,2.5,2,2.9c0.2,0.1,0.4,0.3,0.4,0.5
		c0,0,0,0,0,0c0,1.6,1.4,3,3.1,2.8c1.3-0.1,2.3-1.2,2.5-2.5c0.1-0.9-0.3-1.7-0.8-2.3l4.7-2.2c0.3,0.2,0.6,0.4,0.9,0.6l0,2.2
		c0,0.6,0.3,1.1,0.9,1.4l3.8,1.7c0.5,0.2,1,0.3,1.5,0.3c0.5,0,1-0.1,1.5-0.3l3.8-1.7c0.5-0.2,0.9-0.8,0.9-1.4v-2.2
		c0.3-0.2,0.6-0.4,0.9-0.6l4.7,2.2c-0.6,0.6-0.9,1.4-0.9,2.3c0.1,1.3,1.2,2.4,2.5,2.5c1.7,0.2,3.1-1.1,3.1-2.8c0,0,0,0,0,0
		c0-0.2,0.1-0.4,0.3-0.5C45.4,40.5,46.2,39.3,46,37.8z M31.5,35.9L31.5,35.9c-0.4,0.2-0.6,0.6-0.6,1.1v2.3l-3.2,1.5
		c-0.3,0.1-0.6,0.1-0.9,0l-3.2-1.5l0-2.3c0-0.5-0.2-0.9-0.6-1.1c-2.3-1.3-5-3.3-5-5.8c0-5.1,4.2-9.3,9.3-9.3c5.1,0,9.3,4.2,9.3,9.3
		C36.5,32.6,33.8,34.6,31.5,35.9z"/>
</g>
<title>AV</title>
<g>
	<path class="browsers" d="M101.5,8.2c-0.3,0-0.5,0.1-0.7,0.3c-0.2,0.2-0.3,0.4-0.3,0.7c0,0.2,0.1,0.5,0.3,0.7c0.2,0.2,0.4,0.3,0.7,0.3
		c0.2,0,0.5-0.1,0.7-0.3c0.2-0.2,0.3-0.4,0.3-0.7c0-0.2-0.1-0.5-0.3-0.7C102,8.3,101.7,8.2,101.5,8.2z"/>
	<path class="browsers" d="M104.5,8.2c-0.2,0-0.5,0.1-0.7,0.3c-0.2,0.2-0.3,0.4-0.3,0.7c0,0.2,0.1,0.5,0.3,0.7c0.2,0.2,0.4,0.3,0.7,0.3
		c0.3,0,0.5-0.1,0.7-0.3c0.2-0.2,0.3-0.4,0.3-0.7c0-0.2-0.1-0.5-0.3-0.7C105,8.3,104.8,8.2,104.5,8.2z"/>
	<path class="browsers" d="M107.6,8.2c-0.2,0-0.5,0.1-0.7,0.3c-0.2,0.2-0.3,0.4-0.3,0.7c0,0.2,0.1,0.5,0.3,0.7c0.2,0.2,0.4,0.3,0.7,0.3
		s0.5-0.1,0.7-0.3c0.2-0.2,0.3-0.4,0.3-0.7c0-0.2-0.1-0.5-0.3-0.7C108,8.3,107.8,8.2,107.6,8.2z"/>
	<path class="browsers" d="M114.8,13.2V9.9c0-3.4-2.8-6.2-6.2-6.2H68.6c-3.4,0-6.2,2.8-6.2,6.2v34.1c0,3.4,2.8,6.2,6.2,6.2h39.9
		c3.4,0,6.2-2.8,6.2-6.2V13.6c0-0.1,0-0.1,0-0.2S114.8,13.2,114.8,13.2z M112.3,44.1c0,2.1-1.7,3.7-3.7,3.7H68.6
		c-2.1,0-3.7-1.7-3.7-3.7V14.6h47.4V44.1z M112.3,12.1H64.9V9.9c0-2.1,1.7-3.7,3.7-3.7h39.9c2.1,0,3.7,1.7,3.7,3.7V12.1z"/>
</g>
<g>
	<path class="skulls " d="M87.9,29.7c0-0.4-0.1-0.8-0.4-1l-1.2-1c-0.3-0.3-0.8-0.4-1.2-0.3l-2.5,0.7c-0.6,0.2-1,0.7-0.9,1.3L82,32
		c0,0.4,0.3,0.8,0.7,1c0.2,0.1,0.4,0.1,0.5,0.1c0.2,0,0.5-0.1,0.7-0.2l3.4-2.3C87.6,30.5,87.8,30.1,87.9,29.7z"/>
	<path class="skulls" d="M94.6,28.1l-2.5-0.7c-0.4-0.1-0.8,0-1.2,0.3l-1.2,1c-0.3,0.3-0.4,0.6-0.4,1c0,0.4,0.2,0.7,0.6,1l3.4,2.3
		c0.2,0.1,0.4,0.2,0.7,0.2c0.2,0,0.4,0,0.5-0.1c0.4-0.2,0.7-0.6,0.7-1l0.3-2.6C95.5,28.8,95.2,28.3,94.6,28.1z"/>
	<path class="skulls" d="M89.1,31.7c-0.1-0.2-0.3-0.2-0.5-0.3c-0.2,0-0.4,0.1-0.5,0.2l-1.3,1.6c-0.1,0.2-0.2,0.4-0.1,0.7
		c0.1,0.2,0.3,0.3,0.6,0.3h2.5c0.2,0,0.5-0.1,0.6-0.3c0.1-0.2,0.1-0.5-0.1-0.7L89.1,31.7z"/>
	<path class="skulls" d="M107.4,37.8c-0.2-1.2-1.2-2.2-2.4-2.4c-1.4-0.2-2.6,0.7-3,1.9l-4.2-2c1.7-1.6,2.6-3.4,2.6-5.3
		c0-1.4-0.3-2.7-0.7-3.9l2.4-1.4c0.4,1.2,1.4,2,2.7,2c1.4,0,2.6-1.2,2.7-2.6c0.1-1.4-0.7-2.5-2-2.9c-0.2-0.1-0.4-0.3-0.4-0.5
		c0,0,0,0,0,0c0-1.7-1.4-3-3.1-2.8c-1.3,0.1-2.3,1.2-2.5,2.5c-0.1,0.9,0.3,1.7,0.8,2.3l-1.8,1.1c-2.1-3.4-5.8-5.6-10-5.6
		c-4.2,0-7.9,2.3-10,5.6l-1.8-1.1c0.6-0.6,0.9-1.4,0.8-2.3c-0.1-1.3-1.2-2.4-2.5-2.5c-1.7-0.2-3.1,1.1-3.1,2.8v0
		c0,0.2-0.1,0.4-0.4,0.5c-1.3,0.4-2.1,1.6-1.9,3c0.2,1.2,1.2,2.2,2.4,2.3c1.4,0.2,2.6-0.7,3-2l2.4,1.4c-0.4,1.2-0.7,2.5-0.7,3.9
		c0,1.9,0.9,3.7,2.6,5.3l-4.2,2c-0.4-1.2-1.5-2-2.9-1.9c-1.4,0.1-2.5,1.2-2.6,2.5c-0.1,1.4,0.8,2.5,2,2.9c0.2,0.1,0.4,0.3,0.4,0.5
		c0,0,0,0,0,0c0,1.6,1.4,3,3.1,2.8c1.3-0.1,2.3-1.2,2.5-2.5c0.1-0.9-0.3-1.7-0.8-2.3l4.7-2.2c0.3,0.2,0.6,0.4,0.9,0.6l0,2.2
		c0,0.6,0.3,1.1,0.9,1.4l3.8,1.7c0.5,0.2,1,0.3,1.5,0.3c0.5,0,1-0.1,1.5-0.3l3.8-1.7c0.5-0.2,0.9-0.8,0.9-1.4v-2.2
		c0.3-0.2,0.6-0.4,0.9-0.6l4.7,2.2c-0.6,0.6-0.9,1.4-0.9,2.3c0.1,1.3,1.2,2.4,2.5,2.5c1.7,0.2,3.1-1.1,3.1-2.8c0,0,0,0,0,0
		c0-0.2,0.1-0.4,0.3-0.5C106.8,40.5,107.6,39.3,107.4,37.8z M92.9,35.9L92.9,35.9c-0.4,0.2-0.6,0.6-0.6,1.1v2.3l-3.2,1.5
		c-0.3,0.1-0.6,0.1-0.9,0l-3.2-1.5l0-2.3c0-0.5-0.2-0.9-0.6-1.1c-2.3-1.3-5-3.3-5-5.8c0-5.1,4.2-9.3,9.3-9.3c5.1,0,9.3,4.2,9.3,9.3
		C97.9,32.6,95.2,34.6,92.9,35.9z"/>
</g>
<g>
	<path class="browsers" d="M162.9,8.2c-0.3,0-0.5,0.1-0.7,0.3c-0.2,0.2-0.3,0.4-0.3,0.7c0,0.2,0.1,0.5,0.3,0.7c0.2,0.2,0.4,0.3,0.7,0.3
		c0.2,0,0.5-0.1,0.7-0.3c0.2-0.2,0.3-0.4,0.3-0.7c0-0.2-0.1-0.5-0.3-0.7C163.4,8.3,163.1,8.2,162.9,8.2z"/>
	<path class="browsers" d="M165.9,8.2c-0.2,0-0.5,0.1-0.7,0.3c-0.2,0.2-0.3,0.4-0.3,0.7c0,0.2,0.1,0.5,0.3,0.7c0.2,0.2,0.4,0.3,0.7,0.3
		c0.3,0,0.5-0.1,0.7-0.3c0.2-0.2,0.3-0.4,0.3-0.7c0-0.2-0.1-0.5-0.3-0.7C166.4,8.3,166.2,8.2,165.9,8.2z"/>
	<path class="browsers" d="M169,8.2c-0.2,0-0.5,0.1-0.7,0.3c-0.2,0.2-0.3,0.4-0.3,0.7c0,0.2,0.1,0.5,0.3,0.7c0.2,0.2,0.4,0.3,0.7,0.3
		s0.5-0.1,0.7-0.3c0.2-0.2,0.3-0.4,0.3-0.7c0-0.2-0.1-0.5-0.3-0.7C169.5,8.3,169.2,8.2,169,8.2z"/>
	<path class="browsers" d="M176.2,13.2V9.9c0-3.4-2.8-6.2-6.2-6.2H130c-3.4,0-6.2,2.8-6.2,6.2v34.1c0,3.4,2.8,6.2,6.2,6.2h39.9
		c3.4,0,6.2-2.8,6.2-6.2V13.6c0-0.1,0-0.1,0-0.2S176.2,13.2,176.2,13.2z M173.7,44.1c0,2.1-1.7,3.7-3.7,3.7H130
		c-2.1,0-3.7-1.7-3.7-3.7V14.6h47.4V44.1z M173.7,12.1h-47.4V9.9c0-2.1,1.7-3.7,3.7-3.7h39.9c2.1,0,3.7,1.7,3.7,3.7V12.1z"/>
</g>
<g>
	<path class="skulls" d="M149.3,29.7c0-0.4-0.1-0.8-0.4-1l-1.2-1c-0.3-0.3-0.8-0.4-1.2-0.3l-2.5,0.7c-0.6,0.2-1,0.7-0.9,1.3l0.3,2.6
		c0,0.4,0.3,0.8,0.7,1c0.2,0.1,0.4,0.1,0.5,0.1c0.2,0,0.5-0.1,0.7-0.2l3.4-2.3C149,30.5,149.2,30.1,149.3,29.7z"/>
	<path class="skulls" d="M156,28.1l-2.5-0.7c-0.4-0.1-0.8,0-1.2,0.3l-1.2,1c-0.3,0.3-0.4,0.6-0.4,1c0,0.4,0.2,0.7,0.6,1l3.4,2.3
		c0.2,0.1,0.4,0.2,0.7,0.2c0.2,0,0.4,0,0.5-0.1c0.4-0.2,0.7-0.6,0.7-1l0.3-2.6C156.9,28.8,156.6,28.3,156,28.1z"/>
	<path class="skulls" d="M150.5,31.7c-0.1-0.2-0.3-0.2-0.5-0.3c-0.2,0-0.4,0.1-0.5,0.2l-1.3,1.6c-0.1,0.2-0.2,0.4-0.1,0.7
		c0.1,0.2,0.3,0.3,0.6,0.3h2.5c0.2,0,0.5-0.1,0.6-0.3c0.1-0.2,0.1-0.5-0.1-0.7L150.5,31.7z"/>
	<path class="skulls" d="M168.9,37.8c-0.2-1.2-1.2-2.2-2.4-2.4c-1.4-0.2-2.6,0.7-3,1.9l-4.2-2c1.7-1.6,2.6-3.4,2.6-5.3
		c0-1.4-0.3-2.7-0.7-3.9l2.4-1.4c0.4,1.2,1.4,2,2.7,2c1.4,0,2.6-1.2,2.7-2.6c0.1-1.4-0.7-2.5-2-2.9c-0.2-0.1-0.4-0.3-0.4-0.5
		c0,0,0,0,0,0c0-1.7-1.4-3-3.1-2.8c-1.3,0.1-2.3,1.2-2.5,2.5c-0.1,0.9,0.3,1.7,0.8,2.3l-1.8,1.1c-2.1-3.4-5.8-5.6-10-5.6
		c-4.2,0-7.9,2.3-10,5.6l-1.8-1.1c0.6-0.6,0.9-1.4,0.8-2.3c-0.1-1.3-1.2-2.4-2.5-2.5c-1.7-0.2-3.1,1.1-3.1,2.8v0
		c0,0.2-0.1,0.4-0.4,0.5c-1.3,0.4-2.1,1.6-1.9,3c0.2,1.2,1.2,2.2,2.4,2.3c1.4,0.2,2.6-0.7,3-2l2.4,1.4c-0.4,1.2-0.7,2.5-0.7,3.9
		c0,1.9,0.9,3.7,2.6,5.3l-4.2,2c-0.4-1.2-1.5-2-2.9-1.9c-1.4,0.1-2.5,1.2-2.6,2.5c-0.1,1.4,0.8,2.5,2,2.9c0.2,0.1,0.4,0.3,0.4,0.5
		c0,0,0,0,0,0c0,1.6,1.4,3,3.1,2.8c1.3-0.1,2.3-1.2,2.5-2.5c0.1-0.9-0.3-1.7-0.8-2.3l4.7-2.2c0.3,0.2,0.6,0.4,0.9,0.6l0,2.2
		c0,0.6,0.3,1.1,0.9,1.4l3.8,1.7c0.5,0.2,1,0.3,1.5,0.3c0.5,0,1-0.1,1.5-0.3l3.8-1.7c0.5-0.2,0.9-0.8,0.9-1.4v-2.2
		c0.3-0.2,0.6-0.4,0.9-0.6l4.7,2.2c-0.6,0.6-0.9,1.4-0.9,2.3c0.1,1.3,1.2,2.4,2.5,2.5c1.7,0.2,3.1-1.1,3.1-2.8c0,0,0,0,0,0
		c0-0.2,0.1-0.4,0.3-0.5C168.2,40.5,169.1,39.3,168.9,37.8z M154.3,35.9L154.3,35.9c-0.4,0.2-0.6,0.6-0.6,1.1v2.3l-3.2,1.5
		c-0.3,0.1-0.6,0.1-0.9,0l-3.2-1.5l0-2.3c0-0.5-0.2-0.9-0.6-1.1c-2.3-1.3-5-3.3-5-5.8c0-5.1,4.2-9.3,9.3-9.3c5.1,0,9.3,4.2,9.3,9.3
		C159.3,32.6,156.6,34.6,154.3,35.9z"/>
</g>
<g>
	<path class="browsers" d="M224.3,8.2c-0.3,0-0.5,0.1-0.7,0.3c-0.2,0.2-0.3,0.4-0.3,0.7c0,0.2,0.1,0.5,0.3,0.7c0.2,0.2,0.4,0.3,0.7,0.3
		c0.2,0,0.5-0.1,0.7-0.3c0.2-0.2,0.3-0.4,0.3-0.7c0-0.2-0.1-0.5-0.3-0.7C224.8,8.3,224.5,8.2,224.3,8.2z"/>
	<path class="browsers" d="M227.3,8.2c-0.2,0-0.5,0.1-0.7,0.3c-0.2,0.2-0.3,0.4-0.3,0.7c0,0.2,0.1,0.5,0.3,0.7c0.2,0.2,0.4,0.3,0.7,0.3
		c0.3,0,0.5-0.1,0.7-0.3c0.2-0.2,0.3-0.4,0.3-0.7c0-0.2-0.1-0.5-0.3-0.7C227.8,8.3,227.6,8.2,227.3,8.2z"/>
	<path class="browsers" d="M230.4,8.2c-0.2,0-0.5,0.1-0.7,0.3c-0.2,0.2-0.3,0.4-0.3,0.7c0,0.2,0.1,0.5,0.3,0.7c0.2,0.2,0.4,0.3,0.7,0.3
		c0.2,0,0.5-0.1,0.7-0.3c0.2-0.2,0.3-0.4,0.3-0.7c0-0.2-0.1-0.5-0.3-0.7C230.9,8.3,230.6,8.2,230.4,8.2z"/>
	<path class="browsers" d="M237.6,13.2V9.9c0-3.4-2.8-6.2-6.2-6.2h-39.9c-3.4,0-6.2,2.8-6.2,6.2v34.1c0,3.4,2.8,6.2,6.2,6.2h39.9
		c3.4,0,6.2-2.8,6.2-6.2V13.6c0-0.1,0-0.1,0-0.2S237.6,13.2,237.6,13.2z M235.1,44.1c0,2.1-1.7,3.7-3.7,3.7h-39.9
		c-2.1,0-3.7-1.7-3.7-3.7V14.6h47.4V44.1z M235.1,12.1h-47.4V9.9c0-2.1,1.7-3.7,3.7-3.7h39.9c2.1,0,3.7,1.7,3.7,3.7V12.1z"/>
</g>
<g>
	<path class="skulls" d="M210.7,29.7c0-0.4-0.1-0.8-0.4-1l-1.2-1c-0.3-0.3-0.8-0.4-1.2-0.3l-2.5,0.7c-0.6,0.2-1,0.7-0.9,1.3l0.3,2.6
		c0,0.4,0.3,0.8,0.7,1c0.2,0.1,0.4,0.1,0.5,0.1c0.2,0,0.5-0.1,0.7-0.2l3.4-2.3C210.4,30.5,210.6,30.1,210.7,29.7z"/>
	<path class="skulls" d="M217.4,28.1l-2.5-0.7c-0.4-0.1-0.8,0-1.2,0.3l-1.2,1c-0.3,0.3-0.4,0.6-0.4,1c0,0.4,0.2,0.7,0.6,1l3.4,2.3
		c0.2,0.1,0.4,0.2,0.7,0.2c0.2,0,0.4,0,0.5-0.1c0.4-0.2,0.7-0.6,0.7-1l0.3-2.6C218.3,28.8,218,28.3,217.4,28.1z"/>
	<path class="skulls" d="M211.9,31.7c-0.1-0.2-0.3-0.2-0.5-0.3c-0.2,0-0.4,0.1-0.5,0.2l-1.3,1.6c-0.1,0.2-0.2,0.4-0.1,0.7
		c0.1,0.2,0.3,0.3,0.6,0.3h2.5c0.2,0,0.5-0.1,0.6-0.3c0.1-0.2,0.1-0.5-0.1-0.7L211.9,31.7z"/>
	<path class="skulls" d="M230.3,37.8c-0.2-1.2-1.2-2.2-2.4-2.4c-1.4-0.2-2.6,0.7-3,1.9l-4.2-2c1.7-1.6,2.6-3.4,2.6-5.3
		c0-1.4-0.3-2.7-0.7-3.9l2.4-1.4c0.4,1.2,1.4,2,2.7,2c1.4,0,2.6-1.2,2.7-2.6c0.1-1.4-0.7-2.5-2-2.9c-0.2-0.1-0.4-0.3-0.4-0.5
		c0,0,0,0,0,0c0-1.7-1.4-3-3.1-2.8c-1.3,0.1-2.3,1.2-2.5,2.5c-0.1,0.9,0.3,1.7,0.8,2.3l-1.8,1.1c-2.1-3.4-5.8-5.6-10-5.6
		c-4.2,0-7.9,2.3-10,5.6l-1.8-1.1c0.6-0.6,0.9-1.4,0.8-2.3c-0.1-1.3-1.2-2.4-2.5-2.5c-1.7-0.2-3.1,1.1-3.1,2.8v0
		c0,0.2-0.1,0.4-0.4,0.5c-1.3,0.4-2.1,1.6-1.9,3c0.2,1.2,1.2,2.2,2.4,2.3c1.4,0.2,2.6-0.7,3-2l2.4,1.4c-0.4,1.2-0.7,2.5-0.7,3.9
		c0,1.9,0.9,3.7,2.6,5.3l-4.2,2c-0.4-1.2-1.5-2-2.9-1.9c-1.4,0.1-2.5,1.2-2.6,2.5c-0.1,1.4,0.8,2.5,2,2.9c0.2,0.1,0.4,0.3,0.4,0.5
		c0,0,0,0,0,0c0,1.6,1.4,3,3.1,2.8c1.3-0.1,2.3-1.2,2.5-2.5c0.1-0.9-0.3-1.7-0.8-2.3l4.7-2.2c0.3,0.2,0.6,0.4,0.9,0.6l0,2.2
		c0,0.6,0.3,1.1,0.9,1.4l3.8,1.7c0.5,0.2,1,0.3,1.5,0.3c0.5,0,1-0.1,1.5-0.3l3.8-1.7c0.5-0.2,0.9-0.8,0.9-1.4v-2.2
		c0.3-0.2,0.6-0.4,0.9-0.6l4.7,2.2c-0.6,0.6-0.9,1.4-0.9,2.3c0.1,1.3,1.2,2.4,2.5,2.5c1.7,0.2,3.1-1.1,3.1-2.8c0,0,0,0,0,0
		c0-0.2,0.1-0.4,0.3-0.5C229.6,40.5,230.5,39.3,230.3,37.8z M215.7,35.9L215.7,35.9c-0.4,0.2-0.6,0.6-0.6,1.1v2.3l-3.2,1.5
		c-0.3,0.1-0.6,0.1-0.9,0l-3.2-1.5l0-2.3c0-0.5-0.2-0.9-0.6-1.1c-2.3-1.3-5-3.3-5-5.8c0-5.1,4.2-9.3,9.3-9.3c5.1,0,9.3,4.2,9.3,9.3
		C220.7,32.6,218,34.6,215.7,35.9z"/>
</g>
<g><!--browser5-->
	<path class="st2" d="M285.7,8.2c-0.3,0-0.5,0.1-0.7,0.3c-0.2,0.2-0.3,0.4-0.3,0.7c0,0.2,0.1,0.5,0.3,0.7c0.2,0.2,0.4,0.3,0.7,0.3
		c0.2,0,0.5-0.1,0.7-0.3c0.2-0.2,0.3-0.4,0.3-0.7c0-0.2-0.1-0.5-0.3-0.7C286.2,8.3,285.9,8.2,285.7,8.2z"/>
	<path class="st2" d="M288.7,8.2c-0.2,0-0.5,0.1-0.7,0.3c-0.2,0.2-0.3,0.4-0.3,0.7c0,0.2,0.1,0.5,0.3,0.7c0.2,0.2,0.4,0.3,0.7,0.3
		c0.3,0,0.5-0.1,0.7-0.3c0.2-0.2,0.3-0.4,0.3-0.7c0-0.2-0.1-0.5-0.3-0.7C289.2,8.3,289,8.2,288.7,8.2z"/>
	<path class="st2" d="M291.8,8.2c-0.2,0-0.5,0.1-0.7,0.3c-0.2,0.2-0.3,0.4-0.3,0.7c0,0.2,0.1,0.5,0.3,0.7c0.2,0.2,0.4,0.3,0.7,0.3
		c0.2,0,0.5-0.1,0.7-0.3c0.2-0.2,0.3-0.4,0.3-0.7c0-0.2-0.1-0.5-0.3-0.7C292.3,8.3,292,8.2,291.8,8.2z"/>
	<path class="st2" d="M299,13.2V9.9c0-3.4-2.8-6.2-6.2-6.2h-39.9c-3.4,0-6.2,2.8-6.2,6.2v34.1c0,3.4,2.8,6.2,6.2,6.2h39.9
		c3.4,0,6.2-2.8,6.2-6.2V13.6c0-0.1,0-0.1,0-0.2S299,13.2,299,13.2z M296.5,44.1c0,2.1-1.7,3.7-3.7,3.7h-39.9
		c-2.1,0-3.7-1.7-3.7-3.7V14.6h47.4V44.1z M296.5,12.1h-47.4V9.9c0-2.1,1.7-3.7,3.7-3.7h39.9c2.1,0,3.7,1.7,3.7,3.7V12.1z"/>
</g>
</svg>
