<svg id="Layer_1" xmlns="http://www.w3.org/2000/svg" viewBox="0 0 300 54">
  <style>
    .open{
      fill:#2B80BB;
    } 
    .closed{
      fill:#828588;
      opacity:0;
    }

    .fade-in{
      animation-name:aniFadeIn;
      animation-duration:1.5s;
      animation-iteration-count: 1;
      animation-fill-mode: forwards;
      animation-timing-function: ease-out;
      animation-delay: 3s;
    }
    .fade-out{
      animation-name:aniFadeOut;
      animation-duration:2s;
      animation-iteration-count: 1;
      animation-fill-mode: forwards;
      animation-timing-function: ease-out;
      animation-delay: 2s;
    }
    @keyframes aniFadeIn {
      0%   { opacity:0;}
      100% { opacity:1;}
    }

    @keyframes aniFadeOut {
      0%   { opacity:1;}
      100% { opacity:0;}
    }

  </style>
  <title>
    Stores
  </title>
  <path class="open" d="M193.8 41.3h16.9V28h-16.9v13.3zm.9-12.3h15.1v11.3h-15.1V29z"/>
  <path class="open" d="M238.4 20.3L231.9 4h-42.4L183 20.3v.5c0 1.9 1.6 3.5 3.5 3.5.7 0 1.5-.2 2.1-.7V48h-3.5v2h51.3v-2h-3.5V23.6c1.6 1.1 3.8.8 4.9-.8.4-.6.7-1.3.7-2.1v-.2l-.1-.2zM190.9 6h39.7l5 12.6-49.6.1L190.9 6zm34.4 15.3c-.2 1.4-1.5 2.3-2.9 2.1-1.1-.2-1.9-1-2.1-2.1h5zm-6.1 0c-.2 1.4-1.5 2.3-2.9 2.1-1.1-.2-1.9-1-2.1-2.1h5zm-6 0c-.3 1.4-1.6 2.2-3 2-.9-.2-1.6-.8-1.9-1.7v-.3h4.9zm-6 0v.3c-.4 1.3-1.8 2.1-3.2 1.7-.9-.3-1.5-1-1.7-1.9h4.9zm-6 0c-.2 1.4-1.5 2.3-2.9 2.1-1.1-.2-1.9-1-2.1-2.1h5zm-14.6 2c-1.2 0-2.2-.8-2.5-2h5c-.2 1.2-1.3 2-2.5 2zm8.6-2c-.2 1.4-1.5 2.3-2.9 2.1-1.1-.2-1.9-1-2.1-2.1h5zM226.3 48h-10.1V29h10.1v19zm4.7 0h-3.7V28h-12.1v20h-24.5V23.6c1.6 1.1 3.8.8 4.9-.8.1-.1.1-.2.2-.3 1 1.7 3.1 2.2 4.8 1.3.5-.3 1-.7 1.3-1.3 1 1.7 3.1 2.3 4.8 1.3.5-.3.9-.7 1.2-1.1 1.1 1.6 3.2 2.1 4.9 1 .5-.3.9-.7 1.1-1.2 1 1.7 3.1 2.3 4.8 1.3.5-.3 1-.8 1.3-1.3 1 1.7 3.1 2.2 4.8 1.3.5-.3 1-.7 1.3-1.3 1 1.7 3.1 2.3 4.8 1.3.1-.1.2-.1.3-.2V48zm-2.5-24.6c-1.1-.2-1.9-1-2.1-2.1h5c-.2 1.3-1.5 2.3-2.9 2.1zm6.4-.1c-1.2 0-2.2-.8-2.5-2h5c-.2 1.2-1.3 2-2.5 2z"/>
  <path class="open" d="M217.2 35.7h2v5.1h-2zM195.8108 36.42883l6.15178-6.15177.7071.7071-6.15177 6.15177zM195.5883 33.66215l3.6062-3.6062.7071.7071-3.6062 3.6062zM254.4 41.3h16.9V28h-16.9v13.3zm.9-12.3h15.1v11.3h-15.1V29z"/>
  <path class="open" d="M298.9 20.3L292.5 4h-42.4l-6.5 16.3v.5c0 1.9 1.6 3.5 3.5 3.5.7 0 1.5-.2 2.1-.7V48h-3.5v2H297v-2h-3.5V23.6c1.6 1.1 3.8.8 4.9-.8.4-.6.7-1.3.7-2.1v-.2l-.2-.2zM251.5 6h39.7l5 12.6-49.6.1L251.5 6zm34.3 15.3c-.2 1.4-1.5 2.3-2.9 2.1-1.1-.2-1.9-1-2.1-2.1h5zm-6 0c-.2 1.4-1.5 2.3-2.9 2.1-1.1-.2-1.9-1-2.1-2.1h5zm-6.1 0c-.3 1.4-1.6 2.2-3 2-.9-.2-1.6-.8-1.9-1.7v-.3h4.9zm-5.9 0v.3c-.4 1.3-1.8 2.1-3.2 1.7-.9-.3-1.5-1-1.7-1.9h4.9zm-6 0c-.2 1.4-1.5 2.3-2.9 2.1-1.1-.2-1.9-1-2.1-2.1h5zm-14.6 2c-1.2 0-2.2-.8-2.5-2h5c-.3 1.2-1.3 2-2.5 2zm8.6-2c-.2 1.4-1.5 2.3-2.9 2.1-1.1-.2-1.9-1-2.1-2.1h5zM286.9 48h-10.1V29h10.1v19zm4.6 0h-3.7V28h-12.1v20h-24.5V23.6c1.6 1.1 3.8.8 4.9-.8.1-.1.1-.2.2-.3 1 1.7 3.1 2.2 4.8 1.3.5-.3 1-.7 1.3-1.3 1 1.7 3.1 2.3 4.8 1.3.5-.3.9-.7 1.2-1.1 1.1 1.6 3.2 2.1 4.9 1 .5-.3.9-.7 1.1-1.2 1 1.7 3.1 2.3 4.8 1.3.5-.3 1-.8 1.3-1.3 1 1.7 3.1 2.2 4.8 1.3.5-.3 1-.7 1.3-1.3 1 1.7 3.1 2.3 4.8 1.3.1-.1.2-.1.3-.2V48zM289 23.4c-1.1-.2-1.9-1-2.1-2.1h5c-.2 1.3-1.5 2.3-2.9 2.1zm6.5-.1c-1.2 0-2.2-.8-2.5-2h5c-.3 1.2-1.3 2-2.5 2z"/>
  <path class="open" d="M277.7 35.7h2v5.1h-2zM256.40017 36.40447l6.15177-6.15177.7071.7071-6.15177 6.15177zM256.17945 33.6396l3.6062-3.60622.7071.7071-3.6062 3.6062z"/>
  
  <g><!--1 open-->
    <path class="open fade-out" d="M12.1 41.3H29V28H12.1v13.3zM13 29h15.1v11.3H13V29z"/>
    <path class="open fade-out" d="M56.7 20.3L50.2 4H7.8L1.3 20.3v.5c0 1.9 1.6 3.5 3.5 3.5.7 0 1.5-.2 2.1-.7V48H3.4v2h51.3v-2h-3.5V23.6c1.6 1.1 3.8.8 4.9-.8.4-.6.7-1.3.7-2.1v-.2l-.1-.2zM9.2 6h39.7l5 12.6H4.2L9.2 6zm34.4 15.3c-.2 1.4-1.5 2.3-2.9 2.1-1.1-.2-1.9-1-2.1-2.1h5zm-6.1 0c-.2 1.4-1.5 2.3-2.9 2.1-1.1-.2-1.9-1-2.1-2.1h5zm-6 0c-.3 1.4-1.6 2.2-3 2-.9-.2-1.6-.8-1.9-1.7v-.3h4.9zm-6 0v.3c-.4 1.3-1.8 2.1-3.2 1.7-.9-.3-1.5-1-1.7-1.9h4.9zm-6 0c-.2 1.4-1.5 2.3-2.9 2.1-1.1-.2-1.9-1-2.1-2.1h5zm-14.6 2c-1.2 0-2.2-.8-2.5-2h5c-.2 1.2-1.3 2-2.5 2zm8.6-2c-.2 1.4-1.5 2.3-2.9 2.1-1.1-.2-1.9-1-2.1-2.1h5zM44.6 48H34.5V29h10.1v19zm4.7 0h-3.7V28H33.5v20H8.9V23.6c1.6 1.1 3.8.8 4.9-.8.1-.1.1-.2.2-.3 1 1.7 3.1 2.2 4.8 1.3.5-.3 1-.7 1.3-1.3 1 1.7 3.1 2.3 4.8 1.3.5-.3.9-.7 1.2-1.1 1.1 1.6 3.2 2.1 4.9 1 .5-.3.9-.7 1.1-1.2 1 1.7 3.1 2.3 4.8 1.3.5-.3 1-.8 1.3-1.3 1 1.7 3.1 2.2 4.8 1.3.5-.3 1-.7 1.3-1.3 1 1.7 3.1 2.3 4.8 1.3.1-.1.2-.1.3-.2V48zm-2.5-24.6c-1.1-.2-1.9-1-2.1-2.1h5c-.2 1.3-1.5 2.3-2.9 2.1zm6.4-.1c-1.2 0-2.2-.8-2.5-2h5c-.2 1.2-1.3 2-2.5 2z"/>
    <path class="open fade-out" d="M35.5 35.7h2v5.1h-2zM14.11344 36.4311l6.15177-6.15177.7071.7071-6.15176 6.15177zM13.88542 33.65882l3.6062-3.6062.7071.7071-3.6062 3.6062z"/>
  </g>
  <g><!--2 open-->
    <path class="open fade-out" d="M72.7 41.3h16.9V28H72.7v13.3zm.9-12.3h15.1v11.3H73.6V29z"/>
    <path class="open fade-out" d="M117.2 20.3L110.8 4H68.4l-6.5 16.3v.5c0 1.9 1.6 3.5 3.5 3.5.7 0 1.5-.2 2.1-.7V48H64v2h51.3v-2h-3.5V23.6c1.6 1.1 3.8.8 4.9-.8.4-.6.7-1.3.7-2.1v-.2l-.2-.2zM69.8 6h39.7l5 12.6-49.6.1L69.8 6zm34.3 15.3c-.2 1.4-1.5 2.3-2.9 2.1-1.1-.2-1.9-1-2.1-2.1h5zm-6 0c-.2 1.4-1.5 2.3-2.9 2.1-1.1-.2-1.9-1-2.1-2.1h5zm-6.1 0c-.3 1.4-1.6 2.2-3 2-.9-.2-1.6-.8-1.9-1.7v-.3H92zm-5.9 0v.3c-.4 1.3-1.8 2.1-3.2 1.7-.9-.3-1.5-1-1.7-1.9h4.9zm-6 0c-.2 1.4-1.5 2.3-2.9 2.1-1.1-.2-1.9-1-2.1-2.1h5zm-14.6 2c-1.2 0-2.2-.8-2.5-2h5c-.3 1.2-1.3 2-2.5 2zm8.6-2c-.2 1.4-1.5 2.3-2.9 2.1-1.1-.2-1.9-1-2.1-2.1h5zm31 26.7H95V29h10.1v19zm4.7 0h-3.7V28H94v20H69.5V23.6c1.6 1.1 3.8.8 4.9-.8.1-.1.1-.2.2-.3 1 1.7 3.1 2.2 4.8 1.3.5-.3 1-.7 1.3-1.3 1 1.7 3.1 2.3 4.8 1.3.5-.3.9-.7 1.2-1.1 1.1 1.6 3.2 2.1 4.9 1 .5-.3.9-.7 1.1-1.2 1 1.7 3.1 2.3 4.8 1.3.5-.3 1-.8 1.3-1.3 1 1.7 3.1 2.2 4.8 1.3.5-.3 1-.7 1.3-1.3 1 1.7 3.1 2.3 4.8 1.3.1-.1.2-.1.3-.2V48zm-2.5-24.6c-1.1-.2-1.9-1-2.1-2.1h5c-.2 1.3-1.5 2.3-2.9 2.1zm6.5-.1c-1.2 0-2.2-.8-2.5-2h5c-.3 1.2-1.3 2-2.5 2z"/>
    <path class="open fade-out" d="M96 35.7h2v5.1h-2zM74.6992 36.39794l6.15177-6.15177.7071.7071-6.15177 6.15177zM74.40227 33.69827l3.6062-3.6062.7071.7071-3.6062 3.6062z"/>
  </g>
  <g><!--3 open-->
    <path class="open fade-out" d="M133.2 41.3h16.9V28h-16.9v13.3zm.9-12.3h15.1v11.3h-15.1V29z"/>
    <path class="open fade-out" d="M177.8 20.3L171.3 4H129l-6.5 16.3v.5c0 1.9 1.6 3.5 3.5 3.5.7 0 1.5-.2 2.1-.7V48h-3.5v2h51.3v-2h-3.5V23.6c1.6 1.1 3.8.8 4.9-.8.4-.6.7-1.3.7-2.1v-.2l-.2-.2zM130.3 6H170l5 12.6-49.6.1L130.3 6zm34.4 15.3c-.2 1.4-1.5 2.3-2.9 2.1-1.1-.2-1.9-1-2.1-2.1h5zm-6.1 0c-.2 1.4-1.5 2.3-2.9 2.1-1.1-.2-1.9-1-2.1-2.1h5zm-6 0c-.3 1.4-1.6 2.2-3 2-.9-.2-1.6-.8-1.9-1.7v-.3h4.9zm-6 0v.3c-.4 1.3-1.8 2.1-3.2 1.7-.9-.3-1.5-1-1.7-1.9h4.9zm-6 0c-.2 1.4-1.5 2.3-2.9 2.1-1.1-.2-1.9-1-2.1-2.1h5zm-14.6 2c-1.2 0-2.2-.8-2.5-2h5c-.2 1.2-1.3 2-2.5 2zm8.6-2c-.2 1.4-1.5 2.3-2.9 2.1-1.1-.2-1.9-1-2.1-2.1h5zM165.7 48h-10.1V29h10.1v19zm4.7 0h-3.7V28h-12.1v20h-24.5V23.6c1.6 1.1 3.8.8 4.9-.8.1-.1.1-.2.2-.3 1 1.7 3.1 2.2 4.8 1.3.5-.3 1-.7 1.3-1.3 1 1.7 3.1 2.3 4.8 1.3.5-.3.9-.7 1.2-1.1 1.1 1.6 3.2 2.1 4.9 1 .5-.3.9-.7 1.1-1.2 1 1.7 3.1 2.3 4.8 1.3.5-.3 1-.8 1.3-1.3 1 1.7 3.1 2.2 4.8 1.3.5-.3 1-.7 1.3-1.3 1 1.7 3.1 2.3 4.8 1.3.1-.1.2-.1.3-.2V48zm-2.5-24.6c-1.1-.2-1.9-1-2.1-2.1h5c-.2 1.3-1.5 2.3-2.9 2.1zm6.4-.1c-1.2 0-2.2-.8-2.5-2h5c-.2 1.2-1.3 2-2.5 2z"/>
    <path class="open fade-out" d="M156.6 35.7h2v5.1h-2zM135.21785 36.4443l6.15177-6.15178.7071.7071-6.15177 6.15177zM134.99343 33.6758l3.6062-3.6062.7071.7071-3.6062 3.6062z"/>
  </g>



  <g><!--1 closed-->
    <path class="closed fade-in" d="M30.9 28h-1l-1.3-1.3-1.4 1.3H12.1v2.9l-1.5-.5-.6 1.9 2.1.6v8.4h2l1.3 1.3 1.3-1.3h14.2v-2.6l.8.2.6-1.9-1.3-.4-.1-8.6zm-1.8 1h.8v7.3l-6.2-1.9 5.4-5.4zm-16 0h13.1l-4.7 4.7-8.4-2.6V29zm1.8 11.3h-1.8v-7.1l6.8 2.1-5 5zm15 0H17.8l4.3-4.3 7.8 2.4v1.9z"/>
    <path class="closed fade-in" d="M56.6 20.3L50.2 4H7.8L1.4 20.3v.5c0 1.9 1.6 3.5 3.5 3.5.7 0 1.5-.2 2.1-.7V48H3.4v2h51.3v-2h-3.5V23.6c1.6 1.1 3.8.8 4.9-.8.4-.6.7-1.3.7-2.1l-.2-.4zM9.2 6h39.7l5 12.6H4.2L9.2 6zm34.3 15.3c-.2 1.4-1.5 2.3-2.9 2.1-1.1-.2-1.9-1-2.1-2.1h5zm-6 0c-.2 1.4-1.5 2.3-2.9 2.1-1.1-.2-1.9-1-2.1-2.1h5zm-6 0c-.3 1.4-1.6 2.2-3 2-.9-.2-1.6-.8-1.9-1.7v-.3h4.9zm-6 0v.3c-.4 1.3-1.8 2.1-3.2 1.7-.9-.3-1.5-1-1.7-1.9h4.9zm-6 0c-.2 1.4-1.5 2.3-2.9 2.1-1.1-.2-1.9-1-2.1-2.1h5zm-14.6 2c-1.2 0-2.2-.8-2.5-2h5c-.3 1.2-1.3 2-2.5 2zm8.6-2c-.2 1.4-1.5 2.3-2.9 2.1-1.1-.2-1.9-1-2.1-2.1h5zM44.6 48H34.5v-6.4l10.1-8V48zm0-16.9l-10.1 8V29h10.1v2.1zM49.2 48h-3.7V32.9l1.8-1.4-1.2-1.6-.6.5V28h-12v11.9l-1.8 1.4 1.2 1.6.6-.5V48H8.9V23.6c1.6 1.1 3.8.8 4.9-.8.1-.1.1-.2.2-.3 1 1.7 3.1 2.2 4.8 1.3.5-.3 1-.7 1.3-1.3 1 1.7 3.1 2.3 4.8 1.3.5-.3.9-.7 1.2-1.1 1.1 1.6 3.2 2.1 4.9 1 .5-.3.9-.7 1.1-1.2 1 1.7 3.1 2.3 4.8 1.3.5-.3 1-.8 1.3-1.3 1 1.7 3.1 2.2 4.8 1.3.5-.3 1-.7 1.3-1.3 1 1.7 3.1 2.3 4.8 1.3.1-.1.2-.1.3-.2V48zm-2.4-24.6c-1.1-.2-1.9-1-2.1-2.1h5c-.3 1.3-1.6 2.3-2.9 2.1zm6.4-.1c-1.2 0-2.2-.8-2.5-2h5c-.2 1.2-1.3 2-2.5 2z"/>
  </g>
  <g><!--2 closed-->
    <path class="closed fade-in" d="M91.5 28h-1l-1.3-1.3-1.4 1.3H72.7v2.9l-1.5-.5-.6 1.9 2.1.6v8.4h2l1.3 1.3 1.3-1.3h14.2v-2.6l.8.2.6-1.9-1.3-.4-.1-8.6zm-1.9 1h.8v7.3l-6.2-1.9 5.4-5.4zm-15.9 0h13.1l-4.7 4.7-8.4-2.6V29zm1.8 11.3h-1.8v-7.1l6.8 2.1-5 5zm15 0H78.3l4.3-4.3 7.8 2.4.1 1.9z"/>
    <path class="closed fade-in" d="M117.2 20.3L110.8 4H68.4l-6.5 16.3v.5c0 1.9 1.6 3.5 3.5 3.5.7 0 1.5-.2 2.1-.7V48h-3.6v2h51.3v-2h-3.5V23.6c1.6 1.1 3.8.8 4.9-.8.4-.6.7-1.3.7-2.1l-.1-.4zM69.7 6h39.7l5 12.6-49.6.1L69.7 6zm34.4 15.3c-.2 1.4-1.5 2.3-2.9 2.1-1.1-.2-1.9-1-2.1-2.1h5zm-6.1 0c-.2 1.4-1.5 2.3-2.9 2.1-1.1-.2-1.9-1-2.1-2.1h5zm-6 0c-.3 1.4-1.6 2.2-3 2-.9-.2-1.6-.8-1.9-1.7v-.3H92zm-6 0v.3c-.4 1.3-1.8 2.1-3.2 1.7-.9-.3-1.5-1-1.7-1.9H86zm-6 0c-.2 1.4-1.5 2.3-2.9 2.1-1.1-.2-1.9-1-2.1-2.1h5zm-14.6 2c-1.2 0-2.2-.8-2.5-2h5c-.2 1.2-1.3 2-2.5 2zm8.6-2c-.2 1.4-1.5 2.3-2.9 2.1-1.1-.2-1.9-1-2.1-2.1h5zM105.1 48H95v-6.4l10.1-8V48zm0-16.9l-10.1 8V29h10.1v2.1zm4.7 16.9h-3.7V32.9l1.8-1.4-1.2-1.6-.6.5V28H94v11.9l-1.8 1.4 1.2 1.6.6-.5V48H69.5V23.6c1.6 1.1 3.8.8 4.9-.8.1-.1.1-.2.2-.3 1 1.7 3.1 2.2 4.8 1.3.5-.3 1-.7 1.3-1.3 1 1.7 3.1 2.3 4.8 1.3.5-.3.9-.7 1.2-1.1 1.1 1.6 3.2 2.1 4.9 1 .5-.3.9-.7 1.1-1.2 1 1.7 3.1 2.3 4.8 1.3.5-.3 1-.8 1.3-1.3 1 1.7 3.1 2.2 4.8 1.3.5-.3 1-.7 1.3-1.3 1 1.7 3.1 2.3 4.8 1.3.1-.1.2-.1.3-.2V48zm-2.5-24.6c-1.1-.2-1.9-1-2.1-2.1h5c-.2 1.3-1.5 2.3-2.9 2.1zm6.5-.1c-1.2 0-2.2-.8-2.5-2h5c-.2 1.2-1.3 2-2.5 2z"/>
  </g>  
  <g><!--3 closed-->
    <path class="closed fade-in" d="M152 28h-1l-1.3-1.3-1.4 1.3h-15.1v2.9l-1.5-.5-.6 1.9 2.1.6v8.4h2l1.3 1.3 1.3-1.3H152v-2.6l.8.2.6-1.9-1.3-.4-.1-8.6zm-1.8 1h.8v7.3l-6.2-1.9 5.4-5.4zm-16 0h13.1l-4.7 4.7-8.4-2.6V29zm1.8 11.3h-1.8v-7.1l6.8 2.1-5 5zm15 0h-12.1l4.3-4.3 7.8 2.4v1.9z"/>
    <path class="closed fade-in" d="M177.8 20.3L171.4 4H129l-6.5 16.3v.5c0 1.9 1.6 3.5 3.5 3.5.7 0 1.5-.2 2.1-.7V48h-3.5v2h51.3v-2h-3.5V23.6c1.6 1.1 3.8.8 4.9-.8.4-.6.7-1.3.7-2.1l-.2-.4zM130.3 6H170l5 12.6-49.6.1L130.3 6zm34.4 15.3c-.2 1.4-1.5 2.3-2.9 2.1-1.1-.2-1.9-1-2.1-2.1h5zm-6.1 0c-.2 1.4-1.5 2.3-2.9 2.1-1.1-.2-1.9-1-2.1-2.1h5zm-6 0c-.3 1.4-1.6 2.2-3 2-.9-.2-1.6-.8-1.9-1.7v-.3h4.9zm-6 0v.3c-.4 1.3-1.8 2.1-3.2 1.7-.9-.3-1.5-1-1.7-1.9h4.9zm-6 0c-.2 1.4-1.5 2.3-2.9 2.1-1.1-.2-1.9-1-2.1-2.1h5zm-14.6 2c-1.2 0-2.2-.8-2.5-2h5c-.2 1.2-1.3 2-2.5 2zm8.6-2c-.2 1.4-1.5 2.3-2.9 2.1-1.1-.2-1.9-1-2.1-2.1h5zM165.7 48h-10.1v-6.4l10.1-8V48zm0-16.9l-10.1 8V29h10.1v2.1zm4.7 16.9h-3.7V32.9l1.8-1.4-1.2-1.6-.6.5V28h-12.1v11.9l-1.8 1.4 1.2 1.6.6-.5V48H130V23.6c1.6 1.1 3.8.8 4.9-.8.1-.1.1-.2.2-.3 1 1.7 3.1 2.2 4.8 1.3.5-.3 1-.7 1.3-1.3 1 1.7 3.1 2.3 4.8 1.3.5-.3.9-.7 1.2-1.1 1.1 1.6 3.2 2.1 4.9 1 .5-.3.9-.7 1.1-1.2 1 1.7 3.1 2.3 4.8 1.3.5-.3 1-.8 1.3-1.3 1 1.7 3.1 2.2 4.8 1.3.5-.3 1-.7 1.3-1.3 1 1.7 3.1 2.3 4.8 1.3.1-.1.2-.1.3-.2V48zm-2.5-24.6c-1.1-.2-1.9-1-2.1-2.1h5c-.2 1.3-1.5 2.3-2.9 2.1zm6.5-.1c-1.2 0-2.2-.8-2.5-2h5c-.3 1.2-1.3 2-2.5 2z"/>
  </g>


</svg>
