<svg id="Layer_1" data-name="Layer 1" xmlns="http://www.w3.org/2000/svg" viewBox="0 0 385 65">
  <defs>
    <style>
      .closed{
        fill:#FF4900;
        opacity:0;
      }
      .open{
        fill:#216283;
      }

    .fade-in1, .fade-in2, .fade-in3{
      animation-name:aniFadeIn;
      animation-duration:1.5s;
      animation-iteration-count: 1;
      animation-fill-mode: forwards;
      animation-timing-function: ease-out;
    }
    .fade-out1, .fade-out2, .fade-out3{
      animation-name:aniFadeOut;
      animation-duration:2s;
      animation-iteration-count: 1;
      animation-fill-mode: forwards;
      animation-timing-function: ease-out;
    }
    .fade-out1{animation-delay: 2s;}
    .fade-out2{animation-delay: 2.5s;}
    .fade-out3{animation-delay: 3s;}

    .fade-in1{animation-delay: 3s;}
    .fade-in2{animation-delay: 3.5s;}
    .fade-in3{animation-delay: 4s;}

    @keyframes aniFadeIn {
      0%   { opacity:0;}
      100% { opacity:1;}
    }

    @keyframes aniFadeOut {
      0%   { opacity:1;}
      100% { opacity:0;}
    }


    </style>
  </defs>
  <title>
    Stores
  </title>

  <!--closed 1-->
  <path class="closed fade-in3" d="M42.05 49.81H41l-1.31-.62-1.37.62h-15.4l-.65 1.42-1.46-.23-1.12 1 2.08.34-2.3 5h2.45l1.25.9 1.93-.9h17v-1.7l.88.14.63-1.17-1.52-.24zm-18.32.48h13.53l-5.42 2.46-8.59-1.37zm-.58 6.4H21l1.82-4.2 7.08 1.16zm17.77 0H26.5L32.19 54l8.74 1.43zm0-2.49l-6.81-1.08 6-2.82H41z"/>
  <path class="closed fade-in3" d="M66.15 46.49l-.05-.08H66l-8.7-5.59H23.64l-9.18 5.59-.2.12h.11v.06c-.59.81.46 1.5 2.36 1.5a8.45 8.45 0 0 0 2.15-.29l-8.5 14.49H5.61L4.47 64h70.14l-1-1.68H69l-7.37-14.5a8.19 8.19 0 0 0 2.13.29c1.9 0 3-.69 2.48-1.5l-.06-.09zM24.4 41.41h32.09L63 45.73H17.52zm29.54 5.4c-.07.48-.94.86-2.12.86a3.35 3.35 0 0 1-2.56-.86zm-5.72 0c-.14.48-1.07.86-2.25.86a2.92 2.92 0 0 1-2.43-.86zm-5.72 0c-.21.48-1.2.86-2.38.86a2.8 2.8 0 0 1-2.25-.75.79.79 0 0 0 0-.1zm-5.6.1a3.43 3.43 0 0 1-2.42.75c-1.18 0-2.08-.37-2.18-.86h4.58a.65.65 0 0 0 .02.12zm-5.64-.1a3.6 3.6 0 0 1-2.63.86c-1.18 0-2-.37-2.05-.86zm-14.32.86c-1.18 0-1.91-.37-1.8-.86h4.68a4.65 4.65 0 0 1-2.88.86zm8.6-.86a4.1 4.1 0 0 1-2.76.86c-1.18 0-2-.37-1.92-.86zm34.7 15.5h-13.4l-.44-4.71 10.55-4.86zm-3.76-10.93l-10.24 4.55-.54-5.63h10.4zm9.86 10.94h-4.77l-3.7-10 1.66-.76-1.62-.8-.53.24-.38-1.19H44.64l.46 6.62-2.14 1 1.55 1.08.71-.33.29 4.18H13l7.79-14.49a5.23 5.23 0 0 0 1.83.29 7 7 0 0 0 3.27-.76 3.8 3.8 0 0 0 2.64.76 6.28 6.28 0 0 0 3.15-.76 4.28 4.28 0 0 0 2.76.76 5.93 5.93 0 0 0 2.93-.67 5.07 5.07 0 0 0 2.78.67 5.09 5.09 0 0 0 2.85-.81 5.34 5.34 0 0 0 3 .76 4.55 4.55 0 0 0 2.82-.76 5.94 5.94 0 0 0 3.09.76 4 4 0 0 0 2.7-.76 6.59 6.59 0 0 0 3.21.76 5.42 5.42 0 0 0 1.85-.29zm-8.68-14.65a3.83 3.83 0 0 1-2.66-.85h4.68c-.02.48-.83.85-2.02.85zm5.85 0a4.36 4.36 0 0 1-2.82-.86h4.68c.08.49-.68.86-1.86.86z"/>

<!--closed 2-->
  <path class="closed fade-in2" d="M118.51 44.76h-1.16l-1.49-1-1.53 1H97l-.45 2.13-1.68-.35-1 1.47 2.36.5-1.47 7h2.58l1.47 1.2 1.88-1.2h17.94v-2.32l.95.2.68-1.63-1.65-.34zM98 45.5h15.15l-5.81 3.64-9.67-2zm.52 9.16h-2.33l1.17-5.9 7.92 1.67zm18.84 0h-15.29l5.78-3.66 9.51 2zm0-3.45l-7.46-1.55 6.51-4.16h1z"/>
  <path class="closed fade-in2" d="M146.4 39.54v-.13h-.08l-9.22-9.54H96l-9.45 9.54-.19.2h.13v.1c-.43 1.3 1 2.38 3.13 2.38a6.6 6.6 0 0 0 2.38-.45l-5.57 20.31h-4.76L81 64h70.14l-.59-2.05h-4.68l-5-20.27a6.52 6.52 0 0 0 2.37.45c2.17 0 3.59-1.08 3.19-2.38v-.15zM97 30.93h39l6.94 7.37h-53zm35.2 9.14c-.13.77-1.17 1.37-2.53 1.37a3.14 3.14 0 0 1-2.88-1.37zm-6.6 0c-.19.77-1.27 1.37-2.63 1.37a2.91 2.91 0 0 1-2.78-1.37zm-6.6 0c-.24.77-1.37 1.37-2.72 1.37a2.86 2.86 0 0 1-2.61-1.2 1.54 1.54 0 0 0 0-.17zm-6.47.17a3.16 3.16 0 0 1-2.72 1.2c-1.35 0-2.42-.59-2.59-1.37h5.29a1.45 1.45 0 0 0 .03.17zm-6.53-.17a3.22 3.22 0 0 1-2.91 1.37c-1.35 0-2.38-.59-2.5-1.37zm-16.29 1.36c-1.35 0-2.3-.59-2.3-1.37h5.41a3.75 3.75 0 0 1-3.11 1.37zm9.71-1.37a3.48 3.48 0 0 1-3 1.37c-1.35 0-2.34-.59-2.4-1.37zM137 61.95h-13.55l-.31-6.07 11.72-6.77zm-2.51-14.83L123 53.61l-.42-8.12h11.65zm8.68 14.83h-4.83l-2.44-13.47 1.95-1.12-1.68-1.19-.62.35-.32-1.75h-13.81l.38 9.54-2.27 1.29 1.62 1.4.75-.43.21 5.35h-33l5-20.27a4.91 4.91 0 0 0 2.15.45 5.64 5.64 0 0 0 3.6-1.2 4 4 0 0 0 3.15 1.2 5.3 5.3 0 0 0 3.51-1.2 4.27 4.27 0 0 0 3.24 1.2 5.15 5.15 0 0 0 3.31-1.07 4.75 4.75 0 0 0 3.21 1.07 4.67 4.67 0 0 0 3.35-1.2 4.86 4.86 0 0 0 3.4 1.2 4.37 4.37 0 0 0 3.26-1.2 5.19 5.19 0 0 0 3.49 1.2 4.08 4.08 0 0 0 3.18-1.2 5.53 5.53 0 0 0 3.57 1.2 5 5 0 0 0 2.16-.45zm-6.82-20.51a3.39 3.39 0 0 1-3-1.37h5.41c-.02.77-1.02 1.36-2.37 1.36zm6.7 0a3.66 3.66 0 0 1-3.05-1.37h5.41c-.01.77-.97 1.36-2.32 1.36z"/>

  <!--closed 3-->
  <path class="closed fade-in1" d="M195.26 33.9h-1.39l-1.81-1.81-1.81 1.81h-20.72v3.91l-2.05-.63-.8 2.62 2.85.87V52.1h2.78l1.81 1.81 1.81-1.81h19.34v-3.6l1 .32.8-2.62-1.83-.56zm-24.36 1.36h18l-6.46 6.46-11.54-3.5zm2.53 15.46h-2.53v-9.64l9.33 2.84zm20.47 0h-16.6l5.9-5.9 10.7 3.25zm0-5.51l-8.5-2.59 7.37-7.37h1.14z"/>
  <path class="closed fade-in1" d="M230.57 23.57v-.27h-.1L221.63 1h-58l-8.79 22.3v.06l-.16.41h.16V24a4.82 4.82 0 0 0 7.61 3.94v33.32h-4.85V64h70.14v-2.74H223V27.93a4.82 4.82 0 0 0 7.57-3.93v-.3zm-65-19.8h54.24L226.59 21l-67.9.07zm47 20.91a3.46 3.46 0 0 1-6.79 0zm-8.3 0a3.46 3.46 0 0 1-6.79 0zm-8.3 0a3.46 3.46 0 0 1-6.69.35v-.35zm-8.11.35a3.46 3.46 0 0 1-6.69-.35h6.64c-.01.11 0 .22.03.32zm-8.2-.35a3.46 3.46 0 0 1-6.79 0zm-20 2.78a3.47 3.47 0 0 1-3.4-2.78H163a3.47 3.47 0 0 1-3.35 2.77zm11.69-2.78a3.46 3.46 0 0 1-6.79 0zm42.59 36.59h-13.83v-8.69l13.83-10.9zm0-23.07l-13.83 10.9V35.26h13.83zm6.28 23.07h-4.91V40.6l2.5-2-1.69-2.15-.81.64V33.9h-16.56v16.27l-2.5 2 1.69 2.15.81-.64v7.61h-33.58V27.93a4.78 4.78 0 0 0 6.93-1.5 4.79 4.79 0 0 0 8.3 0 4.81 4.81 0 0 0 8.15.26 4.81 4.81 0 0 0 8.15-.26 4.79 4.79 0 0 0 8.3 0 4.79 4.79 0 0 0 8.3 0 4.78 4.78 0 0 0 6.93 1.5zm-2.78-33.81a3.47 3.47 0 0 1-3.4-2.78h6.79a3.47 3.47 0 0 1-3.39 2.77zm8.3 0a3.47 3.47 0 0 1-3.4-2.78h6.79a3.47 3.47 0 0 1-3.4 2.77z"/>


<!--open 1-->
  <path class="open fade-out1" d="M16.53 52.08h23.15V33.87H16.53zm1.23-16.85h20.69v15.49H17.77z"/>
  <path class="open fade-out1" d="M77.48 23.32L68.71 1H10.64l-8.9 22.32V24a4.85 4.85 0 0 0 4.79 4.8 4.55 4.55 0 0 0 2.88-1v33.46H4.62V64h70.26v-2.74h-4.8V27.84a4.8 4.8 0 0 0 6.71-1.1 5.16 5.16 0 0 0 1-2.88v-.26zM12.56 3.74h54.37L73.78 21l-67.93.14zm47 21a3.44 3.44 0 0 1-4 2.88 3.49 3.49 0 0 1-2.88-2.88zm-8.22 0a3.44 3.44 0 0 1-4 2.88 3.49 3.49 0 0 1-2.88-2.88zm-8.35 0a3.56 3.56 0 0 1-4.11 2.74 3.46 3.46 0 0 1-2.6-2.33v-.41zm-8.08 0v.41a3.55 3.55 0 0 1-4.38 2.33 3.46 3.46 0 0 1-2.33-2.6h6.71zm-8.22 0a3.44 3.44 0 0 1-4 2.88 3.49 3.49 0 0 1-2.88-2.88zm-20 2.74a3.51 3.51 0 0 1-3.42-2.74h6.83a3.51 3.51 0 0 1-3.43 2.69zm11.78-2.74a3.44 3.44 0 0 1-4 2.88 3.49 3.49 0 0 1-2.88-2.88zM61 61.26H47.21v-26H61zm6.3 0h-5.02V33.87H45.7v27.39H12.15V27.84a4.8 4.8 0 0 0 6.71-1.1c.14-.14.14-.27.27-.41a4.88 4.88 0 0 0 6.57 1.78 4.45 4.45 0 0 0 1.78-1.78 4.76 4.76 0 0 0 6.57 1.78 5.84 5.84 0 0 0 1.64-1.51 4.84 4.84 0 0 0 6.73 1.4 3.48 3.48 0 0 0 1.51-1.64 4.76 4.76 0 0 0 6.57 1.78 5.53 5.53 0 0 0 1.78-1.78 4.88 4.88 0 0 0 6.57 1.78 4.45 4.45 0 0 0 1.78-1.78 4.76 4.76 0 0 0 6.57 1.78c.14-.14.27-.14.41-.27v33.39zm-3.38-33.69A3.49 3.49 0 0 1 61 24.69h6.85a3.54 3.54 0 0 1-3.93 2.88zm8.9-.14a3.51 3.51 0 0 1-3.42-2.74h6.85a3.51 3.51 0 0 1-3.43 2.74z"/>
  <path class="open fade-out1" d="M48.44 44.42h2.74v7h-2.74zm-29.17 1L27.7 37l1 1-8.43 8.43zM19 41.59l4.94-4.94 1 1L20 42.59z"/>

<!--open 2-->
  <path class="open fade-out2" d="M93 52.08h23.15V33.87H93zm1.23-16.85h20.68v15.49h-20.7z"/>
  <path class="open fade-out2" d="M153.92 23.32L145.16 1H87.09l-8.9 22.32V24A4.85 4.85 0 0 0 83 28.8a4.55 4.55 0 0 0 2.88-1v33.46h-4.82V64h70.26v-2.74h-4.79V27.84a4.8 4.8 0 0 0 6.71-1.1 5.16 5.16 0 0 0 1-2.88v-.26zM89 3.74h54.37L150.22 21l-67.93.14zm47 21a3.44 3.44 0 0 1-4 2.88 3.49 3.49 0 0 1-2.88-2.88zm-8.22 0a3.44 3.44 0 0 1-4 2.88 3.49 3.49 0 0 1-2.88-2.88zm-8.35 0a3.56 3.56 0 0 1-4.11 2.74 3.46 3.46 0 0 1-2.6-2.33v-.41zm-8.08 0v.41a3.55 3.55 0 0 1-4.38 2.33 3.46 3.46 0 0 1-2.33-2.6h6.71zm-8.22 0a3.44 3.44 0 0 1-4 2.88 3.49 3.49 0 0 1-2.88-2.88zm-20 2.74a3.51 3.51 0 0 1-3.42-2.74h6.85a3.51 3.51 0 0 1-3.44 2.69zm11.78-2.74a3.44 3.44 0 0 1-4 2.88A3.49 3.49 0 0 1 88 24.69zm42.59 36.57h-13.84v-26h13.83zm6.3 0h-5.07V33.87h-16.58v27.39H88.59V27.84a4.8 4.8 0 0 0 6.71-1.1c.14-.14.14-.27.27-.41a4.88 4.88 0 0 0 6.57 1.78 4.45 4.45 0 0 0 1.78-1.78 4.76 4.76 0 0 0 6.57 1.78 5.84 5.84 0 0 0 1.64-1.51 4.84 4.84 0 0 0 6.73 1.4 3.48 3.48 0 0 0 1.51-1.64 4.76 4.76 0 0 0 6.57 1.78 5.53 5.53 0 0 0 1.78-1.78 4.88 4.88 0 0 0 6.57 1.78 4.45 4.45 0 0 0 1.78-1.78 4.76 4.76 0 0 0 6.57 1.78c.14-.14.27-.14.41-.27v33.39zm-3.42-33.69a3.49 3.49 0 0 1-2.88-2.88h6.85a3.54 3.54 0 0 1-3.99 2.83zm8.9-.14a3.51 3.51 0 0 1-3.42-2.74h6.85a3.51 3.51 0 0 1-3.44 2.69z"/>
  <path class="open fade-out2" d="M124.89 44.42h2.74v7h-2.74zm-29.17 1l8.42-8.42 1 1-8.43 8.43zm-.3-3.79l4.94-4.94 1 1-4.94 4.94z"/>

<!---open 3-->
  <path class="open fade-out3" d="M169.53 52.08h23.15V33.87h-23.15zm1.23-16.85h20.68v15.49h-20.67z"/>
  <path class="open fade-out3" d="M230.48 23.32L221.71 1h-58.07l-8.9 22.32V24a4.85 4.85 0 0 0 4.79 4.79 4.55 4.55 0 0 0 2.88-1v33.47h-4.79V64h70.26v-2.74h-4.79V27.84a4.8 4.8 0 0 0 6.71-1.1 5.16 5.16 0 0 0 1-2.88v-.26zM165.56 3.74h54.37L226.78 21l-67.93.14zm47 21a3.44 3.44 0 0 1-4 2.88 3.49 3.49 0 0 1-2.88-2.88zm-8.22 0a3.44 3.44 0 0 1-4 2.88 3.49 3.49 0 0 1-2.88-2.88zm-8.35 0a3.56 3.56 0 0 1-4.11 2.74 3.46 3.46 0 0 1-2.6-2.33v-.41zm-8.08 0v.41a3.55 3.55 0 0 1-4.38 2.33 3.46 3.46 0 0 1-2.33-2.6h6.71zm-8.22 0a3.44 3.44 0 0 1-4 2.88 3.49 3.49 0 0 1-2.88-2.88zm-20 2.74a3.51 3.51 0 0 1-3.42-2.74h6.85a3.51 3.51 0 0 1-3.45 2.69zm11.78-2.74a3.44 3.44 0 0 1-4 2.88 3.49 3.49 0 0 1-2.88-2.88zM214 61.26h-13.79v-26H214zm6.3 0h-5.07V33.87H198.7v27.39h-33.55V27.84a4.8 4.8 0 0 0 6.71-1.1c.14-.14.14-.27.27-.41a4.88 4.88 0 0 0 6.57 1.78 4.45 4.45 0 0 0 1.78-1.78 4.76 4.76 0 0 0 6.57 1.78 5.84 5.84 0 0 0 1.64-1.51 4.84 4.84 0 0 0 6.73 1.4 3.48 3.48 0 0 0 1.51-1.64 4.76 4.76 0 0 0 6.57 1.78 5.53 5.53 0 0 0 1.78-1.78 4.88 4.88 0 0 0 6.57 1.78 4.45 4.45 0 0 0 1.78-1.78 4.76 4.76 0 0 0 6.57 1.78c.14-.14.27-.14.41-.27v33.39zm-3.42-33.69a3.49 3.49 0 0 1-2.88-2.88h6.85a3.54 3.54 0 0 1-3.93 2.88zm8.9-.14a3.51 3.51 0 0 1-3.42-2.74h6.85a3.51 3.51 0 0 1-3.39 2.74z"/>
  <path class="open fade-out3" d="M201.44 44.42h2.74v7h-2.74zm-29.17 1L180.7 37l1 1-8.43 8.43zm-.3-3.79l4.94-4.94 1 1-4.94 4.94z"/>


<!--open 5-->
  <path class="open" d="M322.53 52.08h23.15V33.87h-23.15zm1.23-16.85h20.68v15.49h-20.67z"/>
  <path class="open" d="M383.48 23.32L374.71 1h-58.07l-8.9 22.32V24a4.85 4.85 0 0 0 4.79 4.79 4.55 4.55 0 0 0 2.88-1v33.47h-4.79V64h70.26v-2.74h-4.79V27.84a4.8 4.8 0 0 0 6.71-1.1 5.16 5.16 0 0 0 1-2.88v-.26zM318.56 3.74h54.37L379.78 21l-67.93.14zm47 21a3.44 3.44 0 0 1-4 2.88 3.49 3.49 0 0 1-2.88-2.88zm-8.22 0a3.44 3.44 0 0 1-4 2.88 3.49 3.49 0 0 1-2.88-2.88zm-8.35 0a3.56 3.56 0 0 1-4.11 2.74 3.46 3.46 0 0 1-2.6-2.33v-.41zm-8.08 0v.41a3.55 3.55 0 0 1-4.38 2.33 3.46 3.46 0 0 1-2.33-2.6h6.71zm-8.22 0a3.44 3.44 0 0 1-4 2.88 3.49 3.49 0 0 1-2.88-2.88zm-20 2.74a3.51 3.51 0 0 1-3.42-2.74h6.85a3.51 3.51 0 0 1-3.45 2.69zm11.78-2.74a3.44 3.44 0 0 1-4 2.88 3.49 3.49 0 0 1-2.88-2.88zM367 61.26h-13.79v-26H367zm6.3 0h-5.07V33.87H351.7v27.39h-33.55V27.84a4.8 4.8 0 0 0 6.71-1.1c.14-.14.14-.27.27-.41a4.88 4.88 0 0 0 6.57 1.78 4.45 4.45 0 0 0 1.78-1.78 4.76 4.76 0 0 0 6.57 1.78 5.84 5.84 0 0 0 1.64-1.51 4.84 4.84 0 0 0 6.73 1.4 3.48 3.48 0 0 0 1.51-1.64 4.76 4.76 0 0 0 6.57 1.78 5.53 5.53 0 0 0 1.78-1.78 4.88 4.88 0 0 0 6.57 1.78 4.45 4.45 0 0 0 1.78-1.78 4.76 4.76 0 0 0 6.57 1.78c.14-.14.27-.14.41-.27v33.39zm-3.42-33.69a3.49 3.49 0 0 1-2.88-2.88h6.85a3.54 3.54 0 0 1-3.93 2.88zm8.9-.14a3.51 3.51 0 0 1-3.42-2.74h6.85a3.51 3.51 0 0 1-3.39 2.74z"/>
  <path class="open" d="M354.44 44.42h2.74v7h-2.74zm-29.17 1L333.7 37l1 1-8.43 8.43zm-.3-3.79l4.94-4.94 1 1-4.94 4.94z"/>
<!--open 4-->
  <path class="open" d="M246 52.08h23.15V33.87H246zm1.23-16.85h20.68v15.49h-20.7z"/>
  <path class="open" d="M306.92 23.32L298.16 1h-58.07l-8.9 22.32V24a4.85 4.85 0 0 0 4.81 4.8 4.55 4.55 0 0 0 2.88-1v33.46h-4.79V64h70.26v-2.74h-4.79V27.84a4.8 4.8 0 0 0 6.71-1.1 5.16 5.16 0 0 0 1-2.88v-.26zM242 3.74h54.37L303.22 21l-67.93.14zm47 21a3.44 3.44 0 0 1-4 2.88 3.49 3.49 0 0 1-2.88-2.88zm-8.22 0a3.44 3.44 0 0 1-4 2.88 3.49 3.49 0 0 1-2.88-2.88zm-8.35 0a3.56 3.56 0 0 1-4.11 2.74 3.46 3.46 0 0 1-2.6-2.33v-.41zm-8.08 0v.41a3.55 3.55 0 0 1-4.38 2.33 3.46 3.46 0 0 1-2.33-2.6h6.71zm-8.22 0a3.44 3.44 0 0 1-4 2.88 3.49 3.49 0 0 1-2.88-2.88zm-20 2.74a3.51 3.51 0 0 1-3.42-2.74h6.85a3.51 3.51 0 0 1-3.44 2.69zm11.78-2.74a3.44 3.44 0 0 1-4 2.88 3.49 3.49 0 0 1-2.91-2.93zm42.59 36.57h-13.84v-26h13.83zm6.3 0h-5.07V33.87h-16.58v27.39h-33.56V27.84a4.8 4.8 0 0 0 6.71-1.1c.14-.14.14-.27.27-.41a4.88 4.88 0 0 0 6.57 1.78 4.45 4.45 0 0 0 1.78-1.78 4.76 4.76 0 0 0 6.57 1.78 5.84 5.84 0 0 0 1.64-1.51 4.84 4.84 0 0 0 6.73 1.4 3.48 3.48 0 0 0 1.51-1.64 4.76 4.76 0 0 0 6.57 1.78 5.53 5.53 0 0 0 1.78-1.78 4.88 4.88 0 0 0 6.57 1.78 4.45 4.45 0 0 0 1.78-1.78 4.76 4.76 0 0 0 6.57 1.78c.14-.14.27-.14.41-.27v33.39zm-3.42-33.69a3.49 3.49 0 0 1-2.88-2.88h6.85a3.54 3.54 0 0 1-3.99 2.83zm8.9-.14a3.51 3.51 0 0 1-3.42-2.74h6.85a3.51 3.51 0 0 1-3.44 2.69z"/>
  <path class="open" d="M277.89 44.42h2.74v7h-2.74zm-29.17 1l8.42-8.42 1 1-8.43 8.43zm-.3-3.79l4.94-4.94 1 1-4.94 4.94z"/>
</svg>
