<!-- Generated by IcoMoon.io -->
<svg version="1.1" xmlns="http://www.w3.org/2000/svg" width="1024" height="1024" viewBox="0 0 1024 1024">
<title></title>
<style>
path{fill:#FFFFFF;}
</style>
<g id="icomoon-ignore">
</g>
<path d="M512 735.573c-0.073 0-0.16 0.001-0.247 0.001-11.721 0-22.338-4.726-30.049-12.377l0.003 0.003-361.813-362.24c-9.153-7.872-14.914-19.467-14.914-32.407 0-23.564 19.103-42.667 42.667-42.667 12.94 0 24.535 5.761 32.36 14.858l0.047 0.056 331.947 331.947 331.947-331.947c7.872-9.153 19.467-14.914 32.407-14.914 23.564 0 42.667 19.103 42.667 42.667 0 12.94-5.761 24.535-14.858 32.36l-0.056 0.047-362.24 362.24c-7.667 7.606-18.211 12.323-29.857 12.373h-0.010z"></path>
</svg>
