<?xml version="1.0" encoding="utf-8"?>
<!-- Generator: Adobe Illustrator 21.1.0, SVG Export Plug-In . SVG Version: 6.00 Build 0)  -->
<svg version="1.1" id="Layer_1" xmlns="http://www.w3.org/2000/svg" xmlns:xlink="http://www.w3.org/1999/xlink" x="0px" y="0px"
	 viewBox="0 0 1200 248" style="enable-background:new 0 0 1200 248;" xml:space="preserve">
<style type="text/css">
	.st0{fill:#C8DFEE;}
	.st1{fill:none;stroke:#828588;stroke-miterlimit:10;}
	.st2{fill:#9EC8E2;}
	.st3{fill:#82B6D8;}
	.st4{fill:none;stroke:#828588;stroke-linecap:round;stroke-linejoin:round;stroke-miterlimit:10;}
	.st5{fill:#68A7D1;}
	.st6{fill:none;stroke:#39B55A;stroke-linecap:round;stroke-linejoin:round;stroke-miterlimit:10;}
	.st7{fill:none;stroke:#39B55A;stroke-miterlimit:10;}
	.st8{fill:#39B55A;}
	.st9{fill:#FFFFFF;}
	.st10{fill:#BB2C2E;}
	.st11{fill:#FFFFFF;stroke:#2B80BC;stroke-linecap:round;stroke-linejoin:round;stroke-miterlimit:10;}
	.st12{fill:#2B80BC;}
	.st13{fill:#828588;}
</style>
<g>
	<path class="st0" d="M641,187.2c27,0,48.9-21.9,48.9-48.9c0-25.9-20.1-47-45.5-48.7C635.4,57,605.5,33,570.1,33
		c-24.1,0-45.6,11.1-59.7,28.4c-4.3-1.6-8.9-2.6-13.7-2.6c-21.1,0-38.1,17.1-38.1,38.1c0,0.9,0.1,1.8,0.1,2.8
		c-20.2,4.1-35.3,21.9-35.3,43.3c0,24.4,19.8,44.2,44.2,44.2H641z"/>
</g>
<line class="st1" x1="393" y1="110.1" x2="462" y2="110.1"/>
<g>
	<g>
		<g>
			<path class="st2" d="M654.9,187.2c27,0,48.9-21.9,48.9-48.9c0-25.9-20.1-47-45.5-48.7C649.3,57,619.4,33,584,33
				c-24.1,0-45.6,11.1-59.7,28.4c-4.3-1.6-8.9-2.6-13.7-2.6c-21.1,0-38.1,17.1-38.1,38.1c0,0.9,0.1,1.8,0.1,2.8
				c-20.2,4.1-35.3,21.9-35.3,43.3c0,24.4,19.8,44.2,44.2,44.2H654.9z"/>
		</g>
	</g>
</g>
<line class="st1" x1="353.9" y1="84.1" x2="522.3" y2="84.1"/>
<g>
	<g>
		<g>
			<path class="st3" d="M668.8,187.2c27,0,48.9-21.9,48.9-48.9c0-25.9-20.1-47-45.5-48.7C663.1,57,633.3,33,597.8,33
				c-24.1,0-45.6,11.1-59.7,28.4c-4.3-1.6-8.9-2.6-13.7-2.6c-21.1,0-38.1,17.1-38.1,38.1c0,0.9,0.1,1.8,0.1,2.8
				c-20.2,4.1-35.3,21.9-35.3,43.3c0,24.4,19.8,44.2,44.2,44.2H668.8z"/>
		</g>
	</g>
</g>
<line class="st4" x1="291.4" y1="97.1" x2="680.7" y2="97.1"/>
<g>
	<g>
		<g>
			<path class="st5" d="M682.6,187.2c27,0,48.9-21.9,48.9-48.9c0-25.9-20.1-47-45.5-48.7C677,57,647.2,33,611.7,33
				c-24.1,0-45.6,11.1-59.7,28.4c-4.3-1.6-8.9-2.6-13.7-2.6c-21.1,0-38.1,17.1-38.1,38.1c0,0.9,0.1,1.8,0.1,2.8
				c-20.2,4.1-35.3,21.9-35.3,43.3c0,24.4,19.8,44.2,44.2,44.2H682.6z"/>
		</g>
	</g>
</g>
<g>
	<g>
		<g>
			<path class="st4" d="M898.6,166.8V41.7c0-12.9,10.4-23.3,23.3-23.3h163.4c12.9,0,23.3,10.4,23.3,23.3v125.1"/>
			<path class="st4" d="M898.6,65.1"/>
			<path class="st4" d="M1108.6,65.1"/>
		</g>
		<g>
			<path class="st4" d="M1108.6,201.8h-210c-12.9,0-23.3-10.4-23.3-23.3v-11.7H1132v11.7C1132,191.4,1121.5,201.8,1108.6,201.8z"/>
		</g>
	</g>
	<path class="st4" d="M962.8,45.9"/>
	<path class="st4" d="M1003.6,137.8c-43.8-21.9-46.7-64.9-46.7-64.9v-27h93.4v27C1050.3,72.9,1047.4,115.9,1003.6,137.8z"/>
</g>
<line class="st1" x1="288.4" y1="84.1" x2="348.2" y2="84.1"/>
<line class="st1" x1="292.5" y1="110.1" x2="387.2" y2="110.1"/>
<line class="st4" x1="288.4" y1="136.1" x2="700.7" y2="136.1"/>
<line class="st4" x1="291.4" y1="123.1" x2="700.7" y2="123.1"/>
<line class="st6" x1="657.9" y1="97.1" x2="756.6" y2="97.1"/>
<line class="st7" x1="771.6" y1="97.1" x2="898.6" y2="97.1"/>
<line class="st7" x1="654.9" y1="136.1" x2="797.8" y2="136.1"/>
<line class="st7" x1="812.8" y1="136.1" x2="898.6" y2="136.1"/>
<line class="st7" x1="889" y1="123.1" x2="898.6" y2="123.1"/>
<line class="st7" x1="657.9" y1="123.1" x2="874.8" y2="123.1"/>
<g>
	<path class="st8" d="M769.1,91.9h-0.6v-2.2c0-1.8-1.5-3.4-3.4-3.4H763c-1.8,0-3.4,1.5-3.4,3.4v2.2H759c-1.4,0-2.5,1.1-2.5,2.5v5.9
		c0,1.4,1.1,2.5,2.5,2.5h10c1.4,0,2.5-1.1,2.5-2.5v-5.9C771.6,93,770.5,91.9,769.1,91.9z M760.7,89.7c0-1.3,1.1-2.4,2.4-2.4h2.1
		c1.3,0,2.4,1.1,2.4,2.4v2.2h-6.8v-2.2H760.7z M770.6,100.3c0,0.8-0.7,1.5-1.5,1.5h-10c-0.8,0-1.5-0.7-1.5-1.5v-5.9
		c0-0.8,0.7-1.5,1.5-1.5h10c0.8,0,1.5,0.7,1.5,1.5V100.3z"/>
	<path class="st8" d="M764.1,94.5c-0.8,0-1.5,0.7-1.5,1.5c0,0.7,0.4,1.2,1,1.4V99c0,0.3,0.2,0.5,0.5,0.5s0.5-0.2,0.5-0.5v-1.6
		c0.6-0.2,1-0.8,1-1.4C765.6,95.2,764.9,94.5,764.1,94.5z M764.1,96.5c-0.3,0-0.5-0.2-0.5-0.5s0.2-0.5,0.5-0.5s0.5,0.2,0.5,0.5
		S764.4,96.5,764.1,96.5z"/>
</g>
<g>
	<path class="st8" d="M886.5,117.6h-0.6v-2.2c0-1.8-1.5-3.4-3.4-3.4h-2.1c-1.8,0-3.4,1.5-3.4,3.4v2.2h-0.6c-1.4,0-2.5,1.1-2.5,2.5
		v5.9c0,1.4,1.1,2.5,2.5,2.5h10c1.4,0,2.5-1.1,2.5-2.5v-5.9C889,118.7,887.9,117.6,886.5,117.6z M878.1,115.4c0-1.3,1.1-2.4,2.4-2.4
		h2.1c1.3,0,2.4,1.1,2.4,2.4v2.2h-6.8v-2.2H878.1z M888,125.9c0,0.8-0.7,1.5-1.5,1.5h-10c-0.8,0-1.5-0.7-1.5-1.5V120
		c0-0.8,0.7-1.5,1.5-1.5h10c0.8,0,1.5,0.7,1.5,1.5V125.9z"/>
	<path class="st8" d="M881.5,120.2c-0.8,0-1.5,0.7-1.5,1.5c0,0.7,0.4,1.2,1,1.4v1.6c0,0.3,0.2,0.5,0.5,0.5s0.5-0.2,0.5-0.5v-1.6
		c0.6-0.2,1-0.8,1-1.4C883,120.9,882.3,120.2,881.5,120.2z M881.5,122.2c-0.3,0-0.5-0.2-0.5-0.5s0.2-0.5,0.5-0.5s0.5,0.2,0.5,0.5
		S881.8,122.2,881.5,122.2z"/>
</g>
<g>
	<path class="st8" d="M810.3,132.1h-0.6v-2.2c0-1.8-1.5-3.4-3.4-3.4h-2.1c-1.8,0-3.4,1.5-3.4,3.4v2.2h-0.6c-1.4,0-2.5,1.1-2.5,2.5
		v5.9c0,1.4,1.1,2.5,2.5,2.5h10c1.4,0,2.5-1.1,2.5-2.5v-5.9C812.8,133.2,811.6,132.1,810.3,132.1z M801.8,129.9
		c0-1.3,1.1-2.4,2.4-2.4h2.1c1.3,0,2.4,1.1,2.4,2.4v2.2h-6.8v-2.2H801.8z M811.8,140.4c0,0.8-0.7,1.5-1.5,1.5h-10
		c-0.8,0-1.5-0.7-1.5-1.5v-5.9c0-0.8,0.7-1.5,1.5-1.5h10c0.8,0,1.5,0.7,1.5,1.5V140.4z"/>
	<path class="st8" d="M805.3,134.7c-0.8,0-1.5,0.7-1.5,1.5c0,0.7,0.4,1.2,1,1.4v1.6c0,0.3,0.2,0.5,0.5,0.5s0.5-0.2,0.5-0.5v-1.6
		c0.6-0.2,1-0.8,1-1.4C806.8,135.4,806.1,134.7,805.3,134.7z M805.3,136.7c-0.3,0-0.5-0.2-0.5-0.5s0.2-0.5,0.5-0.5s0.5,0.2,0.5,0.5
		S805.5,136.7,805.3,136.7z"/>
</g>
<g>
	<g>
		<rect x="343.6" y="77.1" class="st9" width="13.9" height="13.9"/>
		<path class="st10" d="M357,77.6v12.9h-12.9V77.6H357 M358,76.6h-14.9v14.9H358V76.6L358,76.6z"/>
	</g>
	<g>
		<path class="st10" d="M350.5,88.9c-0.3,0-0.5-0.1-0.7-0.3c-0.2-0.2-0.3-0.4-0.3-0.7s0.1-0.5,0.3-0.7c0.4-0.4,1.1-0.4,1.4,0
			c0.2,0.2,0.3,0.4,0.3,0.7s-0.1,0.5-0.3,0.7C351.1,88.8,350.8,88.9,350.5,88.9z"/>
		<g>
			<path class="st10" d="M351.6,80.5l-0.4,3.6c0,0.4-0.3,0.6-0.7,0.6c-0.3,0-0.6-0.3-0.6-0.6l-0.4-3.7c0-0.6,0.4-1.1,1-1.1
				s1.1,0.4,1.1,1C351.6,80.4,351.6,80.4,351.6,80.5z"/>
		</g>
	</g>
</g>
<g>
	<g>
		<rect x="383.4" y="103.5" class="st9" width="13.2" height="13.2"/>
		<path class="st10" d="M396.2,104v12.2H384V104H396.2 M397.2,103H383v14.2h14.2V103L397.2,103z"/>
	</g>
	<g>
		<path class="st10" d="M390,114.7c-0.3,0-0.5-0.1-0.7-0.3c-0.2-0.2-0.3-0.4-0.3-0.7c0-0.3,0.1-0.5,0.3-0.7c0.4-0.4,1-0.4,1.4,0
			c0.2,0.2,0.3,0.4,0.3,0.7c0,0.3-0.1,0.5-0.3,0.7C390.6,114.6,390.3,114.7,390,114.7z"/>
		<g>
			<path class="st10" d="M391.1,106.7l-0.4,3.5c0,0.4-0.3,0.6-0.7,0.6c-0.3,0-0.6-0.3-0.6-0.6l-0.4-3.5c0-0.6,0.4-1,0.9-1.1
				c0.6,0,1,0.4,1.1,0.9C391.1,106.6,391.1,106.6,391.1,106.7z"/>
		</g>
	</g>
</g>
<g>
	<g>
		<g>
			<path class="st11" d="M696.5,187.2c27,0,48.9-21.9,48.9-48.9c0-25.9-20.1-47-45.5-48.7C690.9,57,661,33,625.6,33
				c-24.1,0-45.6,11.1-59.7,28.4c-4.3-1.6-8.9-2.6-13.7-2.6C531.1,58.9,514,75.9,514,97c0,0.9,0.1,1.8,0.1,2.8
				c-20.2,4.1-35.3,21.9-35.3,43.3c0,24.4,19.8,44.2,44.2,44.2h173.5V187.2z"/>
		</g>
	</g>
</g>
<g>
	<g>
		<g>
			<path class="st12" d="M596.1,100.2v6.1h14.8v41.3c0,1.7,1.4,3,3,3l0,0c1.7,0,3-1.4,3-3v-47.4
				C616.9,100.2,596.1,100.2,596.1,100.2z"/>
		</g>
		<g>
			<path class="st12" d="M625.8,138.7h6.1v-32.6h20.4c1.7,0,3-1.4,3-3l0,0c0-1.7-1.4-3-3-3h-26.5V138.7z"/>
		</g>
		<g>
			<path class="st12" d="M646.5,88h-56.6c-1.7,0-3,1.4-3,3l0,0c0,1.7,1.4,3,3,3h56.6V88z"/>
		</g>
	</g>
</g>
<g>
	<path class="st13" d="M163.5,226v-9.4h0.8v9.4H163.5z"/>
	<path class="st13" d="M169.3,226v-9.4h0.9l5.2,8l0.3,0.5c0-1.3,0-2.1,0-2.4v-6h0.8v9.4h-1l-5.2-8l-0.3-0.5c0,1,0.1,1.8,0.1,2.5v6
		H169.3z"/>
	<path class="st13" d="M183.2,226v-8.7h-3v-0.7h6.8v0.7h-3v8.7H183.2z"/>
	<path class="st13" d="M190.8,226v-9.4h5.3l0,0.7h-4.4v3.6h4.2v0.7h-4.2v3.8h4.6l-0.1,0.7H190.8z"/>
	<path class="st13" d="M200.7,226v-9.4h2.7c0.3,0,0.6,0,0.9,0c0.3,0,0.5,0,0.8,0.1s0.5,0.1,0.7,0.2c0.2,0.1,0.4,0.2,0.5,0.3
		c0.2,0.1,0.3,0.3,0.4,0.4s0.2,0.4,0.2,0.6c0.1,0.2,0.1,0.5,0.1,0.8c0,0.6-0.1,1.1-0.4,1.5c-0.3,0.4-0.7,0.7-1.3,0.8
		c0.3,0.5,0.4,0.9,0.6,1.2l1.5,3.5h-0.9l-1.3-3.2c-0.1-0.2-0.3-0.7-0.6-1.4c-0.1,0-0.4,0-0.9,0l-2,0v4.6H200.7z M203.9,220.7
		c0.8,0,1.4-0.1,1.8-0.4s0.5-0.7,0.5-1.4c0-0.5-0.2-1-0.5-1.3c-0.3-0.3-0.8-0.4-1.5-0.4h-2.7v3.5
		C202.5,220.7,203.3,220.7,203.9,220.7z"/>
	<path class="st13" d="M211.7,226v-9.4h0.9l5.2,8l0.3,0.5c0-1.3,0-2.1,0-2.4v-6h0.8v9.4h-1l-5.2-8l-0.3-0.5c0,1,0.1,1.8,0.1,2.5v6
		H211.7z"/>
	<path class="st13" d="M223.9,226v-9.4h5.3l0,0.7h-4.4v3.6h4.2v0.7h-4.2v3.8h4.6l-0.1,0.7H223.9z"/>
	<path class="st13" d="M235.6,226v-8.7h-3v-0.7h6.8v0.7h-3v8.7H235.6z"/>
</g>
<g>
	<path class="st13" d="M517.9,226v-8.7h-3v-0.7h6.8v0.7h-3v8.7H517.9z"/>
	<path class="st13" d="M529.3,226.1c-0.7,0-1.4-0.1-1.9-0.4c-0.6-0.2-1-0.6-1.4-1c-0.4-0.4-0.6-0.9-0.8-1.5c-0.2-0.6-0.3-1.2-0.3-2
		c0-1.5,0.4-2.7,1.2-3.6c0.8-0.9,1.9-1.3,3.3-1.3c1.4,0,2.5,0.4,3.2,1.3s1.2,2.1,1.2,3.6c0,0.7-0.1,1.3-0.3,1.9
		c-0.2,0.6-0.5,1.1-0.8,1.5c-0.4,0.4-0.8,0.8-1.4,1C530.7,226,530.1,226.1,529.3,226.1z M529.3,225.5c0.8,0,1.4-0.2,2-0.5
		c0.5-0.4,0.9-0.8,1.2-1.5c0.2-0.6,0.4-1.4,0.4-2.2c0-1.3-0.3-2.4-0.9-3.1s-1.5-1.1-2.6-1.1c-1.2,0-2,0.4-2.6,1.1
		c-0.6,0.7-0.9,1.8-0.9,3.1c0,1.3,0.3,2.3,0.9,3.1C527.3,225.1,528.2,225.5,529.3,225.5z"/>
	<path class="st13" d="M538.3,226v-9.4h2.6c0.8,0,1.5,0.1,2.1,0.3c0.6,0.2,1.1,0.5,1.6,0.8c0.4,0.4,0.8,0.9,1,1.5s0.4,1.3,0.4,2.1
		c0,1.5-0.4,2.7-1.3,3.5c-0.9,0.8-2,1.2-3.6,1.2H538.3z M539.1,225.3h1.9c1.3,0,2.3-0.3,3-1c0.7-0.7,1-1.7,1-3
		c0-0.7-0.1-1.4-0.3-1.9c-0.2-0.5-0.5-1-0.8-1.3s-0.8-0.6-1.3-0.7s-1.1-0.2-1.8-0.2h-1.7V225.3z"/>
	<path class="st13" d="M552.1,226v-3.7l-3.1-5.7h0.9l2.7,5l2.8-5h0.9l-3.4,5.7v3.8H552.1z"/>
	<path class="st13" d="M560.1,226v-9.4h0.8v8.7h4.2l0,0.7H560.1z"/>
	<path class="st13" d="M578.6,226.1c-0.6,0-1.1-0.1-1.6-0.2c-0.5-0.2-0.9-0.4-1.3-0.7c-0.4-0.3-0.6-0.6-0.9-1
		c-0.2-0.4-0.4-0.8-0.5-1.3c-0.1-0.5-0.2-1-0.2-1.5c0-1,0.2-1.8,0.5-2.5s0.9-1.3,1.6-1.7c0.7-0.4,1.5-0.6,2.5-0.6
		c1.1,0,2,0.2,2.8,0.7l-0.4,0.7c-0.3-0.2-0.7-0.4-1.2-0.5c-0.4-0.1-0.9-0.2-1.3-0.2c-0.6,0-1.2,0.1-1.7,0.3
		c-0.5,0.2-0.9,0.5-1.2,0.9c-0.3,0.4-0.5,0.8-0.7,1.3c-0.2,0.5-0.2,1.1-0.2,1.6c0,0.6,0.1,1.2,0.2,1.7s0.4,0.9,0.7,1.3
		s0.7,0.7,1.2,0.9s1.1,0.3,1.7,0.3c0.7,0,1.4-0.2,2.2-0.5v-3h-2.3l0.1-0.7h3v4.2c-0.5,0.3-1,0.5-1.5,0.6
		C579.9,226.1,579.3,226.1,578.6,226.1z"/>
	<path class="st13" d="M589.8,226.1c-0.6,0-1.1-0.1-1.6-0.2s-0.8-0.4-1.1-0.7s-0.5-0.7-0.6-1.1s-0.2-0.9-0.2-1.4v-6.2h0.8v6.3
		c0,0.9,0.2,1.6,0.7,2s1.1,0.7,2,0.7c1.8,0,2.6-0.9,2.6-2.7v-6.3h0.8v6.2c0,0.4,0,0.8-0.1,1.1c-0.1,0.3-0.2,0.7-0.4,0.9
		s-0.4,0.5-0.7,0.7c-0.3,0.2-0.6,0.3-1,0.5C590.7,226.1,590.3,226.1,589.8,226.1z"/>
	<path class="st13" d="M596.8,226l3.7-9.4h0.8l3.6,9.4H604l-1.2-3.2h-3.9l-1.3,3.2H596.8z M599.2,222.2h3.3c-1-2.7-1.5-4.3-1.6-4.8
		c-0.1,0.2-0.2,0.7-0.5,1.5c-0.3,0.8-0.6,1.6-0.8,2.3L599.2,222.2z"/>
	<path class="st13" d="M608.7,226v-9.4h2.7c0.3,0,0.6,0,0.9,0c0.3,0,0.5,0,0.8,0.1c0.3,0,0.5,0.1,0.7,0.2c0.2,0.1,0.4,0.2,0.5,0.3
		c0.2,0.1,0.3,0.3,0.4,0.4s0.2,0.4,0.2,0.6c0.1,0.2,0.1,0.5,0.1,0.8c0,0.6-0.1,1.1-0.4,1.5c-0.3,0.4-0.7,0.7-1.3,0.8
		c0.3,0.5,0.4,0.9,0.6,1.2l1.5,3.5h-0.9l-1.3-3.2c-0.1-0.2-0.3-0.7-0.6-1.4c-0.1,0-0.4,0-0.9,0l-2,0v4.6H608.7z M611.9,220.7
		c0.8,0,1.4-0.1,1.8-0.4c0.3-0.3,0.5-0.7,0.5-1.4c0-0.5-0.2-1-0.5-1.3c-0.3-0.3-0.8-0.4-1.5-0.4h-2.7v3.5
		C610.5,220.7,611.3,220.7,611.9,220.7z"/>
	<path class="st13" d="M619.7,226v-9.4h2.6c0.8,0,1.5,0.1,2.1,0.3c0.6,0.2,1.1,0.5,1.6,0.8c0.4,0.4,0.8,0.9,1,1.5s0.4,1.3,0.4,2.1
		c0,1.5-0.4,2.7-1.3,3.5c-0.9,0.8-2,1.2-3.6,1.2H619.7z M620.5,225.3h1.9c1.3,0,2.3-0.3,3-1c0.7-0.7,1-1.7,1-3
		c0-0.7-0.1-1.4-0.3-1.9c-0.2-0.5-0.5-1-0.8-1.3c-0.4-0.3-0.8-0.6-1.3-0.7s-1.1-0.2-1.8-0.2h-1.7V225.3z"/>
	<path class="st13" d="M631.9,226v-9.4h0.8v9.4H631.9z"/>
	<path class="st13" d="M636.6,226l3.7-9.4h0.8l3.6,9.4h-0.8l-1.2-3.2h-3.9l-1.3,3.2H636.6z M638.9,222.2h3.3c-1-2.7-1.5-4.3-1.6-4.8
		c-0.1,0.2-0.2,0.7-0.5,1.5c-0.3,0.8-0.6,1.6-0.8,2.3L638.9,222.2z"/>
	<path class="st13" d="M648.4,226v-9.4h0.9l5.2,8l0.3,0.5c0-1.3,0-2.1,0-2.4v-6h0.8v9.4h-1l-5.2-8l-0.3-0.5c0,1,0.1,1.8,0.1,2.5v6
		H648.4z"/>
	<path class="st13" d="M670,226.1c-0.7,0-1.4-0.1-1.9-0.4c-0.6-0.2-1-0.6-1.4-1s-0.6-1-0.8-1.5c-0.2-0.6-0.3-1.2-0.3-1.9
		c0-0.9,0.2-1.8,0.5-2.5s0.9-1.3,1.5-1.7s1.5-0.6,2.4-0.6c1,0,1.9,0.2,2.6,0.6l-0.4,0.6c-0.7-0.4-1.4-0.6-2.2-0.6
		c-0.6,0-1.1,0.1-1.6,0.3c-0.5,0.2-0.8,0.5-1.1,0.9c-0.3,0.4-0.5,0.8-0.7,1.3c-0.2,0.5-0.2,1.1-0.2,1.7c0,0.6,0.1,1.1,0.2,1.6
		s0.4,0.9,0.6,1.3c0.3,0.4,0.7,0.7,1.1,0.9c0.5,0.2,1,0.3,1.6,0.3c0.7,0,1.4-0.2,2.2-0.6l0.2,0.7C671.9,226,671.1,226.1,670,226.1z"
		/>
	<path class="st13" d="M676.8,226v-9.4h0.8v8.7h4.2l0,0.7H676.8z"/>
	<path class="st13" d="M689.8,226.1c-0.7,0-1.4-0.1-1.9-0.4c-0.6-0.2-1-0.6-1.4-1c-0.4-0.4-0.6-0.9-0.8-1.5c-0.2-0.6-0.3-1.2-0.3-2
		c0-1.5,0.4-2.7,1.2-3.6c0.8-0.9,1.9-1.3,3.3-1.3c1.4,0,2.5,0.4,3.2,1.3s1.2,2.1,1.2,3.6c0,0.7-0.1,1.3-0.3,1.9
		c-0.2,0.6-0.5,1.1-0.8,1.5c-0.4,0.4-0.8,0.8-1.4,1C691.1,226,690.5,226.1,689.8,226.1z M689.8,225.5c0.8,0,1.4-0.2,2-0.5
		c0.5-0.4,0.9-0.8,1.2-1.5c0.2-0.6,0.4-1.4,0.4-2.2c0-1.3-0.3-2.4-0.9-3.1c-0.6-0.7-1.5-1.1-2.6-1.1c-1.2,0-2,0.4-2.6,1.1
		c-0.6,0.7-0.9,1.8-0.9,3.1c0,1.3,0.3,2.3,0.9,3.1S688.6,225.5,689.8,225.5z"/>
	<path class="st13" d="M701.9,226.1c-0.6,0-1.1-0.1-1.6-0.2c-0.4-0.2-0.8-0.4-1.1-0.7s-0.5-0.7-0.6-1.1s-0.2-0.9-0.2-1.4v-6.2h0.8
		v6.3c0,0.9,0.2,1.6,0.7,2s1.1,0.7,2,0.7c1.8,0,2.6-0.9,2.6-2.7v-6.3h0.8v6.2c0,0.4,0,0.8-0.1,1.1c-0.1,0.3-0.2,0.7-0.4,0.9
		s-0.4,0.5-0.7,0.7c-0.3,0.2-0.6,0.3-1,0.5C702.9,226.1,702.4,226.1,701.9,226.1z"/>
	<path class="st13" d="M710.2,226v-9.4h2.6c0.8,0,1.5,0.1,2.1,0.3c0.6,0.2,1.1,0.5,1.6,0.8c0.4,0.4,0.8,0.9,1,1.5s0.4,1.3,0.4,2.1
		c0,1.5-0.4,2.7-1.3,3.5c-0.9,0.8-2,1.2-3.6,1.2H710.2z M711,225.3h1.9c1.3,0,2.3-0.3,3-1c0.7-0.7,1-1.7,1-3c0-0.7-0.1-1.4-0.3-1.9
		c-0.2-0.5-0.5-1-0.8-1.3c-0.4-0.3-0.8-0.6-1.3-0.7s-1.1-0.2-1.8-0.2H711V225.3z"/>
</g>
<g>
	<path class="st13" d="M948.1,226v-3.7l-3.1-5.7h0.9l2.7,5l2.8-5h0.9l-3.4,5.7v3.8H948.1z"/>
	<path class="st13" d="M959.9,226.1c-0.7,0-1.4-0.1-1.9-0.4c-0.6-0.2-1-0.6-1.4-1c-0.4-0.4-0.6-0.9-0.8-1.5c-0.2-0.6-0.3-1.2-0.3-2
		c0-1.5,0.4-2.7,1.2-3.6s1.9-1.3,3.3-1.3c1.4,0,2.5,0.4,3.2,1.3s1.2,2.1,1.2,3.6c0,0.7-0.1,1.3-0.3,1.9c-0.2,0.6-0.5,1.1-0.8,1.5
		c-0.4,0.4-0.8,0.8-1.4,1C961.2,226,960.6,226.1,959.9,226.1z M959.9,225.5c0.8,0,1.4-0.2,2-0.5s0.9-0.8,1.2-1.5
		c0.2-0.6,0.4-1.4,0.4-2.2c0-1.3-0.3-2.4-0.9-3.1c-0.6-0.7-1.5-1.1-2.6-1.1c-1.2,0-2,0.4-2.6,1.1c-0.6,0.7-0.9,1.8-0.9,3.1
		c0,1.3,0.3,2.3,0.9,3.1C957.8,225.1,958.7,225.5,959.9,225.5z"/>
	<path class="st13" d="M972.1,226.1c-0.6,0-1.1-0.1-1.6-0.2c-0.4-0.2-0.8-0.4-1.1-0.7s-0.5-0.7-0.6-1.1s-0.2-0.9-0.2-1.4v-6.2h0.8
		v6.3c0,0.9,0.2,1.6,0.7,2s1.1,0.7,2,0.7c1.8,0,2.6-0.9,2.6-2.7v-6.3h0.8v6.2c0,0.4,0,0.8-0.1,1.1c-0.1,0.3-0.2,0.7-0.4,0.9
		s-0.4,0.5-0.7,0.7c-0.3,0.2-0.6,0.3-1,0.5C973,226.1,972.6,226.1,972.1,226.1z"/>
	<path class="st13" d="M980.3,226v-9.4h2.7c0.3,0,0.6,0,0.9,0c0.3,0,0.5,0,0.8,0.1c0.3,0,0.5,0.1,0.7,0.2c0.2,0.1,0.4,0.2,0.5,0.3
		c0.2,0.1,0.3,0.3,0.4,0.4s0.2,0.4,0.2,0.6c0.1,0.2,0.1,0.5,0.1,0.8c0,0.6-0.1,1.1-0.4,1.5c-0.3,0.4-0.7,0.7-1.3,0.8
		c0.3,0.5,0.4,0.9,0.6,1.2l1.5,3.5H986l-1.3-3.2c-0.1-0.2-0.3-0.7-0.6-1.4c-0.1,0-0.4,0-0.9,0l-2,0v4.6H980.3z M983.5,220.7
		c0.8,0,1.4-0.1,1.8-0.4c0.3-0.3,0.5-0.7,0.5-1.4c0-0.5-0.2-1-0.5-1.3s-0.8-0.4-1.5-0.4h-2.7v3.5
		C982.1,220.7,982.9,220.7,983.5,220.7z"/>
	<path class="st13" d="M996.9,226v-9.4h2.6c0.8,0,1.5,0.1,2.1,0.3c0.6,0.2,1.1,0.5,1.6,0.8c0.4,0.4,0.8,0.9,1,1.5s0.4,1.3,0.4,2.1
		c0,1.5-0.4,2.7-1.3,3.5c-0.9,0.8-2,1.2-3.6,1.2H996.9z M997.7,225.3h1.9c1.3,0,2.3-0.3,3-1s1-1.7,1-3c0-0.7-0.1-1.4-0.3-1.9
		c-0.2-0.5-0.5-1-0.8-1.3c-0.4-0.3-0.8-0.6-1.3-0.7s-1.1-0.2-1.8-0.2h-1.7V225.3z"/>
	<path class="st13" d="M1009,226v-9.4h5.3l0,0.7h-4.4v3.6h4.2v0.7h-4.2v3.8h4.6l-0.1,0.7H1009z"/>
	<path class="st13" d="M1021.1,226l-3.4-9.4h0.9l2.1,6.1c0.1,0.3,0.2,0.6,0.3,0.9c0.1,0.3,0.2,0.6,0.3,0.8c0.1,0.2,0.2,0.5,0.2,0.8
		c0-0.2,0.1-0.3,0.1-0.5c0.1-0.2,0.2-0.5,0.3-0.9c0.1-0.4,0.3-0.8,0.4-1.2c0.3-1,0.7-2,1.1-3.1c0.4-1.1,0.8-2.1,1.1-2.9h0.9
		l-3.4,9.4H1021.1z"/>
	<path class="st13" d="M1029.2,226v-9.4h0.8v9.4H1029.2z"/>
	<path class="st13" d="M1039,226.1c-0.7,0-1.4-0.1-1.9-0.4c-0.6-0.2-1-0.6-1.4-1s-0.6-1-0.8-1.5c-0.2-0.6-0.3-1.2-0.3-1.9
		c0-0.9,0.2-1.8,0.5-2.5s0.9-1.3,1.5-1.7s1.5-0.6,2.4-0.6c1,0,1.9,0.2,2.6,0.6l-0.4,0.6c-0.7-0.4-1.4-0.6-2.2-0.6
		c-0.6,0-1.1,0.1-1.6,0.3c-0.5,0.2-0.8,0.5-1.1,0.9c-0.3,0.4-0.5,0.8-0.7,1.3c-0.2,0.5-0.2,1.1-0.2,1.7c0,0.6,0.1,1.1,0.2,1.6
		s0.4,0.9,0.6,1.3c0.3,0.4,0.7,0.7,1.1,0.9c0.5,0.2,1,0.3,1.6,0.3c0.7,0,1.4-0.2,2.2-0.6l0.2,0.7
		C1040.9,226,1040.1,226.1,1039,226.1z"/>
	<path class="st13" d="M1045.8,226v-9.4h5.3l0,0.7h-4.4v3.6h4.2v0.7h-4.2v3.8h4.6l-0.1,0.7H1045.8z"/>
	<path class="st13" d="M1058.6,226.1c-0.8,0-1.5-0.1-2.1-0.3c-0.6-0.2-1.1-0.4-1.4-0.6l0.3-0.6c0.9,0.5,2,0.7,3.3,0.7
		c0.7,0,1.3-0.2,1.7-0.6c0.4-0.4,0.6-0.9,0.6-1.6c0-0.3,0-0.5-0.1-0.6c0-0.2-0.1-0.3-0.3-0.5c-0.1-0.2-0.3-0.3-0.6-0.4
		c-0.2-0.1-0.6-0.2-0.9-0.3l-1.5-0.3c-0.9-0.2-1.5-0.4-1.9-0.8c-0.4-0.4-0.6-0.9-0.6-1.6c0-0.4,0.1-0.8,0.3-1.1
		c0.2-0.3,0.4-0.6,0.7-0.8c0.3-0.2,0.7-0.3,1.1-0.4s0.9-0.1,1.4-0.1c0.5,0,1.1,0.1,1.6,0.2c0.5,0.1,0.9,0.3,1.3,0.4l-0.2,0.6
		c-0.3-0.1-0.6-0.3-1.1-0.4c-0.5-0.1-1-0.2-1.5-0.2c-0.9,0-1.6,0.1-2,0.4c-0.4,0.3-0.7,0.8-0.7,1.4c0,0.4,0.1,0.7,0.4,1
		c0.3,0.2,0.7,0.4,1.3,0.5l1.7,0.3c0.4,0.1,0.8,0.2,1.1,0.3c0.3,0.1,0.6,0.3,0.8,0.5s0.4,0.4,0.5,0.7c0.1,0.3,0.2,0.6,0.2,1
		c0,0.9-0.3,1.6-0.9,2.1C1060.4,225.9,1059.6,226.1,1058.6,226.1z"/>
</g>
<g>
	<g>
		<path class="st1" d="M291.6,105.2C291.6,105.2,291.6,105.2,291.6,105.2C291.6,105.2,291.6,105.2,291.6,105.2
			C291.6,105.2,291.6,105.2,291.6,105.2z"/>
		<path class="st1" d="M133.2,116.8c3-2.9,7.4-4.2,11.6-2.7c0.2,0.1,0.3,0.2,0.5,0.2c5.5-8.4,12.7-17.8,22-28.5c0,0,10-9.7,24.4-20
			c-1.2-1.7-1.8-3.7-1.8-5.8c0-1,0.2-2,0.5-3c-13.4-0.6-25.4,0.5-35.5,2.3c0.2,0.7,0.3,1.3,0.3,2c0,4.9-4,8.9-8.9,8.9
			c-4.2,0-7.7-2.9-8.6-6.8c-13.3,4.1-20.7,8.5-20.8,8.5c-2.2,4.8-4,9.8-5.3,14.9c1.5,3.9,3.6,8.1,6.6,12.9
			C118.1,99.7,123.4,107,133.2,116.8z"/>
		<path class="st1" d="M137.4,61.3c0-4.9,4-8.9,8.9-8.9c4.2,0,7.7,2.9,8.6,6.9c10.1-1.8,22-2.9,35.5-2.3c1.3-4.2,5.2-7.3,9.8-7.3
			c3.8,0,7.1,2.1,8.8,5.1c18.1-10.1,39-17,56-9.4c-35.8-35.8-93.8-35.8-129.6,0c-7.9,7.9-14.1,16.9-18.5,26.6
			c0.1,0,7.5-4.5,20.8-8.5C137.5,62.7,137.4,62.1,137.4,61.3z"/>
		<path class="st1" d="M209,54.8c0.7,1.3,1.2,2.7,1.3,4.2c11.9,1.8,24.6,5,38.1,9.9c0,0,33.6,13.7,43.2,36.3
			c-1.2-21.8-10.1-43.2-26.7-59.8C248,37.8,227.1,44.7,209,54.8z"/>
		<path class="st1" d="M291.6,105.2c-0.1,0.3-10.2,26.2-35.7,52.3c3.9,3.1,5.7,8.4,4,13.4c-2.2,6.4-9.1,9.7-15.5,7.6
			c-2.7-0.9-4.9-2.8-6.3-5.1c-6.3,4.9-13.1,9.6-20.7,13.9c-13.4,7.6-24.2,11.5-32.9,13c28.4,4.9,58.6-3.6,80.4-25.5
			C284.1,155.8,293,130.3,291.6,105.2z"/>
		<path class="st1" d="M134.3,133.7c-3.8-2.9-5.5-7.9-3.9-12.6c0.6-1.7,1.5-3.1,2.7-4.3c-9.8-9.7-15-17-15-17c-3-4.7-5.2-9-6.6-12.9
			c-7.3,27.7-1.4,58.2,17.7,81.4C129.1,167.9,123.3,157.7,134.3,133.7z"/>
		<path class="st1" d="M236.3,168.3c-8.7-1.1-24.3-5.9-24.3-5.9c-25.2-5.6-46.3-18.2-62-30.7c-2.9,3.7-7.8,5.3-12.5,3.7
			c-1.2-0.4-2.2-1-3.2-1.7c-11,24-5.2,34.3-5,34.6c1.9,2.3,3.9,4.6,6.1,6.7c13.9,13.9,31.2,22.4,49.1,25.5c8.7-1.5,19.5-5.4,32.9-13
			c7.6-4.3,14.5-9,20.7-13.9c-1.9-3-2.5-6.8-1.3-10.4c2.2-6.4,9.1-9.7,15.5-7.6c1.4,0.5,2.5,1.2,3.6,2c25.5-26.1,35.5-52,35.7-52.3
			c0,0,0,0,0,0c-9.7-22.6-43.2-36.3-43.2-36.3c-13.5-4.9-26.2-8.1-38.1-9.9c0,0.3,0.1,0.6,0.1,1c0,5.7-4.6,10.3-10.3,10.3
			c-3.5,0-6.6-1.8-8.4-4.4c-14.4,10.3-24.4,20-24.4,20c-9.3,10.6-16.5,20.1-22,28.5c5.6,2.2,8.5,8.4,6.5,14.1
			c-0.4,1.2-1.1,2.3-1.9,3.3"/>
		<path class="st1" d="M150,131.7c0.8-1,1.4-2.1,1.9-3.3c2-5.7-1-11.9-6.5-14.1"/>
		<path class="st1" d="M133.2,116.8c-1.2,1.2-2.2,2.6-2.7,4.3c-1.6,4.7,0.1,9.7,3.9,12.6"/>
		<path class="st1" d="M145.3,114.3c-0.2-0.1-0.3-0.2-0.5-0.2c-4.2-1.4-8.7-0.2-11.6,2.7"/>
		<path class="st1" d="M134.3,133.7c0.9,0.7,2,1.3,3.2,1.7c4.7,1.6,9.6-0.1,12.5-3.7"/>
		<path class="st1" d="M256,157.5c-1.1-0.8-2.2-1.6-3.6-2c-6.4-2.2-13.3,1.2-15.5,7.6c-1.2,3.6-0.6,7.4,1.3,10.4"/>
		<path class="st1" d="M238.2,173.5c1.4,2.3,3.6,4.1,6.3,5.1c5.6,1.9,11.6-0.4,14.4-5.3c0.4-0.7,0.8-1.4,1-2.2c1.7-5,0-10.3-4-13.4"
			/>
		<path class="st1" d="M154.9,59.3c-0.9-3.9-4.4-6.9-8.6-6.9c-4.9,0-8.9,4-8.9,8.9c0,0.7,0.1,1.4,0.3,2.1"/>
		<path class="st1" d="M137.6,63.4c0.9,3.9,4.4,6.8,8.6,6.8c4.9,0,8.9-4,8.9-8.9c0-0.7-0.1-1.4-0.3-2"/>
		<path class="st1" d="M190.4,57c-0.3,0.9-0.5,1.9-0.5,3c0,2.2,0.7,4.2,1.8,5.8"/>
		<path class="st1" d="M210.3,59c-0.1-1.5-0.6-2.9-1.3-4.2"/>
		<path class="st1" d="M191.7,65.8c1.9,2.7,4.9,4.4,8.4,4.4c5.7,0,10.3-4.6,10.3-10.3c0-0.3-0.1-0.6-0.1-1"/>
		<path class="st1" d="M209,54.8c-1.8-3-5.1-5.1-8.8-5.1c-4.6,0-8.5,3.1-9.8,7.3"/>
	</g>
	<path class="st1" d="M272.6,166.3c-2.7,5.1-10.4,6.1-13.1,5.8"/>
</g>
</svg>
